<svg xmlns="http://www.w3.org/2000/svg" id="Layer_1" data-name="Layer 1" viewBox="0 0 425.2 145.64"><defs><style>.cls-1{fill:#f230ff}.cls-2{fill:#66f}.cls-3{fill:#fdc400}.cls-4{fill:#59e58c}</style></defs><path d="M174.74 5.43h33.46v105.79h-33.46z" class="cls-3"/><path d="M208.2 111.22v33.46h71.36c1.96 0 3.02-2.3 1.74-3.79l-22.73-26.45a9.25 9.25 0 0 0-7.01-3.22z" class="cls-2"/><path d="M174.74 111.22h33.46v33.46h-33.46z" class="cls-4"/><path d="M44.01 21.74c6.15 6.15 6.15 16.13 0 22.28 15.34-15.34 40.67-14.87 56.57 1.03 15.91 15.91 16.37 41.24 1.03 56.57 6.15-6.15 16.13-6.15 22.28 0s6.15 16.13 0 22.28c28.67-28.66 29.03-74.77.82-102.98C96.53-7.26 50.5-6.92 21.83 21.65c6.16-6.06 16.06-6.03 22.18.09" class="cls-2"/><path d="M101.62 123.9c-6.15-6.15-6.15-16.13 0-22.28-15.34 15.34-40.66 14.87-56.57-1.03-15.91-15.91-16.37-41.23-1.03-56.57-6.15 6.15-16.12 6.15-22.28 0-6.12-6.12-6.15-16.02-.09-22.18-28.57 28.67-28.91 74.71-.73 102.88 28.21 28.21 74.31 27.84 102.98-.82-6.15 6.15-16.13 6.15-22.28 0" class="cls-3"/><path d="M403.46 44.01c-6.15 6.15-16.13 6.15-22.28 0 15.34 15.34 14.87 40.67-1.03 56.57-15.91 15.91-41.23 16.37-56.57 1.03 6.15 6.15 6.15 16.13 0 22.28s-16.13 6.15-22.28 0c28.66 28.67 74.77 29.03 102.98.82 28.18-28.18 27.84-74.21-.73-102.88 6.06 6.16 6.03 16.06-.09 22.18" class="cls-4"/><path d="M301.3 101.62c6.15-6.15 16.13-6.15 22.28 0-15.34-15.34-14.87-40.67 1.03-56.57 15.91-15.9 41.23-16.37 56.57-1.03-6.15-6.15-6.15-16.13 0-22.28 6.12-6.12 16.02-6.15 22.18-.09-28.67-28.57-74.71-28.91-102.88-.73-28.21 28.21-27.84 74.31.82 102.98-6.15-6.15-6.15-16.13 0-22.28" class="cls-1"/><circle cx="32.87" cy="32.87" r="15.76" class="cls-4"/><circle cx="112.76" cy="112.76" r="15.76" class="cls-1"/><circle cx="392.36" cy="32.87" r="15.76" class="cls-2"/><circle cx="312.47" cy="112.76" r="15.76" class="cls-3"/></svg>