<?xml version="1.0" encoding="UTF-8"?>
<svg id="Layer_1" data-name="Layer 1" xmlns="http://www.w3.org/2000/svg" viewBox="0 0 400.4 345.19">
  <path d="M167.96,260.36c7.76-.02,12.09,5.9,14.28,11.3l19.53,48.3-88.65.4c-30.88.14-59.29-15.37-75.35-39.02-18.27-26.9-20.1-60.25-6.35-89.2,15.21-32.01,46.65-49.15,81.89-49.14l175.28.04c15.68,0,27.59-12.25,29.15-26.45,1.44-13.19-7.7-31.64-23.97-31.74l-106.47-.71c-10.22-.07-20.59-8.43-24.11-17.24l-16.78-42.07,145.02.07c50.14.02,87.56,43.15,86.56,90.24s-39.22,85.58-88.6,87.25l47.53,117.41-71.38.44-24.62-59.95-12.9-32.48c-5.57-14.01-14.34-26.12-31.61-26.03l-87.66.45c-15.85.08-28.02,17.56-26.92,30,1.55,17.59,14.6,28.3,31.79,28.26l54.35-.14Z"/>
</svg>