<?xml version="1.0" encoding="UTF-8"?>
<svg id="Layer_1" data-name="Layer 1" xmlns="http://www.w3.org/2000/svg" viewBox="0 0 1038.22 201.71">
  <path d="M518.75,185.68h-7.47c-6.64,0-19.2-5.22-23.6-11.48-.24-.39-.53-.19-.4.25l-.08,9.12-18.48-.09V25.79s18.55-.02,18.55-.02v49.87c7.45-9.32,20.12-12.91,31.75-11.88,17.34,1.18,32.72,9.99,38.64,26.9,1.75,5,2.91,10.09,2.91,15.47v37.08c0,5.59-1.24,10.87-3.11,16.03-3.48,9.61-10.5,17.1-19.65,21.54-6.11,2.97-12.48,4.25-19.05,4.89ZM540.79,149.68c.7-2.37,1.26-4.68,1.27-7.22l.05-35.57c-.71-10.51-6.13-19.4-16.09-23.31-14.52-5.7-32.61.03-37.38,15.98-.77,2.57-1.33,5.04-1.34,7.81l-.04,34.84c.65,10.52,5.89,19.4,15.77,23.43,14.57,5.94,32.97.25,37.76-15.96Z"/>
  <path d="M634.84,185.68h-8.27c-6.67-.69-13.01-1.89-19.04-4.92-9.17-4.37-16.17-11.94-19.65-21.51-1.88-5.17-3.11-10.45-3.11-16.04v-37.13c0-5.3,1.15-10.31,2.84-15.23,3.53-10.29,10.94-18.24,20.83-22.71,13.51-6.1,31.16-6.08,44.63.11,9.54,4.39,16.76,12.05,20.34,21.93,1.95,5.37,3.11,10.82,3.11,16.64v35.65c0,6.1-1.26,11.84-3.39,17.41-3.32,8.65-9.43,15.49-17.51,19.93-6.52,3.58-13.55,5.16-20.77,5.86ZM655.87,152.11c1.33-3.21,1.88-6.36,2.19-9.9l-.04-34.84c0-2.76-.57-5.24-1.34-7.8-4.76-15.95-22.88-21.69-37.38-15.98-6.77,2.66-11.88,7.88-14.29,14.7-.98,2.78-1.73,5.59-1.74,8.61v35.57c-.01,2.62.59,4.99,1.33,7.42,2.06,6.86,6.8,12.33,13.36,15.31,13.71,6.24,31.72,1.86,37.92-13.08Z"/>
  <path d="M990.59,185.68h-9.87c-7.19,0-14.05-1.94-20.56-5.06-14.25-6.84-21.13-20.26-21.74-35.72h18.9c.39,4.54,1.48,8.77,3.97,12.52,2.88,4.31,7.07,7.06,12.02,8.74,7.21,2.14,14.82,2.38,22.18.68,8.27-1.91,13.36-7.41,12.79-16.13-.28-4.3-2.37-7.95-5.93-10.39-2.63-1.8-5.46-3.04-8.63-3.84l-25.58-6.41c-5.71-1.43-10.82-3.99-15.39-7.58-5.91-4.66-9.72-11.09-10.92-18.51-2.19-13.59,2.94-26.49,14.72-33.87,11.01-6.9,25.03-7.78,37.52-5.23,19.32,3.93,29.29,18.23,30.12,37.24l-18.89-.03c-.46-3.09-1.13-5.79-2.41-8.46-4.38-8.98-12.77-12.28-22.44-12.19-4.57.04-8.98.9-12.9,3.11-5.16,2.92-7.82,8.14-7.44,13.98.29,4.35,2.3,7.95,6.06,10.27,2.42,1.5,5,2.58,7.86,3.29l24.55,6.12c4.73,1.18,9.01,2.84,13.2,5.23,4.98,2.85,9,6.8,11.63,11.87,2.77,5.35,3.52,11.06,3.55,17.04.02,5.51-.64,10.67-3.11,15.64-2.74,5.51-7.08,9.66-12.56,12.52-6.52,3.4-13.57,4.48-20.7,5.16Z"/>
  <path d="M878.77,185.68h-8.27c-6.91-.73-13.53-1.93-19.76-5.08-8.63-4.09-15.22-11.02-18.71-19.95-2.1-5.38-3.46-10.94-3.46-16.84v-38.05c-.01-5.33,1.18-10.33,2.91-15.24,3.27-9.29,9.79-16.72,18.5-21.28,14.1-7.39,32.98-7.36,47.35-.79s21.89,20.35,22.86,36.33h-18.69c-.52-3.83-1.6-7.15-3.33-10.41-6.83-12.39-23.04-15.77-35.56-10.61-6.4,2.63-11.22,7.57-13.67,13.98-1.3,3.39-2.01,6.83-2.01,10.53v32.77c0,9.65,4.71,18.94,13.47,23.5,12.92,6.74,30.93,3.45,38.05-10.05,1.59-3.13,2.55-6.3,3.05-9.97h18.71c-.54,7.34-2.39,14.18-5.83,20.46-7.74,13.95-20.46,19.52-35.61,20.7Z"/>
  <path d="M270.85,183.52l-20.76-.06c-6.74-.02-12.42-4.62-14.94-10.76l-37.66-103.28-33.79,92.55-15.9-43.45,33.8-92.75h31.77s41.58,114.13,41.58,114.13l33.79-92.61,15.91,43.44-33.81,92.78Z"/>
  <path d="M82.54,69.35l-30.53,83.78,25.21.07-11.01,30.35H9.16S66.66,25.77,66.66,25.77h31.76s57.49,157.75,57.49,157.75l-20.85.02c-6.8-.56-12.54-4.75-14.95-11.09l-37.57-103.09Z"/>
  <path d="M385.78,183.47l-20.71-.02c-7.2,0-13.17-5.19-15.39-11.9l-53.12-145.76,31.74-.05,57.48,157.72Z"/>
  <path d="M757.47,165.72l-.02,17.85-21.07-.09c-4.31-.02-8.38-.61-12.42-1.95-10.92-3.63-13.06-13.81-13.44-24.16l-.03-72.81-16.26-.06v-17.79s16.25-.05,16.25-.05l.03-25.96h18.53s.01,25.99.01,25.99h28.39s0,17.83,0,17.83l-28.42.03.06,73.87c0,2.48,1.13,4.55,2.84,5.91,1.63.83,3.26,1.3,5.13,1.31l20.4.08Z"/>
  <path d="M379.65,123.72l-11.77-32.19,14.68-.09c2.9-.02,5.24-1.8,6.32-4.5l22.3-61.17,32.41.04-31.42,86.2c-2.72,6.72-8.95,11.21-16.19,11.71h-16.34Z"/>
  <polygon points="799.78 183.52 781.35 183.57 781.35 66.72 799.76 66.68 799.78 183.52"/>
  <polygon points="799.76 49.08 781.39 49.09 781.35 25.78 799.78 25.78 799.76 49.08"/>
</svg>