<?xml version="1.0" encoding="UTF-8"?>
<svg id="Layer_1" data-name="Layer 1" xmlns="http://www.w3.org/2000/svg" viewBox="0 0 313.63 297.19">
  <defs>
    <style>
      .cls-1 {
        fill: #25282a;
      }
    </style>
  </defs>
  <path class="cls-1" d="M143.45,107.46c-15.24-8.8-17.99-29.66-5.54-42.1,12.44-12.44,33.3-9.7,42.1,5.54l49.94,86.5c-14.4-8.32-28.81-16.63-43.22-24.95l-.51-.29c-14.26-8.23-28.52-16.46-42.77-24.7Z"/>
  <path class="cls-1" d="M75.63,238.74c17,4.56,33.69-8.25,33.69-25.85v-99.88l-49.94,86.5c-8.8,15.24-.75,34.68,16.25,39.23Z"/>
  <path class="cls-1" d="M256.92,205.98c-4.56-17-23.99-25.05-39.23-16.25-14.46,8.35-28.93,16.7-43.39,25.05l-.52.3c-14.2,8.2-28.39,16.39-42.59,24.59h99.88c17.6,0,30.4-16.69,25.85-33.69Z"/>
</svg>