<?xml version="1.0" encoding="UTF-8"?>
<svg id="Layer_1" data-name="Layer 1" xmlns="http://www.w3.org/2000/svg" viewBox="0 0 960 289.97">
  <defs>
    <style>
      .cls-1 {
        fill: #197cdf;
      }

      .cls-2 {
        fill: #1c344f;
      }
    </style>
  </defs>
  <polygon class="cls-2" points="155.89 155.93 57.86 156.03 57.84 246.81 166.87 246.87 166.99 274.54 24.68 274.53 24.64 21.93 161.18 21.94 161.12 49.11 57.88 49.14 57.79 128.76 155.75 129.01 155.89 155.93"/>
  <path class="cls-2" d="M934.28,189.79c6.54-48.02-16.49-100.36-70.9-101-50.13-2.19-82.05,35.29-87.44,82.62-5.22,45.82,12.71,90.55,59.98,103.02,26.1,6.88,64.31,3.79,88.83-7.56l-5.49-23.52c-33.46,12.71-83.16,17.21-103.88-18.31-6.31-10.81-8.73-23.13-8.42-35.22l127.32-.03ZM859.43,112.65c15.89.32,29.6,8.02,36.92,22.3,4.71,9.17,6.86,19.12,7.01,30.99l-96.21.1c3.6-28.86,20.68-54.03,52.28-53.39Z"/>
  <path class="cls-2" d="M330.23,242.82l5.78,24.87c-22.93,11.3-56.48,13.6-80.86,6.92-27.85-7.62-48.92-28.12-57.19-55.81-14.63-49.01,3.63-104.55,54.11-122.72,27.4-9.87,57.52-8.97,84.76,2.13l-7.31,25.97c-15.81-7.85-33.22-10.2-50.77-7.56-44.89,6.75-60.31,55.7-47.64,94.16,7.29,22.12,26.1,37.71,49.23,40.41,17.2,2.01,33.7-.81,49.89-8.38Z"/>
  <polygon class="cls-2" points="407.86 274.32 374.86 274.47 374.85 9.14 407.85 9.07 407.86 274.32"/>
  <path class="cls-2" d="M696.86,109.87c-1.19,4.49-.47,8.41.49,12.84-1.13,4.14-.48,6.13,1.94,5.97,3.56,2.54,10.12,7.44,11.12,11.25,0,0-2.06,4.11-6.18,12.34-1.28,5.76-2.2,11.57-2.76,17.43l-.44,103.45c-10.62.84-21.07.76-31.35-.23-.06-52.25-.11-104.57-.14-156.97.73-3.45.34-6.75-1.12-10.05,0-4.06-1.56-8.09-.56-12.91h28.6s.4,16.88.4,16.88Z"/>
  <path class="cls-2" d="M668.42,105.9c2.86,2.3,3.78,6.17,2.22,10.23l-.12,151.28c0,2.33-1.03,4.32.55,5.5s3.63.31,5.64.08c8.05-.91,15.78-.03,23.87-.41l.13-101.71c0-.5,1.91-17.53,2.49-16.44-.27-.51-1.68-1.7-1.47-2.38,4.36-2.5,8.53-9.75,6.2-13.77-1.12-1.93-3.97-2.47-5.62-4.21-2.64-2.78-4.45-4.59-8.51-5.55-1.59-.83,1.72-3.28,2.57-4.17,3.22-3.36-5.21-6.04.49-14.48,1.43,6.31-.36,12.14,1.77,18.92,10.67-27.06,31.92-44.52,60.72-39.02v31.57c-18.31-4.12-35.45,2.03-46.25,17.15-6.65,9.31-10.96,20.77-11.03,32.95l-.6,103.18-32.66-.6-.4-168.13Z"/>
  <polygon class="cls-1" points="578.39 273.02 492.28 273.6 492.43 223.12 578.39 273.02"/>
  <polygon class="cls-1" points="533.37 123.52 446.61 173.2 489.61 97.9 533.37 123.52"/>
  <polygon class="cls-1" points="593.83 271.88 549.93 246.55 636.32 197.26 593.83 271.88"/>
  <polygon class="cls-1" points="483.53 260.81 440.17 186.57 483.82 161.58 483.53 260.81"/>
  <polygon class="cls-1" points="590.48 96.8 590.5 146.97 504.19 97.04 590.48 96.8"/>
  <polygon class="cls-1" points="642.64 183.03 599.75 208.42 599.66 109.29 642.64 183.03"/>
</svg>