<?xml version="1.0" encoding="UTF-8"?>
<svg id="Layer_1" data-name="Layer 1" xmlns="http://www.w3.org/2000/svg" viewBox="0 0 604.22 260.47">
  <defs>
    <style>
      .cls-1 {
        fill: #4fbb83;
      }
    </style>
  </defs>
  <path class="cls-1" d="M595.27,192.97c1.87,24.56-15.31,39.46-37.94,43.38-19.82,3.43-45.96,1-61.38-13.33-8.23-7.84-12.88-17.8-13.75-30.17l32.02-.13c1.23,9.84,7.19,16.94,16.38,19.25,9.14,2.46,30.41,2.2,33.36-9.28,1.09-4.26.36-8.39-2.94-11.2-3.37-2.87-7.91-4.57-12.39-5.48l-25.73-5.23c-19.34-3.93-36.44-12.88-36.9-35.01-.22-10.36,2.37-20.3,9.68-27.83,15.82-16.31,46.17-17.37,66.34-10.97,17.38,5.52,29.08,20.04,30.28,38.6l-31.22.02c-.59-8.73-5.47-15.13-13.59-16.91-8.99-1.93-26.92-2.18-31.1,7.95-2.11,5.1-.28,10.3,4.72,12.76,4.38,2.15,9.21,3.36,14.16,4.3,8.74,1.66,17.14,3.21,25.77,5.33,18.49,4.56,32.66,13.43,34.22,33.96Z"/>
  <path class="cls-1" d="M384.57,188.02c3.8,12.24,14.09,19,26.37,19.01,5.72,0,11.3-.49,16.16-3.59,5.53-3.56,8.04-9.45,9.16-16.03h33.78c-1.57,21.43-15.65,39.12-36.25,45.47-13.45,4.15-27.61,4.25-41.27.46-40.94-11.34-54.13-58.3-39.45-94.18,7.68-18.76,23.52-32.08,43.33-36.08,12.48-2.52,25.05-1.94,37.09,2,19.66,6.44,32.21,22.9,35.26,43.28h-34.29c-1.57-7.9-6.13-14.34-13.82-16.57s-16.86-1.46-24.16,2.7c-16.62,9.49-16.94,37.29-11.9,53.52Z"/>
  <polygon class="cls-1" points="270.07 232.94 235.56 233.05 235.56 22.95 270.07 22.94 270.07 232.94"/>
  <path class="cls-1" d="M42.61,201.95l-.02,31.02-33.68.1.03-36.15c.04-51.94,43.65-93.44,95.56-93.41l47.42.03-.05,33.65h-48.07c-34.98.64-62.49,29.59-61.19,64.76Z"/>
  <path class="cls-1" d="M103.34,56.43c-28.32.82-51.81,19.9-58.86,46.71-14.27,8.79-25.35,20.14-35.22,34.29-.51-7.47-.54-14.61-.34-21.93,1.4-50.77,42.42-91.4,93.16-92.75h49.84s-.04,33.66-.04,33.66l-48.54.03Z"/>
  <polygon class="cls-1" points="330.72 232.96 296.38 233.11 296.35 103.72 330.71 103.72 330.72 232.96"/>
  <polygon class="cls-1" points="208.65 232.77 174.16 233.07 174.16 103.72 208.64 103.71 208.65 232.77"/>
  <polygon class="cls-1" points="330.72 56.51 296.43 56.6 296.33 22.92 330.71 22.91 330.72 56.51"/>
  <polygon class="cls-1" points="208.68 56.38 174.18 56.57 174.17 22.92 208.61 22.9 208.68 56.38"/>
</svg>