<?xml version="1.0" encoding="UTF-8"?>
<svg id="Layer_1" data-name="Layer 1" xmlns="http://www.w3.org/2000/svg" viewBox="0 0 313.63 297.19">
  <path d="M160.98,30.11c-66.43-5.84-124.99,43.35-130.74,109.82-5.83,66.47,43.32,125.06,109.76,130.82,66.42,5.85,124.99-43.35,130.73-109.82,5.83-66.48-43.33-125.06-109.75-130.82ZM178.41,65.85l13.54,27.18-27.17,13.55-13.53-27.18,27.16-13.55ZM140.42,64.06l16.58,5.59-27.41,13.72-16.59-5.59,27.42-13.72ZM78.53,167.27h.11l24.02,8.05-32.16,16.01,8.03-24.06ZM99.05,185.05l46.53-23.19,23.19,46.56-69.72-23.37ZM152.6,236.71v-.09l8.03-24.04,16,32.18-24.03-8.05ZM134.82,158.72l16.5-49.36,49.33,16.51-65.83,32.85Z"/>
</svg>