<?xml version="1.0" encoding="utf-8"?>
<!-- Generator: Adobe Illustrator 27.9.0, SVG Export Plug-In . SVG Version: 6.00 Build 0)  -->
<svg version="1.1" id="Lager_1" xmlns="http://www.w3.org/2000/svg" xmlns:xlink="http://www.w3.org/1999/xlink" x="0px" y="0px"
	 viewBox="0 0 449.6 192" style="enable-background:new 0 0 449.6 192;" xml:space="preserve">
<style type="text/css">
	.st0{fill:#020203;}
</style>
<g>
	<path class="st0" d="M71.2,80.8V47.3c0-3.8-0.9-6.8-2.8-9.2c-1.9-2.3-4.6-3.5-8.2-3.5c-3.5,0-6.3,1.2-8.2,3.5
		c-1.9,2.3-2.9,5.4-2.9,9.2v33.5c0,0.8-0.4,1.2-1.2,1.2H36.8c-0.8,0-1.2-0.4-1.2-1.2V47.3c0-3.8-0.9-6.8-2.8-9.2s-4.6-3.5-8.2-3.5
		c-3.5,0-6.3,1.2-8.2,3.5s-2.9,5.4-2.9,9.2v33.5c0,0.8-0.4,1.2-1.2,1.2H1.2C0.4,82,0,81.6,0,80.8V25.1c0-0.8,0.4-1.2,1.2-1.2h11.1
		c0.8,0,1.2,0.4,1.2,1.2v4.2h0.1c1.3-1.9,3.2-3.4,5.7-4.8c2.5-1.3,5.7-2,9.6-2c3.5,0,6.5,0.7,9.2,2c2.7,1.3,4.9,3.2,6.7,5.7H45
		c2.3-2.4,4.9-4.3,7.8-5.7c3-1.4,6.6-2.1,10.7-2.1c3.4,0,6.4,0.5,9,1.6c2.6,1.1,4.8,2.6,6.6,4.5c1.8,1.9,3.2,4.2,4.1,6.8
		c0.9,2.6,1.4,5.5,1.4,8.6v36.7c0,0.8-0.4,1.2-1.2,1.2H72.4C71.6,82,71.2,81.6,71.2,80.8z"/>
	<path class="st0" d="M93.9,11.7V1.2c0-0.8,0.4-1.2,1.2-1.2h11.1c0.8,0,1.2,0.4,1.2,1.2v10.5c0,0.8-0.4,1.2-1.2,1.2H95.1
		C94.3,12.9,93.9,12.5,93.9,11.7z M93.9,80.8V25.1c0-0.8,0.4-1.2,1.2-1.2h11.1c0.8,0,1.2,0.4,1.2,1.2v55.7c0,0.8-0.4,1.2-1.2,1.2
		H95.1C94.3,82,93.9,81.6,93.9,80.8z"/>
	<path class="st0" d="M125.3,79.3c-4.2-2.7-7.2-6.7-8.9-11.9c-1.2-3.6-1.8-8.4-1.8-14.4s0.6-10.7,1.8-14.4c1.7-5.2,4.6-9.2,8.9-11.9
		c4.2-2.7,9.3-4.1,15.1-4.1c4.3,0,8.2,0.8,11.6,2.4c3.4,1.6,6.2,3.8,8.6,6.6c0.5,0.6,0.4,1.2-0.1,1.7l-7.6,6.6
		c-0.6,0.5-1.2,0.4-1.7-0.2c-1.4-1.6-3-2.9-4.6-3.7c-1.6-0.9-3.7-1.3-6.1-1.3c-2.6,0-4.8,0.6-6.7,1.9c-1.9,1.2-3.3,3.2-4.2,5.7
		c-0.5,1.4-0.8,3-1,4.8c-0.2,1.7-0.2,3.7-0.2,6s0.1,4.3,0.2,6c0.2,1.8,0.5,3.4,1,4.8c0.9,2.5,2.3,4.4,4.2,5.6s4.1,1.9,6.7,1.9
		c2.4,0,4.4-0.4,6.1-1.3c1.6-0.9,3.2-2.1,4.6-3.7c0.5-0.6,1-0.6,1.7-0.1l7.6,6.6c0.5,0.4,0.5,1,0.1,1.7c-2.3,2.7-5.2,4.9-8.6,6.5
		c-3.4,1.6-7.2,2.4-11.6,2.4C134.6,83.4,129.5,82,125.3,79.3z"/>
	<path class="st0" d="M167.8,80.8V25.1c0-0.8,0.4-1.2,1.2-1.2h11.1c0.8,0,1.2,0.4,1.2,1.2V30h0.1c1.4-2.3,3.3-4.1,5.8-5.4
		c2.5-1.4,5.6-2.1,9.3-2.1c2.3,0,4.6,0.4,6.7,1.3c2.1,0.8,4,2,5.5,3.6c0.6,0.6,0.6,1.1,0.2,1.7l-6.4,8.1c-0.5,0.6-1,0.7-1.7,0.2
		c-1.4-0.9-2.7-1.6-4.1-2.1c-1.4-0.5-2.9-0.7-4.5-0.7c-3.9,0-6.7,1.3-8.4,3.9c-1.7,2.6-2.6,6.2-2.6,10.9v31.5c0,0.8-0.4,1.2-1.2,1.2
		H169C168.2,82,167.8,81.6,167.8,80.8z"/>
	<path class="st0" d="M218,79.2c-4.2-2.8-7.1-6.8-8.7-11.8c-0.6-2.1-1.1-4.2-1.4-6.3c-0.3-2.1-0.5-4.8-0.5-8c0-3.2,0.2-5.9,0.5-8
		c0.3-2.1,0.8-4.2,1.4-6.3c1.6-5.1,4.5-9,8.7-11.8c4.2-2.8,9.3-4.2,15.3-4.2c5.9,0,10.9,1.4,15.1,4.2c4.2,2.8,7.1,6.8,8.7,11.8
		c0.6,2.1,1.1,4.2,1.4,6.3c0.3,2.1,0.5,4.8,0.5,8c0,3.2-0.2,5.9-0.5,8c-0.3,2.1-0.8,4.2-1.4,6.3c-1.6,5.1-4.5,9-8.7,11.8
		c-4.2,2.8-9.3,4.2-15.1,4.2C227.3,83.4,222.2,82,218,79.2z M240.1,69.3c1.8-1.3,3.2-3.2,4-5.6c0.5-1.5,0.8-3.1,1-4.6
		c0.2-1.6,0.2-3.6,0.2-6.1s-0.1-4.5-0.2-6c-0.2-1.5-0.5-3.1-1-4.7c-0.9-2.4-2.2-4.3-4-5.6c-1.8-1.3-4.1-2-6.8-2s-5,0.7-6.9,2
		s-3.2,3.2-4.1,5.6c-0.5,1.6-0.8,3.2-1,4.7s-0.2,3.5-0.2,6s0.1,4.5,0.2,6.1s0.5,3.1,1,4.6c0.9,2.4,2.3,4.3,4.1,5.6
		c1.9,1.3,4.1,2,6.9,2S238.2,70.6,240.1,69.3z"/>
	<path class="st0" d="M266.3,102.6V25.1c0-0.8,0.4-1.2,1.2-1.2h11.1c0.8,0,1.2,0.4,1.2,1.2v4.3h0.1c1.4-2,3.3-3.7,5.8-4.9
		c2.5-1.3,5.7-1.9,9.7-1.9c5,0,9.2,1.2,12.7,3.5s6,5.8,7.5,10.5c0.7,2.3,1.2,4.6,1.6,6.9s0.5,5.5,0.5,9.5s-0.2,7.1-0.5,9.5
		c-0.3,2.4-0.8,4.7-1.6,6.9c-1.5,4.7-4,8.2-7.5,10.5c-3.5,2.3-7.7,3.5-12.7,3.5c-3.9,0-7.2-0.6-9.7-1.9c-2.5-1.3-4.4-2.9-5.8-4.9
		h-0.1v26.1c0,0.8-0.4,1.2-1.2,1.2h-11.1C266.7,103.8,266.3,103.4,266.3,102.6z M302.6,63.8c0.4-1.4,0.7-2.9,0.9-4.5
		s0.3-3.7,0.3-6.4c0-2.7-0.1-4.8-0.3-6.4s-0.5-3.1-0.9-4.5c-1.6-5-5.2-7.5-10.7-7.5c-5.6,0-9.3,2.5-10.9,7.5
		c-0.4,1.4-0.7,2.9-0.9,4.5s-0.3,3.7-0.3,6.4c0,2.7,0.1,4.8,0.3,6.4s0.5,3.1,0.9,4.5c1.6,5,5.2,7.5,10.9,7.5
		C297.4,71.3,301,68.8,302.6,63.8z"/>
	<path class="st0" d="M330.5,80.5c-4.1-1.9-7.4-4-9.8-6.3c-0.6-0.6-0.6-1.1,0-1.7l6.9-7.2c0.6-0.6,1.1-0.6,1.7,0
		c2.1,1.9,4.7,3.5,7.8,4.8c3.1,1.2,6.2,1.9,9.2,1.9c3.6,0,6.3-0.6,8.1-1.9c1.8-1.3,2.7-2.9,2.7-4.9c0-1.8-0.7-3.2-2-4.2
		c-1.3-1-3.9-1.8-7.7-2.2l-6.3-0.6c-6-0.6-10.4-2.4-13.4-5.3s-4.5-6.8-4.5-11.8c0-5.6,1.9-10.1,5.8-13.4s9.5-4.9,16.8-4.9
		c4.6,0,8.7,0.7,12.4,2c3.7,1.3,6.8,3,9.4,5.1c0.6,0.5,0.7,1,0.2,1.7l-5.9,7.1c-0.5,0.6-1,0.6-1.7,0.2c-1.9-1.3-4.1-2.4-6.8-3.4
		s-5.5-1.4-8.4-1.4c-2.9,0-5.1,0.6-6.6,1.7s-2.2,2.6-2.2,4.3c0,1.7,0.6,3,1.9,4c1.3,1,3.8,1.7,7.6,2.1l6.3,0.6
		c6.1,0.6,10.6,2.4,13.6,5.4c2.9,2.9,4.4,6.8,4.4,11.6c0,5.8-2.1,10.5-6.2,14.2c-4.1,3.7-10.2,5.5-18.2,5.5
		C339.7,83.4,334.7,82.4,330.5,80.5z"/>
	<path class="st0" d="M377.1,11.7V1.2c0-0.8,0.4-1.2,1.2-1.2h11.1c0.8,0,1.2,0.4,1.2,1.2v10.5c0,0.8-0.4,1.2-1.2,1.2h-11.1
		C377.5,12.9,377.1,12.5,377.1,11.7z M377.1,80.8V25.1c0-0.8,0.4-1.2,1.2-1.2h11.1c0.8,0,1.2,0.4,1.2,1.2v55.7
		c0,0.8-0.4,1.2-1.2,1.2h-11.1C377.5,82,377.1,81.6,377.1,80.8z"/>
	<path class="st0" d="M0,120.3v-10.5c0-0.8,0.4-1.2,1.2-1.2h11.1c0.8,0,1.2,0.4,1.2,1.2v10.5c0,0.8-0.4,1.2-1.2,1.2H1.2
		C0.4,121.5,0,121.1,0,120.3z M0,189.4v-55.7c0-0.8,0.4-1.2,1.2-1.2h11.1c0.8,0,1.2,0.4,1.2,1.2v55.7c0,0.8-0.4,1.2-1.2,1.2H1.2
		C0.4,190.6,0,190.2,0,189.4z"/>
	<path class="st0" d="M59.5,189.4v-33.5c0-3.8-0.9-6.8-2.8-9.2c-1.9-2.3-4.6-3.5-8.2-3.5c-3.5,0-6.3,1.2-8.2,3.5
		c-1.9,2.3-2.9,5.4-2.9,9.2v33.5c0,0.8-0.4,1.2-1.2,1.2H25.1c-0.8,0-1.2-0.4-1.2-1.2v-55.7c0-0.8,0.4-1.2,1.2-1.2h11.1
		c0.8,0,1.2,0.4,1.2,1.2v4.2h0.1c1.3-1.9,3.2-3.4,5.7-4.8s5.7-2,9.6-2c3.1,0,5.9,0.5,8.4,1.6c2.5,1.1,4.6,2.6,6.3,4.5
		c1.8,1.9,3.1,4.2,4,6.8c0.9,2.6,1.4,5.5,1.4,8.6v36.7c0,0.8-0.4,1.2-1.2,1.2H60.7C59.9,190.6,59.5,190.2,59.5,189.4z"/>
	<path class="st0" d="M116.2,189.4v-4.3h-0.1c-1.4,2-3.3,3.7-5.8,4.9s-5.7,1.9-9.7,1.9c-5,0-9.2-1.2-12.7-3.5s-6-5.8-7.5-10.5
		c-0.7-2.3-1.2-4.6-1.6-6.9c-0.3-2.4-0.5-5.5-0.5-9.5c0-3.9,0.2-7.1,0.5-9.5c0.3-2.4,0.8-4.7,1.6-6.9c1.5-4.7,4-8.2,7.5-10.5
		c3.5-2.3,7.7-3.5,12.7-3.5c3.9,0,7.2,0.6,9.7,1.9c2.5,1.3,4.4,2.9,5.8,4.9h0.1v-28.2c0-0.8,0.4-1.2,1.2-1.2h11.1
		c0.8,0,1.2,0.4,1.2,1.2v79.6c0,0.8-0.4,1.2-1.2,1.2h-11.1C116.6,190.6,116.2,190.2,116.2,189.4z M115,172.4
		c0.4-1.4,0.7-2.9,0.9-4.5c0.2-1.6,0.3-3.7,0.3-6.4c0-2.7-0.1-4.8-0.3-6.4c-0.2-1.6-0.5-3.1-0.9-4.5c-1.6-5-5.2-7.5-10.9-7.5
		c-5.6,0-9.1,2.5-10.7,7.5c-0.4,1.4-0.7,2.9-0.9,4.5c-0.2,1.6-0.3,3.7-0.3,6.4c0,2.7,0.1,4.8,0.3,6.4c0.2,1.6,0.5,3.1,0.9,4.5
		c1.6,5,5.2,7.5,10.7,7.5C109.8,179.9,113.4,177.4,115,172.4z"/>
	<path class="st0" d="M173.4,189.4v-4.2h-0.1c-1.6,2-3.6,3.6-6,4.9s-5.4,1.9-9.1,1.9c-3.1,0-5.9-0.5-8.4-1.6
		c-2.5-1.1-4.5-2.6-6.3-4.5c-1.7-1.9-3.1-4.2-4-6.8s-1.4-5.5-1.4-8.6v-36.7c0-0.8,0.4-1.2,1.2-1.2h11.1c0.8,0,1.2,0.4,1.2,1.2v33.5
		c0,3.8,0.9,6.8,2.7,9.2s4.5,3.5,8.2,3.5c3.5,0,6.1-1.2,8-3.5s2.8-5.3,2.8-9v-33.7c0-0.8,0.4-1.2,1.2-1.2h11.1
		c0.8,0,1.2,0.4,1.2,1.2v55.7c0,0.8-0.4,1.2-1.2,1.2h-11.1C173.8,190.6,173.4,190.2,173.4,189.4z"/>
	<path class="st0" d="M201.8,189.1c-4.1-1.9-7.4-4-9.8-6.3c-0.6-0.6-0.6-1.1,0-1.7l6.9-7.2c0.6-0.6,1.1-0.6,1.7,0
		c2.1,1.9,4.7,3.5,7.8,4.8s6.2,1.9,9.2,1.9c3.6,0,6.3-0.6,8.1-1.9c1.8-1.3,2.7-2.9,2.7-4.9c0-1.8-0.7-3.2-2-4.2
		c-1.3-1-3.9-1.8-7.7-2.2l-6.3-0.6c-6-0.6-10.4-2.4-13.4-5.3c-3-2.9-4.5-6.8-4.5-11.8c0-5.6,1.9-10.1,5.8-13.4
		c3.9-3.3,9.5-4.9,16.8-4.9c4.6,0,8.7,0.7,12.4,2s6.8,3,9.4,5.1c0.6,0.5,0.7,1,0.2,1.7l-5.9,7.1c-0.5,0.6-1,0.6-1.7,0.2
		c-1.9-1.3-4.1-2.4-6.8-3.4c-2.7-1-5.5-1.4-8.4-1.4s-5.1,0.6-6.6,1.7c-1.5,1.1-2.2,2.6-2.2,4.3c0,1.7,0.6,3,1.9,4
		c1.3,1,3.8,1.7,7.6,2.1l6.3,0.6c6.1,0.6,10.6,2.4,13.6,5.4c2.9,2.9,4.4,6.8,4.4,11.6c0,5.8-2.1,10.5-6.2,14.2
		c-4.1,3.7-10.2,5.5-18.2,5.5C211,192,205.9,191,201.8,189.1z"/>
	<path class="st0" d="M252.8,187.1c-2.5-2.8-3.7-7.1-3.7-12.8v-30.6c0-0.5-0.2-0.7-0.7-0.7h-3.9c-0.8,0-1.2-0.4-1.2-1.2v-8.1
		c0-0.8,0.4-1.2,1.2-1.2h3.9c0.5,0,0.7-0.2,0.7-0.7v-15.9c0-0.8,0.4-1.2,1.2-1.2h11.1c0.8,0,1.2,0.4,1.2,1.2v15.9
		c0,0.5,0.2,0.7,0.7,0.7h7.7c0.8,0,1.2,0.4,1.2,1.2v8.1c0,0.8-0.4,1.2-1.2,1.2h-7.7c-0.5,0-0.7,0.2-0.7,0.7v30.2
		c0,2.1,0.4,3.5,1.3,4.3c0.9,0.8,2.3,1.1,4.1,1.1h3c0.8,0,1.2,0.4,1.2,1.2v9.7c0,0.8-0.4,1.2-1.2,1.2h-5.8
		C259.5,191.4,255.3,190,252.8,187.1z"/>
	<path class="st0" d="M280.4,189.4v-55.7c0-0.8,0.4-1.2,1.2-1.2h11.1c0.8,0,1.2,0.4,1.2,1.2v4.9h0.1c1.4-2.3,3.3-4.1,5.8-5.4
		c2.5-1.4,5.6-2.1,9.3-2.1c2.3,0,4.6,0.4,6.7,1.3c2.1,0.8,4,2,5.5,3.6c0.6,0.6,0.6,1.1,0.2,1.7l-6.4,8.1c-0.5,0.6-1,0.7-1.7,0.2
		c-1.4-0.9-2.7-1.6-4.1-2.1c-1.4-0.5-2.9-0.7-4.5-0.7c-3.9,0-6.7,1.3-8.4,3.9c-1.7,2.6-2.6,6.2-2.6,10.9v31.5c0,0.8-0.4,1.2-1.2,1.2
		h-11.1C280.8,190.6,280.4,190.2,280.4,189.4z"/>
	<path class="st0" d="M324.2,120.3v-10.5c0-0.8,0.4-1.2,1.2-1.2h11.1c0.8,0,1.2,0.4,1.2,1.2v10.5c0,0.8-0.4,1.2-1.2,1.2h-11.1
		C324.6,121.5,324.2,121.1,324.2,120.3z M324.2,189.4v-55.7c0-0.8,0.4-1.2,1.2-1.2h11.1c0.8,0,1.2,0.4,1.2,1.2v55.7
		c0,0.8-0.4,1.2-1.2,1.2h-11.1C324.6,190.6,324.2,190.2,324.2,189.4z"/>
	<path class="st0" d="M355.7,187.7c-4.2-2.9-7.1-6.8-8.7-11.9c-0.6-1.9-1.1-3.9-1.5-6.2c-0.4-2.3-0.5-5-0.5-8c0-3.1,0.2-5.8,0.5-8.1
		s0.8-4.4,1.4-6.3c1.6-5.1,4.5-9,8.7-11.8c4.2-2.8,9.2-4.2,15-4.2c6,0,11.1,1.4,15.3,4.3s7,6.8,8.6,11.8c0.3,1,0.6,2.1,0.8,3.1
		c0.2,1,0.4,2.3,0.6,3.6c0.2,1.4,0.3,2.9,0.4,4.6c0.1,1.7,0.1,3.8,0.1,6.1c0,0.8-0.4,1.2-1.3,1.2h-35.8c-0.5,0-0.7,0.2-0.7,0.7
		c0,0.9,0.1,1.7,0.2,2.4c0.2,0.7,0.4,1.4,0.6,2.1c2,5.9,6.4,8.8,13,8.8c3.3,0,6-0.5,8.2-1.6c2.2-1,4-2.4,5.4-4
		c0.6-0.6,1.2-0.7,1.8-0.2l7.1,6.3c0.6,0.5,0.6,1,0.1,1.7c-2.5,2.9-5.8,5.3-9.8,7.1c-4,1.9-8.7,2.8-14.1,2.8
		C365.1,192,359.9,190.5,355.7,187.7z M382.1,150.1c-0.8-2.3-2.2-4.2-4.2-5.5c-2-1.3-4.4-2-7.1-2c-2.8,0-5.2,0.7-7.2,2
		s-3.4,3.2-4.2,5.5c-0.5,1.4-0.7,3.1-0.7,4.9c0,0.5,0.2,0.7,0.7,0.7h22.8c0.5,0,0.7-0.2,0.7-0.7
		C382.9,153.2,382.6,151.5,382.1,150.1z"/>
	<path class="st0" d="M410.1,189.1c-4.1-1.9-7.4-4-9.8-6.3c-0.6-0.6-0.6-1.1,0-1.7l6.9-7.2c0.6-0.6,1.1-0.6,1.7,0
		c2.1,1.9,4.7,3.5,7.8,4.8c3.1,1.2,6.2,1.9,9.2,1.9c3.6,0,6.3-0.6,8.1-1.9c1.8-1.3,2.7-2.9,2.7-4.9c0-1.8-0.7-3.2-2-4.2
		c-1.3-1-3.9-1.8-7.7-2.2l-6.3-0.6c-6-0.6-10.4-2.4-13.4-5.3s-4.5-6.8-4.5-11.8c0-5.6,1.9-10.1,5.8-13.4s9.5-4.9,16.8-4.9
		c4.6,0,8.7,0.7,12.4,2c3.7,1.3,6.8,3,9.4,5.1c0.6,0.5,0.7,1,0.2,1.7l-5.9,7.1c-0.5,0.6-1,0.6-1.7,0.2c-1.9-1.3-4.1-2.4-6.8-3.4
		c-2.7-1-5.5-1.4-8.4-1.4c-2.9,0-5.1,0.6-6.6,1.7c-1.5,1.1-2.2,2.6-2.2,4.3c0,1.7,0.6,3,1.9,4c1.3,1,3.8,1.7,7.6,2.1l6.3,0.6
		c6.1,0.6,10.6,2.4,13.6,5.4s4.4,6.8,4.4,11.6c0,5.8-2.1,10.5-6.2,14.2c-4.1,3.7-10.2,5.5-18.2,5.5C419.3,192,414.2,191,410.1,189.1
		z"/>
</g>
</svg>
