<?xml version="1.0" encoding="UTF-8"?>
<svg id="Layer_1" data-name="Layer 1" xmlns="http://www.w3.org/2000/svg" viewBox="0 0 844.09 245.11">
  <path d="M154.54,211.46c0,4.53-2.75,7.16-6.76,7.16h-22.98c-3.69,0-6.93-2.64-6.95-6.62l-.36-76.42c-.07-15.27-11.16-26.13-25.18-26.58s-26.8,10.31-26.9,25.97l-.46,76.97c-.03,4.27-3.19,6.73-7.06,6.72l-23.03-.03c-3.61,0-6.95-2.6-6.95-6.69v-123.71c0-3.52,2.97-6.49,6.3-6.5l16.05-.05c1.51,0,4.59,1.7,5.29,2.88l7.7,13.13c11.08-13.93,27.1-19.62,44.61-18.69,17.13.91,31.27,9.22,39.01,24.38,11.26-17.15,29.43-25.34,48.93-24.35,31.3,1.59,48.07,27.42,48.1,57.13l.08,75.83c0,3.58-2.94,6.63-6.35,6.62l-23.82-.02c-3.33,0-6.27-3.13-6.28-6.61l-.07-72.86c-.02-16.51-8.36-29.35-25.23-30.08s-27.6,12.77-27.62,30.07l-.07,72.33Z"/>
  <path d="M498.35,211.45c0,4.5-3,7.18-6.84,7.18l-23.02-.02c-3.61,0-6.9-2.75-6.93-6.61l-.45-77.24c-.09-15.25-11.93-25.77-26.03-25.79-13.9-.01-25.83,10.59-25.93,25.78l-.49,77.19c-.02,3.58-2.74,6.64-6.15,6.65l-23.97.02c-3.51,0-6.93-2.69-6.93-6.69v-123.65c0-3.69,3.09-6.56,6.54-6.57l15.97-.05c1.35,0,4.45,1.68,5.19,2.95l7.67,13.05c11.06-13.87,27.06-19.67,44.58-18.65,16.51.96,30.87,8.35,38.92,24.36,11.33-16.95,29.77-25.68,50.01-24.31s37.38,14.67,43.57,34.42c1.97,7.34,3.57,14.78,3.58,22.66l.04,75.82c0,3.56-2.82,6.68-6.38,6.67l-23.77-.06c-3.35,0-6.27-3.18-6.28-6.6l-.09-73.79c-.02-15.94-8.72-28.32-25.23-29.15s-27.48,12.49-27.5,29.05l-.09,73.33Z"/>
  <path d="M760.79,193.86c28.25-.35,25.54-24.49,32.64-24.52l27.73-.11c12.28-.05,3.8,23.44-10.21,35.46-13.12,11.25-29.34,16.26-46.66,16.69-12.09.3-23.35-.64-34.62-4.79-20.67-7.61-35-25.21-37.54-47.35-1.46-12.79-1.49-25.52.04-38.28,2.75-23.03,17.92-40.94,39.9-47.96,34.69-11.09,87.87-.49,95.1,40.18.69,3.88-1.68,8-5.98,8l-27.2.02c-7.56,0-5.69-25.34-34.7-24.65-14.39.34-26,8.43-28.5,23.36-2.19,13.09-2.23,27.31.08,40.32,2.73,15.41,14.39,23.82,29.93,23.63Z"/>
  <path d="M653.96,218.6h-24.5c-3.31,0-6.29-3.06-6.29-6.66v-123.71c0-3.17,2.55-6.48,5.79-6.49l24.91-.05c3.15,0,6.27,3.23,6.27,6.58v123.63c0,3.3-2.7,6.7-6.18,6.7Z"/>
  <path d="M310.28,218.61h-24.53c-3.49,0-6.09-3.12-6.44-6.52v-42.17c0-1.76,1.93-4.84,3.35-5.64l11.78-6.72c1.82-1.04,3.38-4,3.38-6.38l-.05-62.03c0-3.78,2.27-7.42,6.5-7.43l24.07-.06c3.25,0,6.51,3.15,6.51,6.42l.05,42.18c0,1.74-1.69,4.93-3.11,5.73l-11.73,6.66c-1.86,1.06-3.66,3.95-3.66,6.38v62.96c.01,3.03-2.76,6.61-6.13,6.61Z"/>
  <path d="M329.71,58.14l-26.05-.03c-3.82,0-6.87-2.98-6.87-6.76v-26.17c0-2.78,2.75-6.19,5.77-6.2l27.2-.05c3.12,0,6.21,3.08,6.21,6.23l.02,26.18c0,3.62-2.84,6.43-6.29,6.81Z"/>
  <path d="M654.47,58.13l-26.08-.06c-3.64,0-6.34-3.27-6.34-6.71l.03-26.16c0-3.43,2.93-6.01,6.25-6.26h26.12c3.76,0,6.49,2.6,6.81,6.32v26c0,3.7-3.05,6.87-6.79,6.86Z"/>
</svg>