<?xml version="1.0" encoding="UTF-8"?>
<svg id="Layer_1" data-name="Layer 1" xmlns="http://www.w3.org/2000/svg" viewBox="0 0 313.87 246.26">
  <path d="M217.44,227.39c-34.7-9.89-56.22-50.49-37.43-58.99,24.63-11.14,17.88,49.98,68.99,32.54,17.2-5.87,28.28-30.15,17.63-49.16-15.91-28.4-45.09-14.83-61.77-25.3-3.1-1.95-3.31-12.51-.21-14.46,15.19-9.55,67.34-9.62,86.64,27.5,12.23,23.53,8.41,56.12-14.07,74.44-17.25,14.05-38.18,19.58-59.78,13.43Z"/>
  <path d="M49.49,133.21l-.54,80.24c-.04,5.88-6.09,16.29-11.17,16.67-5.07.39-15.87-8.41-15.91-13.8l-.7-90.92c-.06-7.79,9.76-18.24,16.5-18.17l47.15.45c4.4.04,11.71,4.08,14.22,6.93,2.5,2.84-2.07,15.29-5.73,15.83-8.54,1.27-27.61,1.77-43.82,2.77Z"/>
  <path d="M134.96,126.96c-3.7,3.65-17.31,4.79-20.83,2.8-17.97-10.15,23.85-33.41,8.34-66.07-9.94-20.93-34.6-17.44-60.4-20.73-4.64-.59-4.63-16.27.14-18.13,16.04-6.23,49.5-5.5,66.69,6.17,32.18,21.84,32.07,70.27,6.06,95.97Z"/>
  <path d="M253.27,93.33c-3.32,3.93-15.27,4.74-18.76,2.22-4.2-3.04-4.64-15.47-1.24-20.11l21.3-29.09-61.1-1.49c-4.99-.12-13.25-7.13-13.21-11.32.04-4.19,8.47-12.36,12.6-12.36h82.35c4.86,0,14.5,5.11,16.6,9.15,2.11,4.05.9,16.26-2.57,20.38l-35.97,42.63Z"/>
  <path d="M155.99,207.81c2.65,4.34-.6,17.34-4.22,19.52-4.35,2.63-16.19.62-19.24-4.37l-38.32-62.6c-2.74-4.47-2.36-14.24-.69-18.68,1.68-4.44,17.34-7.78,19.98-3.47l42.49,69.59Z"/>
  <path d="M49.67,79.77c.2,8.28-6.65,18.92-11.9,18.63s-16.09-8.01-16.1-13.68l-.09-49.15c0-5.05,7.05-13.26,11.31-14.66,4.25-1.39,15.51,5.73,15.63,10.52l1.16,48.34Z"/>
</svg>