<?xml version="1.0" encoding="UTF-8"?>
<svg id="Layer_1" data-name="Layer 1" xmlns="http://www.w3.org/2000/svg" viewBox="0 0 313.63 297.19">
  <defs>
    <style>
      .cls-1 {
        fill: #0d2130;
      }
    </style>
  </defs>
  <path class="cls-1" d="M253.52,206.93c6.96-11.52,11.68-24.02,14.16-36.84,2.47-12.82,2.72-25.96.72-38.85-1.26-8.15-3.28-15.26-5.42-21.18-2.14-5.91-4.41-10.65-6.17-13.99-.1-.2-.21-.41-.33-.62-1.16-2.17-4.07-2.54-5.81-.8l-28.38,28.38c-.5.5-.65,1.25-.41,1.91,1.32,3.64,2.56,8.02,3.33,12.98,1.63,10.55.82,21.42-2.42,31.64-1.62,5.11-3.85,10.06-6.68,14.75-2.84,4.69-6.27,9.12-10.36,13.21-6.8,6.8-14.57,11.83-22.89,15.21-12.47,5.06-26.2,6.34-39.29,3.8-3.91-.76-7.75-1.85-11.5-3.28-2.53-.97-5.02-2.08-7.45-3.36-6.01-3.16-11.65-7.26-16.76-12.36-6.8-6.8-11.83-14.57-15.2-22.88-.18-.44-.34-.88-.51-1.33-4.63-12.11-5.74-25.33-3.28-37.97,1.27-6.55,3.48-12.93,6.64-18.94,3.16-6.01,7.26-11.66,12.36-16.76,4.09-4.09,8.52-7.53,13.21-10.36,7.03-4.25,14.66-7.13,22.52-8.65,7.86-1.52,15.96-1.67,23.87-.44,4.96.77,9.34,2.01,12.98,3.32.67.24,1.41.09,1.92-.41l28.38-28.38c1.74-1.74,1.37-4.65-.8-5.8-.21-.11-.42-.22-.61-.32-3.35-1.76-8.1-4.03-14.01-6.17-5.92-2.14-13.03-4.16-21.17-5.42-17.18-2.66-34.82-1.35-51.54,3.95-8.35,2.65-16.47,6.29-24.15,10.93-7.68,4.63-14.92,10.27-21.51,16.86-10.98,10.98-19.29,23.76-24.81,37.37-8.28,20.42-10.33,42.69-6.21,64.03,2.07,10.67,5.69,21.12,10.86,30.97.86,1.63,1.76,3.25,2.71,4.85,4.75,8.04,10.57,15.62,17.44,22.49,6.87,6.87,14.44,12.7,22.48,17.44,4.81,2.84,9.79,5.3,14.88,7.36,20.42,8.27,42.69,10.33,64.03,6.2,10.67-2.07,21.12-5.69,30.97-10.87,9.85-5.17,19.1-11.91,27.33-20.15,6.59-6.59,12.23-13.84,16.87-21.52Z"/>
  <path class="cls-1" d="M136.84,168.57c11.02,11.03,28.9,11.03,39.92,0,11.02-11.02,11.02-28.9,0-39.92-11.02-11.02-28.9-11.02-39.92,0-11.02,11.02-11.02,28.9,0,39.92Z"/>
</svg>