<?xml version="1.0" encoding="UTF-8"?>
<svg id="Layer_1" data-name="Layer 1" xmlns="http://www.w3.org/2000/svg" viewBox="0 0 469.04 377.97">
  <defs>
    <style>
      .cls-1 {
        fill: #fa6147;
      }
    </style>
  </defs>
  <path class="cls-1" d="M316.97,117.64c-3.84,36.77-32.27,66.6-67.1,73.63-37.52,7.57-75.21-10.01-93.07-45.04l75.5-.17c.25-3.32.25-6.43-.02-9.97H98.59c-.68-4.13-.68-7.67-.15-11.32l50.81-.11c-6.02-30.52,4.52-60.7,26.63-80.55,22.93-20.58,54.95-27.29,84.33-17.12s52.06,37.35,56.65,69.27l49.89.09c.62,3.94.62,6.92-.17,11.24l-133.74.02v10s84.12.04,84.12.04Z"/>
  <path d="M204.29,356.21c-3,.38-6.29.39-9.34,0l-31.11-53.94-.21,54.14-7.81-.06v-63.91s10.58.08,10.58.08l29.61,50.93.37-50.91,7.91.03v63.64Z"/>
  <path d="M272.53,356.88l-15.18-26.61-16.73-.12v26.63s-7.98.07-7.98.07l-.03-64.54,27.93.2c9.95.07,17.42,6.86,18.45,15.98,1.02,9.02-3.49,17.33-13.71,20.21l16.11,27.93-8.87.24ZM270.67,310.96c-.09-6.46-4.42-11.03-10.51-11.06l-19.53-.11v22.86s19.84-.31,19.84-.31c6.18-.1,10.3-5.02,10.21-11.38Z"/>
  <path d="M376.14,352.71c-9.47,6.15-21.82,5.99-31.17.36-6.32-3.8-9.77-10.06-9.51-17.23l8.11-.1c.86,6.01,3.53,10.39,9.08,12.56,5.68,2.23,12.4,2.15,17.81-.82,3.95-2.16,5.7-6.13,5.22-10.55-.38-3.51-3.85-7.42-8.35-8.18l-15.56-2.63c-6.6-1.11-11.75-5.98-13.25-11.34-1.82-6.51-.14-12.96,4.78-17.62,6.56-6.22,16.1-7.97,24.81-5.31,8.58,2.62,14.42,9.28,14.96,18.68l-8.42.11c-.53-7.18-4.78-11.03-11.21-12.02-4.97-.76-10.48.03-14.22,3.5-2.78,2.58-3.7,6.65-2.78,10.48,2.87,12.01,33.77,1.99,37.28,22.21,1.18,6.78-1.11,13.69-7.59,17.9Z"/>
  <path d="M21.24,353.59c-6.82-3.73-10.25-9.73-10.6-17.7l8.28-.18c.97,6.17,3.83,10.8,9.75,12.87,5.45,1.9,11.88,1.69,17.08-1.01,3.98-2.07,5.78-6.3,5.3-10.58-.43-3.79-3.85-7.52-8.46-8.29l-15.57-2.6c-5.86-.98-10.88-5.43-12.58-9.8-2.41-6.2-1.36-12.58,2.79-17.56,5.72-6.84,15.01-9.25,23.76-7.53,9.66,1.9,16.84,8.99,17.46,19.3l-8.41.16c-.63-6.57-3.93-10.33-9.63-11.73-5.18-1.27-11.13-.62-15.37,2.76-3.19,2.55-4.19,6.84-3.25,10.93,2.74,11.88,33.53,2,37.27,22,1.29,6.93-1.17,13.71-7.25,17.87-8.73,5.98-20.85,6.41-30.58,1.09Z"/>
  <polygon points="442.66 328.51 416.15 328.6 416.18 349.2 450.06 349.3 449.68 356.64 408.14 356.61 408.09 292.48 449.81 292.26 449.93 299.64 416.11 299.81 416.16 320.76 442.44 320.83 442.66 328.51"/>
  <path d="M121.48,293.34c1.99-1.1,5.16-1.14,8.02-.65l-.2,44.35c-.06,13.08-10.3,20.82-22.56,21.16-13.29.37-24.22-7.9-24.26-21.9l-.13-43.22c2.38-.68,5.43-.75,7.84-.42l.22,43.7c.04,8.3,6.34,14.09,14.29,14.06,4.41-.02,8.83-.81,11.83-3.77,2.51-2.48,4.67-7.72,4.7-11.95l.26-41.35Z"/>
  <polygon points="312.07 356.67 303.82 356.81 303.8 292.55 312.07 292.57 312.07 356.67"/>
</svg>