<?xml version="1.0" encoding="UTF-8"?>
<svg id="Layer_1" data-name="Layer 1" xmlns="http://www.w3.org/2000/svg" viewBox="0 0 453.45 519.29">
  <path d="M304.16,300.21l-19.1-12.24-56.22,35.93L38.64,202.04v24.62l190.2,121.85,75.32-48.31h0Z"/>
  <path d="M153.69,250.66l19.25,12.23,56.21-35.91,190.21,121.84v-24.61l-190.21-121.85-75.46,48.31h0Z"/>
  <path d="M229.16,55.12L38.65,177.12l19.1,12.24,171.41-109.77,190.21,121.84v-24.47L229.16,55.12Z"/>
  <path d="M228.84,471.29l-190.2-121.85v24.47l190.2,121.85,190.52-122.01-19.25-12.23-171.27,109.77Z"/>
  <path d="M342.52,324.66l-19.11-12.23-94.57,60.53L38.64,251.12v24.61l190.2,121.84,113.68-72.92h0Z"/>
  <path d="M115.34,226.2l19.25,12.22,94.56-60.52,190.21,121.84v-24.61l-190.21-121.85-113.81,72.93h0Z"/>
  <path d="M76.99,201.58l19.1,12.39,133.06-85.15,190.21,121.84v-24.62l-190.21-121.84-152.16,97.38Z"/>
  <path d="M381.01,349.28l-19.25-12.38-132.92,85.15-190.2-121.84v24.61l190.2,121.84,152.17-97.38Z"/>
</svg>