<?xml version="1.0" encoding="UTF-8"?>
<svg id="Layer_1" data-name="Layer 1" xmlns="http://www.w3.org/2000/svg" viewBox="0 0 535.15 539.6">
  <path d="M392.65,417.33c-88.04,47.48-191.04,9.22-233.96-80.42,9.33,92.43,98.11,150.52,186.45,125.6-28.07,23.11-64.05,24.59-99.27,15.87-96.57-30.62-146.02-142.13-98.25-232.32,19.91-37.6,54.56-64.98,94.83-66.05-50.9,22.45-83.25,67.81-70.86,121.54,11.41,49.45,49.81,84.79,96.12,102.26,71.76,27.08,147.59-2.62,183.11-69.78-5.36,35.33-25.45,65.65-58.17,83.3Z"/>
  <path d="M121.46,387.07c-29.81-25.39-45.53-64.6-40.25-105.91,11.71-91.66,88.39-151.16,183.05-149.01-83.96-34.96-178.65,12.85-198.55,100.45-7.71-36.69,10.83-66.97,34.18-93.54,66.16-59.8,169.48-59.37,232,5.57,35.65,37.03,53.11,91.98,30.06,138.26,6.77-68.83-35.38-125.25-104.28-125.76-67.1-.5-127.24,41.93-150.06,104.58-15.42,42.33-7.86,82.66,13.85,125.36Z"/>
  <path d="M322.66,384.29c-45.45,4.41-88.69-10.01-112.12-45.99,28.11,16.93,57.45,29.18,88.28,23.43,31.01-5.79,57.23-24.31,73.73-53.78,32.82-58.65,25.15-132.9-19.84-182.93-29.32-32.6-67.63-45.51-112.08-47.41,36.59-13.72,77.52-7.09,109.68,16.85,72.76,54.16,89.45,149.51,39.91,231.89,71.79-52.46,76.57-158.23,11.99-220.17,33.29,12.53,54,41.88,62.32,75.53,23.25,94.04-41.53,192.85-141.88,202.58Z"/>
</svg>