<?xml version="1.0" encoding="UTF-8"?>
<svg id="Layer_1" data-name="Layer 1" xmlns="http://www.w3.org/2000/svg" viewBox="0 0 313.63 297.19">
  <path d="M78.61,149.32c-11.54,0-17.89,6.64-16.16,16.46h-5.48c-2.31-5.2-3.75-11.26-3.75-17.04,0-26.28,19.62-31.19,33.48-31.77,1.44-24.26,8.95-27.15,20.78-37.55l12.41-10.11c-5.48,2.6-10.68,4.33-16.74,4.33-11.83,0-20.49-5.78-31.46-5.78-8.95,0-15.58,4.91-17.03,12.13h-6.64c6.64-11.84,23.09-41.59,47.04-41.59,13.56,0,23.09,8.09,36.94,8.09,9.23,0,16.16-2.89,22.22-7.22l-.29,4.33c-.87.58-1.73,1.16-2.31,1.73-14.43,11.55-27.99,30.33-27.99,62.96v48.81c0,10.11-.87,18.2-4.62,25.13-7.79,15.02-24.53,24.84-40.98,30.9h-9.52c8.66-4.04,14.72-12.71,16.74-23.11,1.15-5.49,1.44-10.98,1.44-16.75v-23.97h-8.08ZM160.28,83.76l35.5-42.46c5.77,6.64,13.85,11.84,25.11,11.84,11.83,0,20.2-6.93,23.09-16.17h3.75c.58,2.31.58,4.62.58,6.93,0,20.8-16.74,40.43-43.58,40.43l-31.74,37.26c33.76,10.11,43,33.5,49.64,56.61,5.48,19.35,9.23,38.7,23.37,50.54l19.62-15.31v8.95l-44.15,34.95c-13.56-6.35-20.78-18.2-25.68-31.48l-40.4,31.77c-10.1-7.8-22.22-13.86-34.92-16.75-5.19-1.16-10.68-1.73-16.16-1.73-20.78,0-36.07,9.53-44.73,22.82h-8.66c10.1-20.22,27.99-37.83,50.21-46.79,26.26-16.75,33.48-27.73,34.05-49.1l1.44-62.67c0-7.51-3.17-40.15,37.23-68.16l4.62,6.64c-22.22,15.31-33.19,31.77-33.76,61.52l-1.15,43.61,53.68-63.25c-7.79-.87-15.3-3.75-21.64-8.09l-11.25,12.42-4.04-4.33ZM122.47,209.68c3.46-.29,6.93-.58,10.39-.58,19.05,0,38.09,6.64,52.81,18.49l8.37-6.64c-3.17-9.53-5.19-19.64-8.08-29.46-6.06-19.35-14.43-36.39-37.8-40.72l-3.75,4.04h-1.15v11.55c-.58,17.33-4.04,29.17-20.78,43.32Z"/>
</svg>