<?xml version="1.0" encoding="UTF-8"?>
<svg id="Layer_1" data-name="Layer 1" xmlns="http://www.w3.org/2000/svg" viewBox="0 0 551.49 547.4">
  <path d="M251.14,47.42c130.67-12.02,243.78,84.26,255.75,211.95,12.14,129.54-83.35,244.43-212.89,256.17-128.45,11.65-242.79-82.93-255.15-211.68C26.58,175.9,119.97,59.49,251.14,47.42ZM253.37,76.32c-114.95,10.93-196.77,113.63-185.64,225.33,11.22,112.67,111.95,195.63,224.32,184.94,113.4-10.79,197-111.7,185.88-225.31-10.89-111.25-110.07-195.84-224.55-184.96Z"/>
  <path d="M423.04,370.92c13.54-46.19-.75-94.41-38.03-124.37-71.15-57.18-174.83-50.42-239.27,15.96-11.07-26.27-8.5-54.98,2.96-80.12,49.23-27.78,103.25-38.94,158.99-32.72,28.66,3.2,55.5,8.83,81.49,21.09,41.3,19.47,67.8,58.67,68.87,105.01,1.17,50.77-17.67,100.17-52.74,135.96,5.94-13.63,13.2-25.36,17.72-40.8Z"/>
  <path d="M400.03,300.71c11.4,26.33,8.36,54.75-3.27,80.14-36.58,19.34-75.04,32.38-116.56,33.59-41.37,1.21-81.18-4.19-118.65-20.1-48.32-20.52-76.88-66.14-73.98-118.82,2.45-44.47,18.01-88.73,50.33-120.99-14.12,30.11-24.31,57.26-19.21,88.8,5.72,35.39,26.19,64.13,56.31,83.96,72.62,43.71,161.84,35.98,225.03-26.58Z"/>
  <path d="M257.74,227.71c31.55-8.66,61.49,9.87,69.2,39.66,7.59,29.31-9.32,59.86-39.6,68.04-28.47,7.69-58.62-8.37-67.61-36.54-9.46-29.62,6-62.38,38.01-71.16Z"/>
  <path d="M200.34,426.89c65.63,13.05,124.86,9.28,186.42-20.86-10.79,24.64-32.49,42.61-58.76,51.41-69.34,23.22-146.91,2.14-195.34-55.65,22.13,10.3,43.49,20.29,67.69,25.1Z"/>
  <path d="M312.33,131.18c-53.92-7.07-103.89,1.55-152.94,25.4,9.62-24.77,29.89-38.72,52.54-49.46,71.38-25.78,152.25-5.4,201.67,54.58-32.03-16.94-63.91-27.82-101.27-30.53Z"/>
  <path d="M208.91,321.35c-22.85-6.89-39.36-21.4-54.5-39.62,13.59-18.03,30.42-32.41,53.84-40.15-13.79,25.91-15.18,53.1.66,79.77Z"/>
  <path d="M391.57,281.37c-15.23,17.76-30.8,32.86-54.45,39.67,14.89-26.44,14.78-53.05-.04-79.55,23.64,7.09,39.11,22.09,54.48,39.88Z"/>
</svg>