<?xml version="1.0" encoding="UTF-8"?>
<svg id="Layer_1" data-name="Layer 1" xmlns="http://www.w3.org/2000/svg" viewBox="0 0 90.38 25.79">
  <defs>
    <style>
      .cls-1 {
        fill: #020202;
      }

      .cls-2 {
        fill: #878787;
      }
    </style>
  </defs>
  <path d="M55.95,14.08l.09.26c-1.49,1.52-2.98,3.04-4.48,4.56l-1,.67-4.91,4.83-4.89-4.87-.99-.66c-1.48-1.5-2.96-3-4.43-4.49l.07-.28L25.45,3.95c1.03.45,2.23.42,3.16,1.03l17.07,12.03,17.22-12.1c.92-.34,1.84-.61,2.89-.77l-9.84,9.94Z"/>
  <path class="cls-2" d="M12.75,6.72c.13,0,.28,0,.46.05l5.31,1.75,3.67,1.25,13.04,4.39c.12.04.22.06.19-.05l5.35,5.43-18.38-7.67-3.64-1.55-5.34-2.28c-.82-.35-1.6-.63-2.4-1.04-.41-.21-.91-.19-1.21-.51l-1.14-.54c-.12-.12-.11-.25.05-.33,1.35.32,2.7.69,4.03,1.1Z"/>
  <path class="cls-2" d="M80.32,7l-29.76,12.57,5.38-5.49c-.02.07-.05.15.05.15.05,0,.07-.06.15-.09l16.73-5.57c2.71-.91,5.44-1.73,8.19-2.48,1.06.09.3.43-.26.66l-.49.25Z"/>
  <path class="cls-1" d="M45.69,7.82l-5.89,2.14c-.21.08-.47.1-.59-.1l6.48-3.47,6.5,3.63c-2.33-.39-4.22-1.55-6.51-2.2Z"/>
  <path class="cls-2" d="M85.2,4.72c.21-.04.29,0,.23.15-.82.4-1.66.75-2.56,1.1s-1.67.8-2.55,1.03c.26-.31.64-.47,1.11-.55-.17-.3-.46-.24-.72-.08-.51.32-1.11.3-1.68.42-1.2.27-2.36.58-3.51,1.01-.61.23-1.27.32-1.84.62-.31.16-.58.07-.81.15,1.12-.54,2.33-.9,3.61-1.28l8.72-2.57Z"/>
  <path class="cls-2" d="M12.75,6.72c-1.48-.1-2.9-1.06-4.03-.9.42.3.82.37,1.1.67-1.38-.41-2.66-1.15-4.02-1.63-.21-.13-.27-.18,0-.21,1.27.24,2.5.68,3.8,1.07,1.1.33,2.17.6,3.17,1Z"/>
  <path class="cls-2" d="M5.79,4.64c-.05.06-.02.14,0,.21-.46-.16-.91-.33-1.36-.58.54-.03,1,.13,1.36.38Z"/>
  <path class="cls-2" d="M85.44,4.87c-.07-.07-.15-.12-.23-.15.51-.15.99-.43,1.6-.49-.4.42-.93.42-1.37.64Z"/>
</svg>