<?xml version="1.0" encoding="UTF-8"?>
<svg id="Layer_1" data-name="Layer 1" xmlns="http://www.w3.org/2000/svg" viewBox="0 0 40.85 31.74">
  <defs>
    <style>
      .cls-1 {
        fill: #32b9a0;
      }
    </style>
  </defs>
  <path class="cls-1" d="M37.94,23.09l.14,5.15c-5.42-.9-10.85-3.18-15.16-6.93-.94-.4-3.04-.49-3.99-.1-4.41,4.13-9.46,5.98-15.37,7.37v-5.25c3.37-1.29,6.63-2.21,10.1-2.85,2.89-.53,4.57-2.61,4.33-5.54-.17-2.03-1.26-3.83-3.42-4.3-3.73-.81-7.26-1.8-10.98-3.07l-.04-5.25c3.93.89,7.5,2.04,11.03,4.02,4.35,2.43,3.65,4.59,8.05,3.23,3.53-4,10.17-6.38,15.41-7.55l.02,5.28c-3.39,1.25-6.57,2.09-10.06,2.9-1.83.42-3.63,1.69-4.1,3.17-.6,1.89-.37,4.21,1.14,5.49,2,1.7,8.96,2.38,12.9,4.23Z"/>
</svg>