<?xml version="1.0" encoding="UTF-8"?>
<svg id="Layer_1" data-name="Layer 1" xmlns="http://www.w3.org/2000/svg" viewBox="0 0 511.66 129.7">
  <defs>
    <style>
      .cls-1 {
        fill: #10a6dd;
      }
    </style>
  </defs>
  <path d="M429.84,109.01h-7.98s-.28-36.14-.28-36.14c-.06-7.69-6.22-12.41-13.54-12.32-8.08.1-15.61,5.6-15.67,14.06l-.23,34.24-8,.03v-54.14s7.89-.22,7.89-.22l.75,7.92c4.86-6.54,11.39-9.59,19.19-9.49,7.5.1,13.3,3.96,17.27,10.66,7.29-11.35,22.23-14.19,32.62-5.91,3.75,2.98,5.87,8.85,5.88,13.64l.12,38.15-8.35.04-.33-37.07c-.06-7.05-5.8-11.44-12.07-11.85-9.93-.65-17.25,6.1-17.25,15.72v32.7Z"/>
  <path class="cls-1" d="M77.74,82.44l-37.43-.12-11.71,26.69c-3.23.07-6.19.04-10-.15L58.82,18.55l40.04,89.98c-2.98.63-6.43.7-9.9.5l-11.22-26.59ZM75.02,74.58l-16.21-35.67-16.21,35.9,32.41-.23Z"/>
  <path d="M233.67,84.87c-1.57,15.63-15.21,26.13-29.64,25.94s-27.94-11.29-29.09-26.71c-1.29-17.2,12.78-30.84,29.15-30.92,16.99-.08,31.4,13.55,29.58,31.7ZM225.11,81.03c-.67-12.5-10.77-21.09-22.18-20.39-11.23.68-19.98,9.97-19.85,21.71s9.8,21.58,21.7,21.34,21-10.04,20.33-22.65Z"/>
  <path d="M362,64.07c9.76,11.59,8.57,27.19-1.26,37.63-12.69,13.46-33.87,12.29-44.79-1.93-11.06-14.4-6.55-35.83,10.67-43.72,12.12-5.55,26.63-2.37,35.39,8.02ZM360.18,81.83c-.2-12.59-10.2-21.59-21.49-21.23-11.54.37-20.76,9.83-20.57,21.76.2,12.23,9.71,21.54,21.35,21.34s20.91-9.32,20.71-21.88Z"/>
  <path d="M256.62,72.95l-.5,36.11-8.46-.02v-54.31s8.07-.05,8.07-.05l.43,7.49c7.47-8.49,18.59-11.88,29.27-7.43,5.79,2.41,10.38,8.57,10.41,15.08l.19,39.33h-8.47s-.27-35.69-.27-35.69c-.06-8-6.25-12.98-14.05-12.92-7.02.06-16.5,4.02-16.62,12.4Z"/>
  <path d="M154.64,108.75c-2.71.34-5.24.38-8.42.26l-.05-46.6-10.02-.37-.17-6.85,10.17-.44.1-22,8.38.02.05,22.02,9.97.35v6.92s-9.95.18-9.95.18l-.07,46.53Z"/>
  <polygon class="cls-1" points="121.07 108.84 112.48 108.99 112.48 54.71 121.02 54.65 121.07 108.84"/>
  <polygon points="495.16 108.8 486.64 108.99 486.63 54.69 495.12 54.67 495.16 108.8"/>
  <path class="cls-1" d="M114.96,30.34c2.96-.79,6.34,1.16,7.19,3.37,1.32,3.45-.47,6.72-3.28,7.77-3.29,1.22-6.88-.35-7.99-3.43-1.04-2.87.49-6.76,4.09-7.71Z"/>
  <path d="M489,30.39c3.14-.9,6.56,1.24,7.34,3.7,1.01,3.18-.9,6.58-3.38,7.42-3.27,1.1-6.58-.41-7.66-2.75-1.46-3.17-.51-7.15,3.7-8.36Z"/>
</svg>