<?xml version="1.0" encoding="UTF-8"?>
<svg id="Layer_1" data-name="Layer 1" xmlns="http://www.w3.org/2000/svg" viewBox="0 0 261.96 269.29">
  <defs>
    <style>
      .cls-1 {
        fill: #c10c1a;
      }

      .cls-2 {
        fill: #023e84;
      }
    </style>
  </defs>
  <path class="cls-2" d="M71.09,227.36c64.28,40.37,136.51,9.65,170.76-56.93-2.56,42.52-47.56,73.2-82.51,83.15-48.15,13.71-92.21-3.99-123.67-37.83-13.45-14.47-16.15-33.99-6.93-51.32l50-94c4.52-8.5,13.27-11.17,21.31-8.15,6.78,2.55,12.99,12.09,7.65,22.14l-50,94.13c-8.61,16.21-4.73,37.42,13.39,48.79Z"/>
  <path class="cls-2" d="M150.34,185.52l45.33-84.84c7.26-13.59,11.63-31.21,4.92-44.55-5.53-11.01-21.17-21.55-38.21-27.84C107.14,7.92,55.96,41.61,20.1,90.24,24.49,41.51,73.48,18.27,112.55,12.39c46.71-7.04,93.29,13.99,118.54,53.02,7.14,11.03,4.55,26.38-.99,36.87l-51.32,97.35c-4.05,7.67-13.21,9.03-19.75,7.41-6.67-1.66-13.81-11.94-8.69-21.51Z"/>
  <path class="cls-1" d="M115.16,194.65c-6.02,11.33-13.95,15.92-23.62,11.61-6.55-2.92-12.76-12.26-6.8-23.24l61.53-113.47c4.2-7.75,13.21-9.45,18.71-7.9,7.43,2.1,14.06,12.77,8.97,22.35l-58.79,110.65Z"/>
</svg>