<?xml version="1.0" encoding="UTF-8"?>
<svg id="Layer_1" data-name="Layer 1" xmlns="http://www.w3.org/2000/svg" viewBox="0 0 150.21 75.06">
  <defs>
    <style>
      .cls-1 {
        fill: none;
        stroke: #ea0303;
        stroke-miterlimit: 10;
        stroke-width: 9px;
      }
    </style>
  </defs>
  <path d="M45.23,35.67v17.39s-6.55.01-6.55.01l-.09-17.59c-.03-5.44-4.84-9.57-10.09-9.62-5.22-.05-10.19,4.04-10.22,9.47l-.11,17.74h-6.55s0-43.85,0-43.85c1.88,1.46,3.46,1.42,5.16,3.31.83.92,1.37,2.08,1.38,3.36l.06,6.8c6.46-4.8,15.14-4.54,21.15.66,3.58,3.09,5.7,7.46,5.85,12.32Z"/>
  <path d="M64.67,52.92c-8.75-.75-15.3-8.1-15.37-16.64s6.47-16.08,15.15-16.93c9.93-.97,18.39,6.8,18.48,16.63.09,9.79-8.25,17.79-18.26,16.94ZM66.74,46.36c5.81-.36,9.99-5.37,9.59-10.97s-5.25-9.91-10.95-9.5c-5.68.41-9.88,5.37-9.47,10.97s5.11,9.86,10.82,9.5Z"/>
  <path d="M130.73,32.42l-12.5,13.65c-1.5,1.64-2.56,3.43-3.48,5.42-.76,1.84-1.2,3.67-1.3,5.66-.14,2.66.56,5.08,1.46,7.74-6.35-5.75-7.24-15.35-2.29-22.23l-10.25-22.96,2.79.32c2.8-.08,5.18,1.46,6.34,4.05l5.88,13.09,1.44-1.48c1.97-2.02,4.8-2.77,7.62-2.84,1.46-.03,2.73-.15,4.3-.42Z"/>
  <path d="M93.76,36.55c.02,5.37,4.52,9.75,9.68,9.83l3.05.05c-.81,2.17-1.13,4.26-1.15,6.5-9.27.79-18.06-6.36-18.11-15.87l-.13-27.82c.73.48,1.27.84,1.99,1.15,2.56,1.09,4.59,2.8,4.6,5.82l.07,20.35Z"/>
  <path d="M134.26,27.26c-3.14,2.79-6.34,1.85-10.25,2.71,1.24-3.96,4.04-6.96,7.79-8.61l3.73-1.6c1.3-.56,2.27-1.49,2.92-2.71-.1,3.94-1.29,7.63-4.19,10.21Z"/>
  <rect class="cls-1" x="-60.51" y="-121.83" width="370.72" height="506.3"/>
</svg>