<?xml version="1.0" encoding="UTF-8"?>
<svg id="Layer_1" data-name="Layer 1" xmlns="http://www.w3.org/2000/svg" viewBox="0 0 118.98 127.66">
  <defs>
    <style>
      .cls-1 {
        fill: none;
        stroke: #ea0303;
        stroke-miterlimit: 10;
        stroke-width: 9px;
      }

      .cls-2 {
        fill: #0f2d2f;
      }
    </style>
  </defs>
  <path class="cls-2" d="M88.45,114.06l-60.72-34.75c.84,4.83,1.7,8.25,3.06,14.07-3.21.11-6.96.09-10.35-.12L7.25,44.09l10.27-.24,3.6,12.09L46.99,11.43l41.51-.02c4.9,0,8.8,3.5,10.11,7.47,1.44,4.38.26,10.07-4.2,12.65l-55.13,31.9,44.04.34,20.23,34.81c2.75,4.58,2.17,9.98-1.29,13.56s-8.77,4.8-13.8,1.92ZM90.05,22.15c-13.12-1.29-24.63-.5-37.18-.67l-18.73,32.78,55.91-32.11ZM77.41,73.76l-38.05.38,55.99,31.88c-5.55-12.09-11.79-21.31-17.94-32.26Z"/>
  <rect class="cls-1" x="-136.68" y="-313.83" width="370.72" height="506.3"/>
</svg>