<?xml version="1.0" encoding="UTF-8"?>
<svg id="Layer_1" data-name="Layer 1" xmlns="http://www.w3.org/2000/svg" viewBox="0 0 313.63 297.19">
  <defs>
    <style>
      .cls-1 {
        fill: #74efba;
      }
    </style>
  </defs>
  <path class="cls-1" d="M220.82,152.57v5.45h6.9c3.59,0,7.03,1.43,9.57,3.97l28.01,28.07s-.01.03-.03.03h-14.49c-.24,0-.48-.1-.65-.27l-29.32-29.32h-22.26v28.66c0,.51-.41.92-.92.92h-8.71c-.51,0-.92-.41-.92-.92v-67.83c0-.51.41-.92.92-.92h8.71c.51,0,.92.41.92.92v28.61h22.4l2.12-2.11,27.14-27.15c.17-.17.41-.27.65-.27h14.43c0,.07-.03.14-.08.19l-28.03,28c-2.54,2.53-5.97,3.96-9.56,3.96h-6.82,0ZM273.28,130.81c0-.26.11-.5.29-.67l9.76-9.11c.2-.18.52-.04.52.22v67.99c0,.34-.28.61-.61.61h-9.34c-.34,0-.61-.28-.61-.61v-58.44h0ZM167.76,131.46h0s-10.29-10.29-10.29-10.29c-.17-.17-.41-.27-.65-.27h-54.69c-.51,0-.92.41-.92.92v47.01c0,.24.1.48.27.65l4.76,4.76,5.52,5.52h0s10.29,10.29,10.29,10.29c.17.17.41.27.65.27h54.69c.51,0,.92-.41.92-.92v-47.01c0-.24-.1-.48-.27-.65l-10.29-10.29h0ZM124.12,179.77c-6.84-.17-12.34-5.78-12.34-12.66,0-.16,0-.33.01-.49h-.02v-35.17h43.64c6.84.17,12.34,5.78,12.34,12.66,0,.16,0,.32-.01.49h.02v35.17h-43.64ZM106.36,189.22c.19.19.06.52-.22.52l-41.37.03c-.33,0-.64-.13-.87-.36l-10.2-10.2-10.2-10.2c-.23-.23-.36-.54-.36-.87v-47.34c0-.34.28-.61.61-.61h9.33c.34,0,.61.28.61.61h0v45.25s0,.01.01.01.01,0,.01.01c0,.16,0,.32,0,.47,0,6.89,5.5,12.49,12.34,12.66h29.92c.24,0,.48.1.65.27l9.73,9.73h0Z"/>
</svg>