<?xml version="1.0" encoding="UTF-8"?>
<svg id="Layer_1" data-name="Layer 1" xmlns="http://www.w3.org/2000/svg" viewBox="0 0 324.91 257.36">
  <path d="M231.24,225.44H61.51c-16.28-5.37-27.1-16.82-31.82-33.14v-108.89c7.81-8.73,15.83-17.19,25.45-25.32l129.08.31-43.06,42.75-53.99.41c-7.25.06-12.64,6.43-12.64,13.46l-.03,52.11c0,7.95,5.79,14.04,14.1,14.04l128.78-.03c21.36,0,12.71,29.37,13.85,44.3Z"/>
  <path d="M255.96,225.44h-3.23l-.6-110.46c.08-7.22-5.22-12.71-12.42-13.13-21.86-1.28-42.92,1.42-65.42-1.36l41.98-42.02,35.65-.57c1.57-8.72-1.79-16.85,1.99-25.98l41.3,44.29v105.96s-39.26,43.27-39.26,43.27Z"/>
</svg>