<?xml version="1.0" encoding="UTF-8"?>
<svg id="Layer_1" data-name="Layer 1" xmlns="http://www.w3.org/2000/svg" viewBox="0 0 458.99 187.91">
  <defs>
    <style>
      .cls-1 {
        fill: #3d2955;
      }
    </style>
  </defs>
  <path class="cls-1" d="M334.1,164.95c-18.74-18.45-1-59.35-30.46-59.64l-50.86-.5-.08,53.35c0,3.16-2.83,8.14-4.67,9.44-1.84,1.3-7.41-1.86-10.15-4.07l.09-141.92c35.1-.25,91.68-11.36,101.85,25.57,5.28,19.19-.21,38.32-18.55,49.42,28.26,24.32,7.88,33.45,23.55,60.67,1.15,1.99.75,8.49-1.29,9.58s-7.73-.24-9.43-1.91ZM303.05,89.54c12.79-.2,21.88-14.65,23.46-23.41,1.81-10.03-2.59-26.18-15.05-28.63-18.93-3.73-38.12-2.79-58.66-2.46l-.03,55.29,50.28-.8Z"/>
  <path class="cls-1" d="M61.6,105.19l-41.07.57-.07,49.99c0,3.43-3.22,9.49-5.12,11.57-1.94,2.11-10-2.95-9.99-6.72l.24-139.16c20.98-.86,37.97-1.17,56.84-.91,25.25.35,42.02,20.38,39.85,44.88-1.93,21.67-16.59,39.44-40.67,39.77ZM72.67,88.26c10.1-1.81,14.51-17.33,14.87-24.4.37-7.27-2.6-22.75-11.63-25.51-17.76-5.42-35.88-3.51-55.43-2.91l-.02,54.54c17.88.41,33.86,1.57,52.22-1.72Z"/>
  <path class="cls-1" d="M141.85,157.96c19.86-10.95,39.79-28.14,47.39-49.11-16.4,4.95-30.85,8.94-45.66,1.84-12.06-5.78-22.55-19.57-25.02-35.23-4.73-29.95,15.25-55.24,43.56-57.1,28.52-1.87,51.26,18.87,51.4,50.64.22,50.35-43.63,102.34-70.2,100.62-2.4-.16-3.85-10.36-1.46-11.67ZM187.33,39.64c-13.51-9.61-30.39-9.66-41.63-1.22-10.56,7.94-15.22,21.37-12.48,35.79,3.48,18.35,18.18,29.02,37.27,25.92,12.49-2.03,24.1-12.7,26.55-22.2,3.74-14.46,2.17-29.84-9.71-38.3Z"/>
  <path class="cls-1" d="M397.2,162.23c-1.43,3.37-8,6.69-10.32,6.45s-5.35-6.71-4.28-9.26l52.19-123.41-61.47-.73c-2.81-.03-7.76-2.74-9.31-4.36-1.97-2.05,4.53-9.67,8.02-9.69l73.15-.36c2.55-.01,9.36,5.73,8.35,8.11l-56.34,133.25Z"/>
</svg>