<?xml version="1.0" encoding="UTF-8"?>
<svg id="Layer_1" data-name="Layer 1" xmlns="http://www.w3.org/2000/svg" viewBox="0 0 313.63 297.19">
  <defs>
    <style>
      .cls-1 {
        fill: #0068ff;
      }
    </style>
  </defs>
  <path class="cls-1" d="M84.69,240.86l39.73-23.05c.31-.18.5-.51.5-.87V70.09c0-.39-.42-.63-.75-.43l-39.73,23.05c-.31.18-.5.51-.5.87v146.85c0,.39.42.63.75.43Z"/>
  <path class="cls-1" d="M192.97,240.86l39.73-23.05c.31-.18.5-.51.5-.87V70.09c0-.39-.42-.63-.75-.43l-39.73,23.05c-.31.18-.5.51-.5.87v146.85c0,.39.42.63.75.43Z"/>
  <path class="cls-1" d="M179.06,93.58v41.57c0,.36-.19.69-.5.87l-39.73,23.05c-.33.19-.75-.05-.75-.43v-88.55c0-.39.42-.63.75-.43l39.73,23.05c.31.18.5.51.5.87Z"/>
  <path class="cls-1" d="M138.08,175.37v41.58c0,.36.19.69.5.87l39.73,23.05c.33.19.75-.05.75-.43v-88.56c0-.39-.42-.63-.75-.43l-39.73,23.05c-.31.18-.5.51-.5.87Z"/>
</svg>