<?xml version="1.0" encoding="UTF-8"?>
<svg id="Layer_1" data-name="Layer 1" xmlns="http://www.w3.org/2000/svg" viewBox="0 0 313.63 297.19">
  <defs>
    <style>
      .cls-1 {
        fill: #367041;
      }
    </style>
  </defs>
  <path class="cls-1" d="M191.51,108.59h-15.82c-.16-.13-.32-.26-.48-.38-18.41-14.44-46.1-2.53-48.27,20.76-2.21,1.11-4.36,2.34-6.42,3.68v7.88c16.75-12.88,24.97-12.2,44.91-11.8,9.01-.15,19.05,4.18,27.69,6.47v-6.41l-6.71-2.01c-.28-1.65-.71-3.27-1.27-4.85h6.38v-13.33Z"/>
  <path class="cls-1" d="M71.4,163.53c0-17.78,4.4-34.41,12.05-48.64,2.24-4.17,4.76-8.13,7.53-11.86,0,0,0-.01.01-.02,15.08-20.25,37.58-33.42,62.87-34.37.21,0,.41-.01.62-.02.41-.01.81-.02,1.22-.03.37,0,.73,0,1.1,0h.01c22.63,0,43.08,9.38,57.64,24.47l24.17-13c-19.58-23.32-48.96-38.14-81.81-38.14-58.96,0-106.76,47.76-106.76,106.67,0,44.97,27.86,83.44,67.27,99.13-27.29-15.85-45.92-47.61-45.92-84.2Z"/>
  <path class="cls-1" d="M196.85,121.93l66.49,19.54c-1.41-21.39-9.14-41.06-21.33-57.17l-45.16,24.3v13.33Z"/>
  <path class="cls-1" d="M236.32,139.09c.37,3.12.56,6.29.56,9.51,0,16.45-4.97,31.75-13.49,44.46-14.37,21.43-38.82,35.54-66.57,35.54h-.47c-18.21-.25-32.89-15.08-32.89-33.33,0-11.19,5.52-21.1,14-27.15.7-.5,1.43-.98,2.17-1.42,5.49,1.25,11.2,1.9,17.06,1.9,20.11,0,34.71-4.41,46.02-7.12,1.48-.36,2.68-1.43,2.97-2.93l2.53-9.79s0,0,0-.01c.36-1.87-.76-3.7-2.59-4.24l-12.51-3.74-7.03-2.1-10.4-3.11c-3.38-.99-6.73-1.49-10.25-1.49h-18.58c-5.04,0-11.91,3.18-18.48,7.48-4.85,3.17-9.55,6.95-13.22,10.52-.27.26-.53.52-.79.78-.17.17-.34.34-.51.51-.08.08-.15.15-.22.23-.15.15-.29.3-.44.46-.07.07-.14.15-.21.23-.06.06-.11.12-.17.18-.08.08-.15.16-.22.23-1.3,1.41-2.54,2.89-3.7,4.43-7.61,10.05-12.13,22.58-12.13,36.16,0,2.25.12,4.48.37,6.66,3.21,29.06,27.19,51.86,56.78,53.27.15,0,.31.01.46.02.56.02,1.12.04,1.68.04.25,0,.51,0,.76,0,58.96,0,106.76-47.76,106.76-106.67,0-.5,0-1-.01-1.5l-27.24-8h0ZM156.81,141.93c3.69,0,6.67,2.98,6.67,6.67s-2.99,6.67-6.67,6.67-6.67-2.98-6.67-6.67,2.99-6.67,6.67-6.67Z"/>
</svg>