<?xml version="1.0" encoding="UTF-8"?>
<svg id="Layer_1" data-name="Layer 1" xmlns="http://www.w3.org/2000/svg" viewBox="0 0 530.04 121.35">
  <path d="M476.45,112.17c-25.05,2.81-46.24-11.18-54.24-32.82-8.05-21.79.2-46.71,20.76-59.66,17.93-11.29,40.04-10.61,57.25,1.83,16.44,11.88,24.9,32.39,19.13,54.18-4.76,17.98-20.96,34.02-42.9,36.48ZM464.43,29.52c-19.66,3.52-30.4,21.6-27.32,38.46,3.4,18.6,21.07,30.05,39.14,26.98,17.82-3.02,30.21-20.17,27.15-38.34-2.87-17.09-19.97-30.51-38.98-27.11Z"/>
  <path d="M200.04,112.85c-22.12-3.29-38.2-20.15-42.25-39.84-4.37-21.24,5.2-42.19,24.23-53.34,19.87-11.64,43.89-8.71,60.8,6.66,15.78,14.35,20.73,38.61,10.9,58.64-9.4,19.16-30.27,31.35-53.68,27.87ZM198.74,31.18c-18.93,4.96-27.86,24.32-23.28,40.83,5,18.01,23.76,27.48,40.63,23.28,18.31-4.55,28.61-22.8,24.39-39.8-4.55-18.33-22.38-29.38-41.75-24.31Z"/>
  <path d="M86.81,81.8c-7.46-6.02-15.11-7.34-26.3-6.29-.83-4.91-1-10.79-.66-17.38l60.8-.39c7.55-.05,11.21-8.94,10.54-13.94-.99-7.41-7.09-10.55-14.47-10.55l-57,.03.12-17.29,58.44-.02c16.1,0,28.69,11.26,30.34,26.98,1.51,14.35-8.93,29.46-25.05,31.6l-13.42,1.78,38.2,31.77c-9.55.7-18.94.84-28.32.5l-33.24-26.81Z"/>
  <polygon points="8.88 91.56 25.5 91.06 25.47 33.53 9.11 33.09 9.13 16.16 24.79 15.83 26.12 7.9 42.96 8.2 43.07 90.89 59.85 91.62 59.74 108.79 9.18 108.79 8.88 91.56"/>
  <polygon points="334.75 91.77 334.72 109.14 266.74 109.11 266.74 17.38 283.84 16.95 283.98 91.72 334.75 91.77"/>
  <polygon points="410.69 91.79 410.64 109.11 343.33 109.16 343.27 17.29 360.22 16.96 360.36 91.69 410.69 91.79"/>
</svg>