<?xml version="1.0" encoding="UTF-8"?>
<svg id="Layer_1" data-name="Layer 1" xmlns="http://www.w3.org/2000/svg" viewBox="0 0 313.63 297.19">
  <defs>
    <style>
      .cls-1 {
        fill: none;
      }

      .cls-2 {
        fill: #004e59;
      }

      .cls-3 {
        fill: #00898a;
      }
    </style>
  </defs>
  <path class="cls-1" d="M118.32,171.05l-22.7,22.7c-.81.81-1.28,1.9-1.28,3.09s.43,2.28,1.28,3.09l58.17,58.17c1.71,1.71,4.46,1.71,6.17,0l58.17-58.17c1.71-1.71,1.71-4.46,0-6.17l-22.46-22.46c-11.49,7.22-24.69,11.06-38.47,11.06s-27.26-3.89-38.89-11.3h0Z"/>
  <path class="cls-1" d="M184.9,160.22l-25.69-25.69c-1.28-1.28-3.37-1.28-4.65,0l-25.45,25.45c8.55,4.8,18.09,7.31,28.11,7.31s19.23-2.42,27.69-7.08h0Z"/>
  <path class="cls-3" d="M228.78,183.11l-21.32-21.32c-.52.71-6.03,5.37-10.69,8.69-.47.33-.81.62-1.09.76l22.46,22.46c1.71,1.71,1.71,4.46,0,6.17l-58.17,58.17c-1.71,1.71-4.46,1.71-6.17,0l-58.17-58.17c-.81-.81-1.28-1.9-1.28-3.09s.43-2.28,1.28-3.09l22.7-22.7c-4.7-2.99-10.16-7.98-11.73-9.55l-21.61,21.61c-3.66,3.66-5.7,8.5-5.7,13.68s1.99,10.02,5.7,13.68l58.17,58.17c3.8,3.8,8.74,5.65,13.68,5.65s9.93-1.9,13.68-5.65l58.17-58.17c7.55-7.55,7.55-19.85,0-27.4h0l.09.09Z"/>
  <g>
    <path class="cls-1" d="M154.55,134.53l-25.45,25.45c8.55,4.8,18.09,7.31,28.11,7.31s19.23-2.42,27.69-7.08l-25.69-25.69c-1.28-1.28-3.37-1.28-4.65,0Z"/>
    <path class="cls-1" d="M169.84,123.94l27.16,27.16c11.82-11.3,18.33-27.26,17.71-43.78-.57-14.67-6.7-28.45-17.38-38.85-10.64-10.4-24.6-16.19-39.27-16.43-15.53-.24-30.16,5.65-41.22,16.57-11.06,10.92-17.14,25.45-17.14,40.98s6.27,30.44,17.43,41.22l26.83-26.83c7.12-7.12,18.76-7.12,25.88,0h0v-.05Z"/>
    <path class="cls-3" d="M229.68,106.7c-.71-18.52-8.45-35.95-21.89-49.01-13.39-13.11-30.96-20.42-49.53-20.71-19.57-.24-38.04,7.12-52,20.85-13.91,13.77-21.61,32.1-21.61,51.72s7.88,38.37,21.94,52l10.5-10.78c-11.16-10.78-17.43-25.45-17.43-41.22s6.08-30.06,17.14-40.98c11.06-10.92,25.69-16.81,41.22-16.57,14.67.19,28.64,6.03,39.27,16.43,10.64,10.4,16.81,24.17,17.38,38.85.62,16.53-5.94,32.48-17.71,43.78l4.94,4.94c.43.43,5.56,5.84,5.56,5.84,14.82-14.25,23.03-34.33,22.22-55.13h0Z"/>
    <path class="cls-2" d="M196.96,151.05l-27.16-27.16c-7.12-7.12-18.76-7.12-25.88,0l-26.83,26.83-10.5,10.78c1.57,1.52,6.98,6.51,11.73,9.55,11.59,7.41,24.93,11.3,38.89,11.3s26.97-3.8,38.47-11.06c.24-.14.62-.43,1.09-.76,4.65-3.37,10.21-7.98,10.69-8.69,0,0-5.18-5.46-5.56-5.84l-4.94-4.94h0ZM157.21,167.34c-10.02,0-19.57-2.52-28.11-7.31l25.45-25.45c1.28-1.28,3.37-1.28,4.65,0l25.69,25.69c-8.45,4.65-17.86,7.08-27.69,7.08Z"/>
  </g>
</svg>