<svg width="36" height="24" viewBox="0 0 36 24" fill="none" xmlns="http://www.w3.org/2000/svg">
<path d="M22.4726 9.69201L26.4375 17.3307C26.525 17.4993 26.7662 17.4996 26.8541 17.3312L35.7033 0.382729C35.785 0.226372 35.6715 0.0391846 35.4951 0.0391846H29.6857C28.2262 0.0391846 26.8879 0.851192 26.2139 2.14572L22.4729 9.33093C22.414 9.44406 22.4139 9.5788 22.4726 9.69201Z" fill="black"/>
<path d="M1.04675 0.0391846H12.8056C14.1434 0.0391846 15.3708 0.780727 15.9932 1.96485L25.2413 19.5605C25.3607 19.7876 25.3612 20.0587 25.2426 20.2863L24.5427 21.6301C23.8864 22.8902 22.5836 23.6806 21.1628 23.6806C19.7448 23.6806 18.444 22.8932 17.7864 21.6369L7.79553 2.54771C7.59291 2.16058 7.19211 1.91797 6.75516 1.91797H1.04674C0.6144 1.91797 0.263916 1.56749 0.263916 1.13514V0.822013C0.263916 0.389669 0.614401 0.0391846 1.04675 0.0391846Z" fill="black"/>
</svg>
