<?xml version="1.0" encoding="UTF-8"?>
<svg id="Layer_1" data-name="Layer 1" xmlns="http://www.w3.org/2000/svg" viewBox="0 0 111.32 100.19">
  <defs>
    <style>
      .cls-1 {
        fill: none;
        stroke: #ea0303;
        stroke-miterlimit: 10;
        stroke-width: 9px;
      }

      .cls-2 {
        fill: #03353c;
      }
    </style>
  </defs>
  <path class="cls-2" d="M25.48,57.22c1.7,6.76,5.62,12.68,11.15,16.87,11.7,8.88,28.2,8.3,39.22-1.43,5.05-4.47,8.52-10.41,9.77-17.22h-15.78s-.01,1.71-.01,1.71c0,3.98-3.15,7.23-7.21,7.23h-21.69s.04-21.59.04-21.59c0-3.78,3.08-6.51,6.74-6.89h22.11s.03,7.11.03,7.11h30.1c4.36,27.03-16.51,51.01-43.57,51.55-16.07.4-31.17-7.74-39.62-21.4-2.98-4.84-5.01-10.17-5.95-15.92l14.68-.02ZM55.29,59.01c2.71-2.74,6.51-6.69,7.21-10.26.22-4.21-3.14-7.58-7.26-7.57-4.02,0-7.32,3.26-7.23,7.42.55,3.52,4.68,7.92,7.29,10.41Z"/>
  <path class="cls-2" d="M32.95,29.4c-3.59,3.79-6.16,8.36-7.44,13.56h-14.71c1.59-9.67,6.3-18.32,13.31-24.96,8.18-7.74,19.01-12.16,30.26-12.37,16.74-.4,32.42,8.44,40.59,23.09l-17.82.03c-12.23-12.1-32.22-11.9-44.19.65Z"/>
  <path class="cls-2" d="M55.1,50.84c-1.49-.14-2.5-1.43-2.43-2.75.07-1.45,1.29-2.59,2.78-2.53s2.7,1.32,2.6,2.81-1.31,2.62-2.95,2.47Z"/>
  <rect class="cls-1" x="-487.06" y="-45.47" width="851.38" height="202.21"/>
</svg>