<?xml version="1.0" encoding="UTF-8"?>
<svg id="Layer_1" data-name="Layer 1" xmlns="http://www.w3.org/2000/svg" viewBox="0 0 192 183.83">
  <defs>
    <style>
      .cls-1 {
        fill: #177212;
      }
    </style>
  </defs>
  <path class="cls-1" d="M39.96,21.98v6.5c37.42-.02,74.84-.04,112.26-.06v-6.5s-6.45.81-6.45.81c1.11,8.83,1.55,17.07,1.55,24.63,0,14.2-1.56,25.99-3.22,34.79h0c-1.48,7.85-2.85,15.11-5.05,22.12-2.2,7.02-5.18,13.84-9.97,21.03-5.59,8.37-12.04,14.79-18.19,19.67-6.14,4.88-11.97,8.21-16.25,10.38l2.93,5.8,2.88-5.83c-5.84-2.88-14.14-7.72-22.4-15.56-10.25-9.75-16.73-20.59-21.14-31.04-4.4-10.45-6.68-20.46-8.49-28.49-1.84-8.16-3.75-19.75-3.76-33.96,0-7.16.48-14.97,1.71-23.35l-6.43-.94v6.5s0-6.5,0-6.5l-6.43-.94c-1.33,9.04-1.85,17.49-1.85,25.24,0,15.38,2.07,27.97,4.07,36.82,1.82,8.06,4.27,18.98,9.19,30.67,4.92,11.69,12.37,24.22,24.16,35.41,9.48,9.01,18.97,14.52,25.6,17.8l2.91,1.44,2.9-1.47c4.84-2.45,11.45-6.22,18.47-11.8,7.02-5.58,14.46-12.97,20.91-22.63,5.55-8.3,9.09-16.42,11.57-24.38,2.48-7.97,3.93-15.75,5.41-23.59h0c1.77-9.42,3.44-22.05,3.44-37.2,0-8.06-.47-16.85-1.65-26.24l-.71-5.69h-5.74c-37.42.02-74.84.04-112.26.07h-5.61s-.81,5.56-.81,5.56l6.43.94Z"/>
</svg>