<?xml version="1.0" encoding="UTF-8"?>
<svg id="Layer_1" data-name="Layer 1" xmlns="http://www.w3.org/2000/svg" viewBox="0 0 148.09 137.67">
  <defs>
    <style>
      .cls-1 {
        fill: none;
        stroke: #ea0303;
        stroke-miterlimit: 10;
        stroke-width: 9px;
      }
    </style>
  </defs>
  <g>
    <path d="M82.61,3.62c31.59,4.52,55.73,29.69,57.52,61.46,1.82,32.28-20.29,60.85-51.49,67.52-31.58,6.75-63.76-10.55-75.11-41.77,7.72,1.92,15.15.67,21.42-4.19,8.74,19.49,29.19,29.8,49.7,25.25,19.54-4.34,33.97-22.06,34.05-42.37s-14.1-38.15-33.81-42.7c-20-4.61-40.46,5.17-49.52,24.36-6.19-4.75-13.6-6.76-21.79-4.34C21.85,22.92,42.86,7.42,67.23,3.62h15.38Z"/>
    <path d="M19.08,56.18c7.52-.85,13.41,4.64,14.04,11.29.68,7.08-4.26,13.2-11.41,13.93-6.62.67-12.87-4.12-13.75-10.82s3.56-13.55,11.12-14.4Z"/>
  </g>
  <rect class="cls-1" x="-51.47" y="-28.34" width="851.38" height="202.21"/>
</svg>