<?xml version="1.0" encoding="UTF-8"?>
<svg id="Layer_1" data-name="Layer 1" xmlns="http://www.w3.org/2000/svg" viewBox="0 0 313.63 297.19">
  <defs>
    <style>
      .cls-1 {
        fill: #4dc270;
        fill-rule: evenodd;
      }
    </style>
  </defs>
  <path class="cls-1" d="M109.31,163.74c8.4,0,15.23-6.79,15.23-15.14s-6.83-15.14-15.23-15.14-15.23,6.79-15.23,15.14,6.83,15.14,15.23,15.14ZM204.32,67.94c44.76,0,81.17,36.18,81.17,80.66s-36.41,80.66-81.17,80.66c-33.94,0-63.03-20.82-75.13-50.27-5.73,3.71-12.54,5.89-19.88,5.89-20.13,0-36.51-16.27-36.51-36.27s16.38-36.28,36.51-36.28c9.92,0,19.56,4.13,26.4,11.27,8.29,8.65,9.93,18.73,11.3,30.08,3.85,31.92,29.66,51.68,57.31,51.68,31.49,0,57.1-25.46,57.1-56.75s-25.62-56.75-57.1-56.75c-3.62,0-7.2.38-10.71,1.04-4.5-7.52-10.38-14.42-16.98-20.14,1.06-.43,1.67-.57,2.46-.83,8.12-2.65,16.61-3.99,25.22-3.99ZM204.32,133.45c-8.4,0-15.24,6.79-15.24,15.14s6.84,15.14,15.24,15.14,15.23-6.79,15.23-15.14-6.83-15.14-15.23-15.14ZM109.31,229.25c-44.76,0-81.17-36.18-81.17-80.66s36.41-80.66,81.17-80.66c33.94,0,63.03,20.83,75.13,50.27,5.73-3.71,12.54-5.89,19.88-5.89,20.13,0,36.5,16.27,36.5,36.28s-16.38,36.27-36.5,36.27c-9.92,0-19.56-4.13-26.4-11.26-8.29-8.65-10.02-18.72-11.3-30.08-3.48-31.01-29.66-51.68-57.31-51.68-31.49,0-57.1,25.45-57.1,56.75s25.62,56.75,57.1,56.75c3.62,0,7.2-.37,10.71-1.04,4.5,7.52,10.38,14.42,16.98,20.14-1.06.43-1.67.57-2.46.83-8.12,2.64-16.61,3.98-25.22,3.98Z"/>
</svg>