<?xml version="1.0" encoding="UTF-8"?>
<svg id="Layer_1" data-name="Layer 1" xmlns="http://www.w3.org/2000/svg" viewBox="0 0 313.63 297.19">
  <g>
    <path d="M142.02,126.71v58.25c0,8.14,6.6,14.74,14.74,14.74s14.74-6.6,14.74-14.74v-58.25c0-8.14-6.6-14.74-14.74-14.74s-14.74,6.6-14.74,14.74Z"/>
    <path d="M228.19,106.88c-8.4,2.69-13.03,11.68-10.32,20.08,10.94,34.1,5.25,61.31-16.87,80.86-12.45,11-28.65,16.47-45.67,15.38-18.95-1.21-37.21-10.36-50.13-25.1-17.38-19.83-19.65-43.53-6.97-72.44,3.54-8.08-.14-17.49-8.2-21.04-8.08-3.55-17.5.14-21.04,8.2-22.32,50.88-5.69,85.9,12.2,106.31,18.46,21.08,44.76,34.18,72.12,35.92,2.12.14,4.22.21,6.33.21,23.24,0,45.24-8.24,62.53-23.52,22.35-19.75,45.03-55.65,26.14-114.56-2.69-8.4-11.68-13.01-20.08-10.32l-.02.02Z"/>
  </g>
  <g>
    <path d="M255.36,51.11v-.52c0-.15,0-.3-.02-.44-.02-.16-.06-.32-.1-.47-.04-.15-.06-.31-.11-.44-.05-.15-.12-.3-.19-.43-.06-.15-.12-.28-.2-.42-.07-.14-.17-.26-.26-.38-.09-.14-.19-.26-.28-.38-.1-.11-.21-.21-.31-.32-.12-.12-.25-.25-.38-.35-.11-.09-.23-.16-.35-.23-.16-.1-.31-.21-.48-.28-.04-.02-.07-.05-.11-.06-.1-.05-.21-.07-.31-.11-.11-.05-.22-.11-.35-.15-1.68-.51-41.3-12.2-69.01,6.01-14.07,9.24-22.41,24.37-24.79,45v.17c-.01.17,0,.35,0,.52,0,.16,0,.31.02.46.02.16.05.31.09.47.04.16.06.31.12.47.05.15.11.3.17.43.06.14.12.28.2.42.09.15.17.28.27.42.09.12.16.23.26.35.11.14.23.25.36.37.11.1.21.21.32.3.12.1.27.2.41.28s.27.17.42.25c.05.02.1.07.16.1,8.29,3.92,16.56,5.9,24.78,5.9,6.03,0,12.01-1.06,17.93-3.19,32.08-11.52,50.56-50.27,51.32-51.93.05-.11.07-.23.12-.35.04-.11.1-.21.14-.32.01-.04.01-.09.02-.12.05-.19.07-.36.11-.54.02-.14.05-.28.06-.42l-.05-.02ZM200.26,95.55c-9.44,3.39-19.17,3.39-29,.1,7.55-7.38,16.01-13.99,28.86-17.82,1.55-.47,2.76-1.8,2.8-3.42.05-2.68-2.43-4.38-4.74-3.69-12.11,3.59-20.81,9.47-28.07,15.95,3.28-11.69,9.34-20.54,18.13-26.33,18.11-11.91,43.54-8.58,54.91-6.25-6.01,10.56-21.23,33.68-42.89,41.47h-.01Z"/>
    <path d="M58.23,51.53c.02.19.06.36.11.54,0,.04,0,.09.02.12.04.11.09.21.14.32s.07.23.12.35c.76,1.64,19.24,40.39,51.32,51.93,5.91,2.12,11.9,3.19,17.93,3.19,8.2,0,16.49-1.96,24.78-5.9.06-.02.1-.06.16-.1.15-.07.28-.16.42-.25.14-.09.27-.19.41-.28.11-.1.22-.2.32-.3.12-.12.25-.23.36-.37.09-.11.17-.23.26-.35.1-.14.2-.27.27-.42.07-.14.14-.27.2-.42.06-.15.12-.28.17-.43s.09-.31.12-.47c.04-.16.07-.31.09-.47.01-.15.02-.31.02-.46v-.69c-2.38-20.61-10.72-35.76-24.79-45-27.72-18.21-67.33-6.51-69.01-6.01-.12.04-.23.1-.35.15-.1.04-.21.06-.31.11-.04.02-.07.05-.11.06-.17.09-.33.19-.48.28-.12.07-.23.15-.35.23-.14.11-.26.23-.38.35-.11.1-.22.2-.31.32-.11.12-.2.26-.28.38s-.19.25-.26.38-.14.28-.2.42c-.06.15-.14.28-.19.43-.05.15-.07.3-.11.44-.04.16-.07.31-.1.47-.02.15-.02.3-.02.44,0,.17-.01.35,0,.52,0,.14.04.28.06.42l-.05.02ZM70.38,54.07c11.36-2.34,36.81-5.66,54.91,6.25,8.79,5.8,14.86,14.64,18.13,26.33-7.28-6.48-15.96-12.36-28.07-15.95-2.31-.68-4.8,1.02-4.74,3.69.04,1.62,1.25,2.96,2.8,3.42,12.84,3.84,21.31,10.45,28.86,17.82-9.83,3.28-19.56,3.29-29-.1-21.67-7.78-36.88-30.91-42.89-41.47h-.01Z"/>
  </g>
</svg>