<?xml version="1.0" encoding="UTF-8"?>
<svg id="Layer_1" data-name="Layer 1" xmlns="http://www.w3.org/2000/svg" viewBox="0 0 130.98 98.39">
  <defs>
    <style>
      .cls-1 {
        fill: none;
        stroke: #ea0303;
        stroke-miterlimit: 10;
        stroke-width: 9px;
      }

      .cls-2 {
        fill: #79b729;
      }

      .cls-3 {
        fill: #9b9b9b;
      }
    </style>
  </defs>
  <path class="cls-2" d="M89.09,3c1.62.86,2.6,2.09,2.16,4.27-3.32,16.52-5.61,18.06-6.94,36.37-.99,13.64-4.27,35.61-23.27,32.62-2.12-.33-4.24-1.02-6.62-1.2-1.31,3.89-4.02,21.9-9.04,20.65-4.45-1.11.29-15.18,1.37-18.75,3.66-12.21,8.42-23.77,15.46-34.43,5.55-8.4,18.73-18.35,13.99-21.6s-21.27,18.9-24.23,23.64c-3.93,6.31-5.92,12.99-9.5,19.93-5.69-17.47-3.79-32.84,11.17-44.2,9.73-7.38,19.84-13.37,31.1-17.3h4.35Z"/>
  <path class="cls-3" d="M3.6,49.85v-2.88l20.81-17.44c1.8-1.51,4.34-1.17,5.52.21,1.43,1.68,1.43,4.11-.35,5.6l-15.81,13.22,16.2,13.81c1.69,1.44,1.02,4.22-.18,5.27-1.4,1.23-3.63,1.48-5.2.18L5.27,51.8c-.75-.62-.99-1.6-1.68-1.95Z"/>
  <path class="cls-3" d="M103.78,66.88c-1.99,1.65-4.08,1.62-5.37.61-1.58-1.24-2.32-4.19-.68-5.56l16.26-13.69-16.02-13.63c-1.6-1.36-1.26-4.01-.19-5.35s3.71-1.77,5.31-.45l19.35,15.96c2.17,1.79,2.23,4.77.09,6.55l-18.73,15.57Z"/>
  <rect class="cls-1" x="-256.25" y="-27.8" width="851.38" height="202.21"/>
</svg>