<?xml version="1.0" encoding="UTF-8"?>
<svg id="Layer_1" data-name="Layer 1" xmlns="http://www.w3.org/2000/svg" viewBox="0 0 596.43 661.79">
  <defs>
    <style>
      .cls-1 {
        fill: #25305f;
      }

      .cls-2 {
        fill: #2f4b83;
      }

      .cls-3 {
        fill: #37639e;
      }
    </style>
  </defs>
  <path class="cls-2" d="M529.62,389.56c-35.37,52.66-104.77,60.46-158.58,16.86-43.15-34.97-100.29-35.02-143.42-.11-52.02,42.1-118.57,36.96-155.61-12.36-25.84-34.39-26.77-82.45-1.82-117.97,35.98-51.23,104.37-57.89,157.47-14.91,43.08,34.87,100.16,34.85,143.26,0,52.09-42.13,119.08-36.87,155.92,12.77,25.08,33.81,26.4,80.57,2.8,115.72Z"/>
  <path class="cls-1" d="M274.21,428.89c54.33-14.51,106.45,18.51,118.88,70.88,11.73,49.43-18.24,101.36-69.73,114.55-49.96,12.79-102.79-15.85-116.96-67.59-13.41-48.93,13.46-103.32,67.81-117.84Z"/>
  <path class="cls-3" d="M273.5,53.91c53.91-14.63,105.06,16.94,118.7,67.18,13.85,51.02-16.11,103.78-68.2,117.78-48.9,13.14-101.36-14.71-116.57-64.01-15.51-50.26,11.27-106.08,66.08-120.95Z"/>
</svg>