<svg id="Layer_1" data-name="Layer 1" xmlns="http://www.w3.org/2000/svg" viewBox="0 0 214.86 66.18"><defs><style>.cls-1{fill:#2b2522;}.cls-2{fill:#61a4d7;}</style></defs><path class="cls-1" d="M16.58,27.31H32.42v3.87H20.84V37h11v3.87h-11v6.48H33v3.85H16.58Z" transform="translate(-16.58 -14.78)"/><path class="cls-1" d="M37.22,27.31h5.64l11.6,17.78,0,.06h0l0-.06V27.31h4.26V51.24h-5.4L41.55,32.89h-.07V51.24H37.22Z" transform="translate(-16.58 -14.78)"/><path class="cls-1" d="M85.36,49.48a20.78,20.78,0,0,1-9.9,2.37c-7.37,0-12.63-5-12.63-12.47,0-7.67,5.26-12.67,12.63-12.67,3.65,0,6.92.78,9.43,3l-3.15,3.18a9.06,9.06,0,0,0-6.25-2.33c-4.93,0-8.21,3.78-8.21,8.55,0,5.1,3.28,8.88,8.21,8.88a11.5,11.5,0,0,0,5.62-1.25V41.1H76.2V37.25h9.16Z" transform="translate(-16.58 -14.78)"/><path class="cls-1" d="M90.29,27.31h4.25V51.24H90.29Z" transform="translate(-16.58 -14.78)"/><path class="cls-1" d="M99.77,27.31h5.65L117,45.09l.07.06H117l.07-.06V27.31h4.26V51.24h-5.41L104.1,32.89H104V51.24H99.77Z" transform="translate(-16.58 -14.78)"/><path class="cls-1" d="M126.67,27.31h15.84v3.87h-11.6V37h11v3.87h-11v6.48h12.2v3.85H126.67Z" transform="translate(-16.58 -14.78)"/><path class="cls-1" d="M147.31,27.31h15.84v3.87h-11.6V37h11v3.87h-11v6.48h12.2v3.85H147.31Z" transform="translate(-16.58 -14.78)"/><path class="cls-1" d="M167.93,27.31h8.32c4.6,0,8.91,1.5,8.91,6.87a6.13,6.13,0,0,1-5.54,6.48L186,51.24h-5.12L175.3,41.1h-3.1V51.24h-4.27Zm7.58,10.14c2.39,0,5.2-.2,5.2-3.31,0-2.84-2.65-3.17-4.83-3.17H172.2v6.48Z" transform="translate(-16.58 -14.78)"/><path class="cls-1" d="M189.22,27.31h15.84v3.87h-11.6V37h11v3.87h-11v6.48h12.2v3.85H189.22Z" transform="translate(-16.58 -14.78)"/><path class="cls-1" d="M209.86,27.31h9.42c6.29,0,12.15,3.87,12.15,12s-6.91,12-12.66,12h-8.91Zm7.42,20.08c5.34,0,9.7-2.3,9.7-8.11s-3.78-8.1-9-8.1h-3.89V47.39Z" transform="translate(-16.58 -14.78)"/><path class="cls-1" d="M159.76,56.44h3.69l10.3,23.92h-4.87l-2.23-5.47H156.28l-2.16,5.47h-4.77Zm5.41,14.81-3.69-9.75-3.74,9.75Z" transform="translate(-16.58 -14.78)"/><path class="cls-1" d="M176.41,56.44h8.31c4.59,0,8.93,1.49,8.93,6.85a6.14,6.14,0,0,1-5.55,6.49l6.36,10.58h-5.15l-5.54-10.14h-3.11V80.36h-4.25ZM184,66.58c2.42,0,5.2-.21,5.2-3.31,0-2.86-2.62-3.18-4.82-3.18h-3.69v6.49Z" transform="translate(-16.58 -14.78)"/><path class="cls-1" d="M202,60.3h-7.33V56.44h18.92V60.3h-7.32V80.36H202Z" transform="translate(-16.58 -14.78)"/><path class="cls-1" d="M228.21,61.57a5.14,5.14,0,0,0-4.2-1.9c-2,0-3.92.88-3.92,3.08,0,4.81,11.34,2.07,11.34,10.58,0,5.13-4,7.63-8.74,7.63a9.9,9.9,0,0,1-7.84-3.24l3.22-3.11a5.6,5.6,0,0,0,4.71,2.5c2,0,4.2-1.09,4.2-3.27,0-5.24-11.34-2.22-11.34-10.78,0-4.94,4.38-7.24,8.81-7.24a9.86,9.86,0,0,1,6.87,2.48Z" transform="translate(-16.58 -14.78)"/><rect class="cls-2" width="214.86" height="4.64"/></svg>