<?xml version="1.0" encoding="UTF-8"?>
<svg id="Layer_1" data-name="Layer 1" xmlns="http://www.w3.org/2000/svg" viewBox="0 0 313.63 297.19">
  <defs>
    <style>
      .cls-1 {
        fill-rule: evenodd;
      }
    </style>
  </defs>
  <path class="cls-1" d="M160.31,144.69s63.83-36.83,82.87-47.82c2.37-1.37,5.3.34,5.3,3.05v101.67c0,1.29-.65,2.41-1.76,3.05-11.29,6.52-73.58,42.47-88.16,50.87-1.69.97-3.84.39-4.81-1.29-5.93-10.24-24.94-43.09-28.41-49.07h-56.65c-1.94,0-3.54-1.58-3.54-3.54v-101.72c0-1.29.65-2.41,1.76-3.05,10.97-6.34,69.99-40.37,88.11-50.82,2.35-1.36,5.3.34,5.3,3.05v95.62ZM121.26,198.11l-49.06-85.02v85.02h49.06ZM153.26,239.3V55.21l-79.78,46.02,79.78,138.08v-.02ZM241.42,198.09v-92.08l-81.09,46.79v45.27h81.09v.02ZM160.33,246.36l71.46-41.21h-71.46v41.21Z"/>
</svg>