<?xml version="1.0" encoding="UTF-8"?>
<svg id="Layer_1" data-name="Layer 1" xmlns="http://www.w3.org/2000/svg" viewBox="0 0 441.15 418.57">
  <defs>
    <style>
      .cls-1 {
        fill: #fff;
      }
    </style>
  </defs>
  <path d="M51.54,45.7h339.83c12.47,0,22.6,10.12,22.6,22.6v294.88c0,12.47-10.12,22.6-22.6,22.6H29.58c-.35,0-.63-.28-.63-.63V68.3c0-12.47,10.12-22.6,22.6-22.6Z"/>
  <path class="cls-1" d="M320.02,268.48c.06,8.97,3.96,22.96,9.89,25.39,7.89,3.23,21.98,2.26,34.31.81,3.12.36,6.77,25.08.32,28.97-9.21,5.57-28.02,6.39-40.71,6.8-28.3.92-54.45-18.36-54.91-48.54l-1.61-104.28c-6.85-.88-20.72-.48-20.64-5.02l.35-20.18c.08-4.53,13.34-4.16,21.35-5.35l18.21-58.06c7.28-2.54,24.16-2.7,32.56-1.37l1.17,58.91,48.14,1.21,1.06,29.29-50.08,1.48.6,89.93Z"/>
  <polygon class="cls-1" points="122.13 328.67 68.31 328.83 68.13 143.61 121.86 142.84 122.13 328.67"/>
  <polygon class="cls-1" points="218.73 327.92 167.21 329.24 166.95 143.27 218.59 143.45 218.73 327.92"/>
  <path class="cls-1" d="M85.3,77.75c14.99-4.83,31.02,1.51,35.78,14.66,5.09,14.08.26,31.46-14.65,37.28-13.39,5.23-31.33-.57-36.82-14.58-5.38-13.74-.79-32.05,15.69-37.37Z"/>
  <path class="cls-1" d="M181.96,78.09c14.93-5.42,31.74,1.6,36.34,13.7,5.59,14.7.44,31.4-12.3,36.95-13.83,6.03-31.35,1.68-37.16-9.71-7.82-15.34-4.13-34.68,13.12-40.94Z"/>
</svg>