<?xml version="1.0" encoding="UTF-8"?>
<svg id="Layer_1" data-name="Layer 1" xmlns="http://www.w3.org/2000/svg" viewBox="0 0 313.63 297.19">
  <defs>
    <style>
      .cls-1 {
        fill: #30a2d6;
      }

      .cls-2 {
        fill: #1c67a1;
      }
    </style>
  </defs>
  <path class="cls-2" d="M236.44,74.37c-8.33-8.55-18.25-15.81-29.58-21.35-1.06-.53-2.17-1.02-3.23-1.51l-45.62,93.49,47.79-34.46c39.33,38,30.87,114.35-59.92,144.2h0c44.33,5.93,89.42-16.56,110.1-58.99,20.33-41.63,11.07-90.04-19.53-121.39Z"/>
  <path class="cls-1" d="M77.18,222.82c8.33,8.55,18.25,15.81,29.58,21.35,1.06.53,2.17,1.02,3.23,1.51l45.62-93.49-47.79,34.46c-39.33-38-30.87-114.35,59.92-144.2h0c-44.33-5.93-89.42,16.56-110.1,58.99-20.33,41.63-11.07,90.04,19.53,121.39Z"/>
</svg>