<?xml version="1.0" encoding="UTF-8"?>
<svg id="Layer_1" data-name="Layer 1" xmlns="http://www.w3.org/2000/svg" viewBox="0 0 402.38 386.94">
  <path d="M361.53,337.97c-25.78,8.75-52.63,5.52-77.75,3.61-65.72-4.99-70.52-94.5-85.52-125.09-4.84-9.86-28.49-16.86-16.03-37.43C127.56,136.47,108.36,85.12,49.83,40.48c26.99-8.16,53.12-5.43,78.46-3.38,65.63,5.3,70.24,94.19,85.31,124.94,4.95,10.09,28.53,16.91,15.98,37.61,28.45,21.56,48.29,48.34,70.77,75.34,16.75,23.33,35.5,41.69,61.17,62.98Z"/>
  <path d="M298.37,239.72c16.82-34.55,17.02-71.85-3.22-105.42-16.63-27.57-47.74-47.68-84.04-49.66-6.9-18.38-16.57-32.59-29.18-47.44,62.89-9.95,122.27,19.57,154.16,69.89,33.43,52.75,32.13,119.92-5.12,172.12l-32.61-39.5Z"/>
  <path d="M200.38,293.87c7.96,18.01,15.6,32.53,28.86,47.39-60.64,10.47-120.48-18.74-152.6-68.37-34.35-53.07-33.15-121.17,4.1-172.97l32.49,39.69c-16.01,33.05-16.89,69.84,2.68,103.35,16.05,27.48,46.66,48.91,84.47,50.91Z"/>
</svg>