<?xml version="1.0" encoding="UTF-8"?>
<svg id="Layer_1" data-name="Layer 1" xmlns="http://www.w3.org/2000/svg" viewBox="0 0 384.51 425.87">
  <defs>
    <style>
      .cls-1 {
        fill: #53c07d;
      }
    </style>
  </defs>
  <path class="cls-1" d="M127.83,315.32l-47.31,82.55c-1.27,2.22-3.63,3.58-6.18,3.58H6.64l48.66-82.62c1.28-2.17,3.62-3.51,6.14-3.51h66.4Z"/>
  <path class="cls-1" d="M159.49,277.87h125.39c2.88,0,5.54,1.53,6.98,4.03l69.16,119.55-127.14-1.64c-2.85-.04-5.48-1.58-6.89-4.06l-67.5-117.88Z"/>
  <path class="cls-1" d="M159.49,270.38L305.53,16.43l63.84,111.23c1.36,2.37,1.36,5.29-.02,7.66l-77.23,133.22c-1.39,2.4-3.98,3.86-6.75,3.82l-125.88-1.97Z"/>
</svg>