<?xml version="1.0" encoding="UTF-8"?>
<svg id="Layer_1" data-name="Layer 1" xmlns="http://www.w3.org/2000/svg" viewBox="0 0 463.66 424.85">
  <defs>
    <style>
      .cls-1 {
        fill: #f26824;
      }
    </style>
  </defs>
  <path class="cls-1" d="M220.73,334.52c-1.32,5.59-5.8,7.3-8.56,11.57,5.79,6.63,12.13,12.54,19.16,18.7l19.49-19.68-53.26-53.32c7.15-8.35,14.3-15.56,22.83-23.31l78.14,76.3-67.05,67.09-67.24-66.79,32.66-33.55,23.84,23.01Z"/>
  <path class="cls-1" d="M231.81,60.31c-7.64,6.39-13.38,12.73-19.59,19.41l54.03,54.5-22.65,22.14-78.6-77.9L231.5,12.99l66.39,66.12-31.68,32.62c-8.05-7.05-15.02-14.01-21.83-22.26-1.48-2.78,4.31-6.88,6.63-9.19-5.21-7.24-11.8-12.14-19.19-19.98Z"/>
  <path class="cls-1" d="M340.29,169.2c-6.18-6.96-12.57-12.88-20.11-19.58l-54.29,53.76-23.97-24.47,79.18-78.8,67.82,67.64-34.79,34.61-23.15-23.02c2.37-4.12,5.26-5.75,9.32-10.13Z"/>
  <path class="cls-1" d="M124.67,170.52l54.02,54.43-24.49,23.63-78.46-79.58,68.25-67.23,34.13,34.71-22.64,23.23c-4.62-2.33-6.54-6-10.51-9.14l-20.3,19.94Z"/>
  <path class="cls-1" d="M309.91,267.98c3.68,2.94,6.83,6.08,9.39,11.13l21.04-21.1-54.21-54.54,24.34-24.1,78.61,79.73-68,67.3-34.48-34.77,23.31-23.65Z"/>
  <path class="cls-1" d="M197.58,220.52c9.64,7.38,15.94,15.06,24.56,23.83l-79.21,79.05-67.63-67.41,34.48-34.89,23.88,23.35c-3.07,3.85-7.06,5.75-9.73,10.42l20.11,18.95,53.54-53.29Z"/>
  <polygon class="cls-1" points="243.59 246.57 198.07 201.91 220.62 180.17 264.9 225.15 243.59 246.57"/>
  <path class="cls-1" d="M264.53,290.34c-7.97-6.56-13.99-14.17-21.77-22.53l44.83-44.6,21.47,21.85-44.53,45.28Z"/>
  <path class="cls-1" d="M175.74,201.08c-7.82-6.78-13.89-13.92-21.65-22.35l44.65-44.49,21.95,21.69-44.95,45.15Z"/>
  <path class="cls-1" d="M52.73,235.75c-9.11-7.13-14.86-14.53-22.79-22.41,6.96-8.26,14.28-15.32,22.43-23.12l22.95,22.7-22.58,22.83Z"/>
  <path class="cls-1" d="M411.07,235.49c-8.69-6.69-14.41-14.28-22.8-22.23,6.52-8.88,14.39-15.52,22.22-23.4l23.23,23.14-22.65,22.49Z"/>
</svg>