<?xml version="1.0" encoding="UTF-8"?>
<svg id="Layer_1" data-name="Layer 1" xmlns="http://www.w3.org/2000/svg" viewBox="0 0 524.94 633.19">
  <defs>
    <style>
      .cls-1 {
        fill: #db332f;
      }
    </style>
  </defs>
  <path class="cls-1" d="M365.64,42.98c11.72,0,22.36,3.84,33.61,7.99l99.53,36.79-82.76,5.73c-14.45,2.39-26.53,10.03-31.62,24.04l-34.63,195.6-250.72-91.64C28.07,190.47,27.03,126.02,38.77,59.52l200.96,73.39c26.78-43.95,55.43-84.1,108.83-89.92h17.08Z"/>
  <path class="cls-1" d="M323.13,464.54l-140.95-51.91c-37.19-13.7-59.87-47.5-63.27-86.19-2.21-25.13-.33-49.19,4.48-74.76l222.81,81.25-23.07,131.6Z"/>
  <path class="cls-1" d="M296.53,615.63c-52.01-14.13-87.35-41.74-93.1-96.65-2.73-25.36-.38-50.22,4.51-75.14l111.64,40.73-23.05,131.07Z"/>
</svg>