<svg width="118" height="27" viewBox="0 0 118 27" fill="none" xmlns="http://www.w3.org/2000/svg">
<g clip-path="url(#clip0_1063_105)">
<path d="M118 22.3659V25.9489H109.054V0.642456H113.462V22.3659H118Z" fill="#1A024D"/>
<path d="M101.452 18.8501H103.273L102.478 8.79312L101.452 18.8501ZM105.096 0.642456L108.475 25.883H104.036L103.704 22.3659H101.086L100.754 25.883H97.0767L100.357 0.642456H105.095H105.096Z" fill="#1A024D"/>
<path d="M98.4281 0.642456V4.12598H94.9486V25.9489H90.5428V4.12598H87.0972V0.642456H98.4281Z" fill="#1A024D"/>
<path d="M86.3908 0.642456V25.9489H83.1429L79.864 12.9672V25.9489H76.2192V0.642456H79.9303L82.7461 11.8494V0.642456H86.3908Z" fill="#1A024D"/>
<path d="M75.4713 22.3995V25.883H66.5254V0.642456H75.4373V4.12598H70.9312V11.1267H74.6748V14.6761H70.9312V22.3995H75.4713Z" fill="#1A024D"/>
<path d="M65.2594 0.642456V25.9489H61.0173V14.1172L59.1293 25.9489H56.4123L54.424 14.1172V25.9489H50.7793V0.642456H55.8828L57.9035 15.5305L60.2886 0.642456H65.2594Z" fill="#1A024D"/>
<path d="M49.6532 0.642456V20.9862C49.6532 24.5034 47.4658 26.2781 44.2193 26.2781C40.9728 26.2781 38.8193 24.5034 38.8193 21.0198V0.642456H43.1927V21.4456C43.1927 22.398 43.6898 22.8911 44.4524 22.8911C45.1486 22.8911 45.4465 22.398 45.4465 21.4119V0.642456H49.6547H49.6532Z" fill="#1A024D"/>
<path d="M37.6814 0.642456V25.9489H34.4334L31.153 12.9672V25.9489H27.5083V0.642456H31.2194L34.0367 11.8494V0.642456H37.6814Z" fill="#1A024D"/>
<path d="M22.1062 21.5452V4.94831C22.1062 3.96221 21.5427 3.56865 21.0132 3.56865C20.3509 3.56865 19.8863 3.96367 19.8863 4.94831V21.5115C19.8863 22.464 20.317 22.8912 21.0457 22.8912C21.7079 22.8912 22.1062 22.4962 22.1062 21.5437V21.5452ZM26.4796 5.80273V20.6907C26.4796 24.8312 23.9942 26.2781 21.0457 26.2781C18.0971 26.2781 15.479 24.7332 15.479 20.6907V5.80273C15.4805 1.69448 18.0647 0.215332 21.0457 0.215332C24.0266 0.215332 26.4796 1.66083 26.4796 5.80273Z" fill="#1A024D"/>
<path d="M14.4786 0.642456V25.9489H10.238V14.1172L8.34997 25.9489H5.63302L3.64472 14.1172V25.9489H0V0.642456H5.10203L7.12425 15.5305L9.50933 0.642456H14.4786Z" fill="#1A024D"/>
</g>
<defs>
<clipPath id="clip0_1063_105">
<rect width="118" height="26.0613" fill="white" transform="translate(0 0.215332)"/>
</clipPath>
</defs>
</svg>
