<?xml version="1.0" encoding="UTF-8"?>
<svg id="Layer_1" data-name="Layer 1" xmlns="http://www.w3.org/2000/svg" viewBox="0 0 73.28 50.43">
  <defs>
    <style>
      .cls-1 {
        fill: none;
        stroke: #ea0303;
        stroke-miterlimit: 10;
        stroke-width: 9px;
      }

      .cls-2 {
        fill: #0f253a;
      }
    </style>
  </defs>
  <path class="cls-2" d="M50.33,47.76c-1.05.3-1.95.34-2.89,0-4.61-1.13-9.22-5.02-12.51-8.34-2.85-2.87-5.28-6-7-9.63-1.19-2.51-1.19-4.96-.03-7.48,2.01-4.35,5.29-8.16,8.82-11.42,2.62-2.42,6.7-5.52,10.19-6.45,1.3-.43,2.53-.46,3.81,0,1.89.53,3.54,1.34,5.19,2.46,4.96,3.35,9.22,7.61,12.42,12.68,1.28,2.04,2.36,4.16,2.37,6.52.05,6.84-13.18,20.24-20.39,21.66ZM49.86,42.46l15.52-15.52c.42-.68.49-1.27-.07-1.82l-15.51-15.51c-.57-.57-1.35-.57-1.92,0l-15.51,15.51c-.3.3-.42,1.33-.11,1.63l15.79,15.8c.53.53,1.21.5,1.8-.09Z"/>
  <path class="cls-2" d="M8.28,45.43c-.54.35-1.22.15-1.56-.2l-2.87-2.96c-.38-.39,0-1.13.38-1.51l13.99-14.01c.49-.49.06-1.47-.37-1.9L3.86,10.86c-.38-.38-.05-1.14.25-1.44l2.66-2.67c.26-.26,1.01-.4,1.35-.19,2.55,1.58,4.68,3.41,6.84,5.48,3.22,3.11,9.32,10.27,8.45,14.99-1.2,6.53-9.52,14.81-15.12,18.4Z"/>
  <rect class="cls-1" x="33.63" y="-112.17" width="370.72" height="506.3"/>
</svg>