<?xml version="1.0" encoding="UTF-8"?>
<svg id="Layer_1" data-name="Layer 1" xmlns="http://www.w3.org/2000/svg" viewBox="0 0 313.63 297.19">
  <defs>
    <style>
      .cls-1 {
        fill: #1c1c1b;
      }

      .cls-2 {
        fill: #fff;
      }

      .cls-3 {
        fill: #fcd116;
      }
    </style>
  </defs>
  <path class="cls-3" d="M84.43,45.79l-31.28,26.75v157.82h154.81v-31.06h-123.53V45.79Z"/>
  <path class="cls-1" d="M207.96,234.24H53.15c-2.13,0-3.88-1.75-3.88-3.88V72.54c0-1.13.5-2.21,1.36-2.95l31.28-26.75c1.16-.97,2.76-1.2,4.15-.58,1.36.62,2.25,2.02,2.25,3.53v149.63h119.61c2.13,0,3.88,1.75,3.88,3.88v31.06c0,2.14-1.75,3.88-3.88,3.88h.04ZM57.04,226.48h147.05v-23.3h-119.65c-2.13,0-3.88-1.75-3.88-3.88V54.21l-23.52,20.11v152.15Z"/>
  <path class="cls-2" d="M53.15,230.36l26.97,31.02h159.12V107.87h-31.28v122.49H53.15Z"/>
  <path class="cls-1" d="M239.24,265.3H80.13c-1.13,0-2.17-.5-2.91-1.32l-26.97-31.06c-1.01-1.16-1.24-2.76-.62-4.15.62-1.4,2.02-2.25,3.53-2.25h150.93v-118.65c0-2.14,1.75-3.88,3.88-3.88h31.28c2.13,0,3.88,1.75,3.88,3.88v153.55c0,2.13-1.75,3.88-3.88,3.88ZM81.87,257.54h153.49V111.75h-23.52v118.61c0,2.14-1.75,3.88-3.88,3.88H61.65l20.22,23.3h0Z"/>
  <path class="cls-3" d="M239.24,261.38l31.28-26.75V76.85H115.75v31.06h123.49v153.47Z"/>
  <path class="cls-1" d="M239.24,265.3c-.54,0-1.09-.12-1.63-.35-1.36-.62-2.25-2.02-2.25-3.53V111.75h-119.61c-2.13,0-3.88-1.75-3.88-3.88v-31.06c0-2.14,1.75-3.88,3.88-3.88h154.81c2.14,0,3.88,1.75,3.88,3.88v157.86c0,1.13-.5,2.21-1.36,2.95l-31.28,26.75c-.7.62-1.63.93-2.52.93h-.04ZM119.63,103.99h119.61c2.13,0,3.88,1.75,3.88,3.88v145.13l23.52-20.11V80.73H119.63v23.29-.04Z"/>
  <path class="cls-2" d="M270.53,76.85l-26.97-31.06H84.44v153.51h31.28v-122.45h154.81Z"/>
  <path class="cls-1" d="M115.75,203.18h-31.32c-2.13,0-3.88-1.75-3.88-3.88V45.79c0-2.14,1.75-3.88,3.88-3.88h159.16c1.13,0,2.17.5,2.91,1.32l26.97,31.06c1.01,1.16,1.24,2.76.62,4.15-.62,1.4-2.02,2.25-3.53,2.25H119.64v118.61c0,2.14-1.75,3.88-3.88,3.88ZM88.36,195.42h23.52v-118.57c0-2.14,1.75-3.88,3.88-3.88h146.27l-20.22-23.29H88.32v145.75h.04Z"/>
</svg>