<?xml version="1.0" encoding="UTF-8"?>
<svg id="Layer_1" data-name="Layer 1" xmlns="http://www.w3.org/2000/svg" viewBox="0 0 40.68 40.51">
  <defs>
    <style>
      .cls-1 {
        fill: none;
        stroke: #ea0303;
        stroke-miterlimit: 10;
        stroke-width: 9px;
      }

      .cls-2 {
        fill: #d7fe3c;
      }
    </style>
  </defs>
  <circle class="cls-2" cx="20.25" cy="20.03" r="18.38"/>
  <path d="M22.02,26.31c-.02,1.06-1.05,1.67-1.91,1.6-.92-.07-1.68-.82-1.68-1.82v-2.07c0-1.26-.91-2.16-2.18-2.17l-2.2-.02c-1.01-.01-1.7-.89-1.71-1.78-.01-.95.74-1.83,1.8-1.83h2.12c1.23,0,2.17-.89,2.17-2.15v-2.09c0-1.01.75-1.76,1.67-1.83.87-.07,1.9.54,1.92,1.54l.04,2.4c.02,1,.77,2.07,1.85,2.09l2.42.04c1.08.02,1.84.84,1.83,1.83s-.78,1.78-1.87,1.79c-.87.01-1.77,0-2.64.1-.99.1-1.58,1.17-1.6,2.06l-.04,2.32Z"/>
  <path d="M8.87,18.9c.72-.27,1.4.16,1.58.73.21.66-.1,1.29-.75,1.54-.55.21-1.26-.09-1.49-.61-.28-.63-.06-1.39.66-1.66Z"/>
  <path d="M19.73,29.84c.7-.32,1.4.02,1.65.66.21.54-.02,1.27-.61,1.52s-1.31.08-1.63-.58c-.24-.49-.11-1.29.58-1.6Z"/>
  <path d="M13.55,8.08c.64-.34,1.39-.1,1.67.48.27.55.13,1.32-.52,1.64-.5.25-1.22.13-1.56-.38-.36-.54-.29-1.36.41-1.74Z"/>
  <path d="M30.89,18.86c.7-.16,1.34.25,1.47.88s-.16,1.29-.9,1.48c-.52.13-1.22-.18-1.42-.77-.21-.65.1-1.4.84-1.58Z"/>
  <path d="M30.57,12.9c.63-.35,1.39-.12,1.68.45s.18,1.34-.52,1.68c-.46.23-1.19.14-1.56-.42-.31-.48-.27-1.33.4-1.71Z"/>
  <path d="M19.7,8.06c.7-.32,1.44-.04,1.69.63.19.53.02,1.23-.65,1.53-.52.23-1.24.08-1.57-.56-.24-.48-.17-1.29.53-1.61Z"/>
  <path d="M25.74,8.08c.64-.34,1.39-.11,1.68.47.27.54.14,1.32-.52,1.65-.48.24-1.2.13-1.56-.4s-.29-1.35.4-1.72Z"/>
  <path d="M25.75,12.9c.64-.35,1.38-.1,1.67.47s.14,1.32-.51,1.66c-.49.26-1.22.12-1.57-.4s-.27-1.35.42-1.72Z"/>
  <path d="M13.55,12.89c.65-.34,1.37-.09,1.66.48s.12,1.33-.51,1.64c-.52.26-1.23.13-1.57-.39s-.28-1.37.41-1.74Z"/>
  <path d="M8.74,25.05c.67-.34,1.37-.05,1.65.5.3.58.09,1.33-.5,1.64-.54.29-1.26.1-1.59-.39-.36-.55-.25-1.39.44-1.74Z"/>
  <path d="M30.68,25.01c.68-.29,1.39.03,1.61.61s.03,1.34-.65,1.61c-.53.2-1.22.05-1.53-.55-.27-.53-.17-1.35.57-1.67Z"/>
  <path d="M8.74,12.88c.66-.34,1.37-.06,1.65.51s.09,1.31-.51,1.62c-.54.27-1.25.11-1.57-.38-.37-.56-.26-1.39.43-1.75Z"/>
  <path d="M25.92,29.8c.64-.23,1.31.09,1.53.64.26.64,0,1.36-.64,1.61s-1.34,0-1.6-.65c-.23-.59,0-1.35.7-1.59Z"/>
  <path d="M13.56,25.05c.64-.34,1.37-.07,1.65.48.29.58.11,1.33-.5,1.65-.52.27-1.24.13-1.58-.4s-.26-1.36.43-1.73Z"/>
  <path d="M25.87,25c.69-.28,1.37.07,1.59.63.25.63,0,1.35-.67,1.6-.54.21-1.23,0-1.52-.55s-.14-1.38.6-1.68Z"/>
  <path d="M13.67,29.82c.7-.28,1.37.08,1.59.64.25.63-.01,1.35-.64,1.59s-1.26.02-1.55-.55-.13-1.39.6-1.68Z"/>
  <path d="M19.91,4.55c.39-.17.91,0,1.07.36.17.38.06.89-.38,1.11-.31.15-.89.01-1.06-.32-.2-.39-.08-.96.37-1.15Z"/>
  <path d="M34.61,19.33c.44-.24.96-.06,1.14.29s.06.93-.36,1.14c-.27.14-.81.05-1.03-.26-.22-.29-.19-.93.25-1.17Z"/>
  <path d="M9.06,8.34c.42-.12.89.13,1,.47.14.43-.03.94-.5,1.07-.39.11-.87-.05-1.04-.54-.11-.32.08-.87.54-1.01Z"/>
  <path d="M30.91,8.36c.38-.13.89.09,1.01.39.17.42,0,.94-.33,1.09-.45.19-.98.01-1.12-.33-.18-.45-.04-.98.45-1.15Z"/>
  <path d="M5.16,19.27c.39-.15.89.05,1.04.4.16.37,0,.91-.35,1.08-.41.2-.92.03-1.1-.33-.2-.41-.06-.96.41-1.14Z"/>
  <path d="M30.75,30.25c.39-.21.9-.11,1.14.26.19.28.12.86-.24,1.11-.3.21-.89.12-1.1-.17-.27-.36-.2-.98.2-1.2Z"/>
  <path d="M19.87,34.04c.43-.19.95.01,1.1.33.18.4.05.94-.35,1.12-.32.15-.85.03-1.05-.27-.22-.32-.17-.96.3-1.18Z"/>
  <path d="M8.87,30.26c.46-.26.96-.08,1.17.3.17.3,0,.93-.4,1.13-.27.13-.72.04-1.01-.27-.23-.25-.2-.92.23-1.16Z"/>
  <rect class="cls-1" x="-158.29" y="-251.48" width="370.72" height="506.3"/>
</svg>