<?xml version="1.0" encoding="UTF-8"?>
<svg id="Layer_1" data-name="Layer 1" xmlns="http://www.w3.org/2000/svg" viewBox="0 0 45.62 48.26">
  <defs>
    <style>
      .cls-1 {
        fill: none;
        stroke: #ea0303;
        stroke-miterlimit: 10;
        stroke-width: 9px;
      }
    </style>
  </defs>
  <path d="M25.36,45.96h-4.38c-7.15-1.19-13.69-5.16-16.52-12.19l-.64-1.58v-2.18c2.74-6.39,14.6-.28,19.34,1.52,3.81-1.48,15.87-7.15,18.57-2.62.51.85.73,2.61.41,3.62-2.39,7.56-9.19,12.14-16.79,13.43ZM19.15,32.95c-3.55-1.59-8.94-3.66-12.25-2.74-.18,1-.12,2.3.31,3.06,1.5,2.67,9.47.84,11.94-.32ZM39.08,32.94c.4-.89.56-2.2.07-2.77-3.75-1.01-11.71,2.63-15.56,4.22-4.32,1.78-8.64,2.94-13.36,3.16,4.26,4.51,10.14,6.4,16.31,5.24,5.12-.97,10.12-4.48,12.54-9.85Z"/>
  <path d="M3.83,21.31v-2.18l.66-1.61c3.14-7.61,10.98-12.38,19.2-12.14,12.68.37,21.16,12.75,17.86,17.18s-14.68-1.32-18.63-2.77c-4.23,1.72-14.18,6.38-17.94,3.3l-1.16-1.79ZM23.49,16.58c4.07-1.63,8.13-2.61,12.52-2.8-4.33-4.53-10.14-6.39-16.27-5.27-5.13.94-10.1,4.43-12.51,9.63-.41.88-.55,2.07-.32,3.01,4.12,1,12.3-2.86,16.58-4.57ZM39.22,20.82c.62-.66.08-2.43-.37-2.97-1.9-2.32-8.99-.72-11.83.51,2.42,1.21,10.52,4.24,12.19,2.45Z"/>
  <rect class="cls-1" x="-74.33" y="-218.51" width="370.72" height="506.3"/>
</svg>