<?xml version="1.0" encoding="UTF-8"?>
<svg id="Layer_1" data-name="Layer 1" xmlns="http://www.w3.org/2000/svg" viewBox="0 0 500.19 468.17">
  <defs>
    <style>
      .cls-1 {
        fill: #df542a;
      }
    </style>
  </defs>
  <path class="cls-1" d="M471.39,165.82c-.46,46.19,3.95,92.34-3.47,130.32-21.26,108.79-134.86,172.28-235.46,162.05-107.18-10.9-191.37-94.88-202.16-201.98C20.09,154.92,83.48,43.21,192.76,20.35c125.13-26.18,228.37,18.44,278.63,145.47ZM269.75,159.97l5.31,89.2,129.98-128.08C333.17,23.08,198.7,22.09,117.41,102.04l105.81,2.84c26.78.72,44.76,25.2,46.54,55.09ZM179.71,337.97l-4.65-143.09-105.67.94c-21.69,117.5,59.41,216.94,170.32,226.17,109.2,9.09,212.19-77.22,201.1-199.64l-165.46,160.4c-27.6-1.17-83.79-21.49-95.65-44.78Z"/>
</svg>