<?xml version="1.0" encoding="UTF-8"?>
<svg id="Layer_1" data-name="Layer 1" xmlns="http://www.w3.org/2000/svg" viewBox="0 0 772.09 307.29">
  <defs>
    <style>
      .cls-1 {
        fill: #00545f;
      }
    </style>
  </defs>
  <path class="cls-1" d="M502.67,69.87c.01-6.32,4.78-9.74,9.69-9.5s8.76,4.35,8.74,10.09l-.44,119.85c-.14,38.91-33.95,68.77-71.62,68.85-38.01.08-71.84-30.24-71.91-69.46l-.21-121.32c0-5.08,5.01-7.93,8.85-7.97s9.21,2.73,9.22,7.83l.27,120.24c.07,29.3,24.71,51.98,52.89,52.33,28.91.35,54.25-22.33,54.31-52.23l.21-118.7Z"/>
  <path class="cls-1" d="M107.46,92.56L37.83,253.91c-2,4.64-6.96,5.9-10.83,4.89s-8.46-6.23-6.27-11.31L98.99,65.73c1.58-3.67,5.33-5.55,8.61-5.59s6.82,2.09,8.41,5.79l77.98,181.01c2.1,4.88-1.39,9.81-5.14,11.48-4.43,1.97-9.79.12-11.98-4.96L107.46,92.56Z"/>
  <path class="cls-1" d="M639.98,92.64l-69.66,161.33c-2.07,4.8-7.84,6.06-11.59,4.59-4.13-1.62-7.4-6.71-5.26-11.68l78-181.03c1.58-3.67,5.27-5.74,8.55-5.75s6.92,2.15,8.5,5.83l77.96,180.99c2.18,5.05-1.37,9.96-5.21,11.57-4.66,1.96-9.76-.04-12-5.26l-69.3-160.58Z"/>
  <path class="cls-1" d="M245.13,205c22.18,31.23,61.84,43.15,97.67,31.38,5.23-1.72,10.44.07,12.15,4.23,2.34,5.7-.06,11.09-5.68,12.98-34.98,11.79-73.25,4.59-101.19-18.54-47.05-38.94-47.75-109.48-1.57-149.38,28.11-24.29,67.5-31.93,103.31-19.65,5.38,1.84,7.26,7.57,5.18,12.54-1.94,4.65-7.01,6.07-12.39,4.32-33.94-11-71.62-.76-94.1,26.91-22.45,27.63-24.29,65.78-3.38,95.21Z"/>
  <path class="cls-1" d="M648.95,202.65c0,5.33-5.28,7.91-8.95,7.93s-8.88-2.66-8.9-7.39l-.13-46.85c-.01-4.87,4.99-8.02,9.04-8.06s8.98,3.24,8.98,8.1l-.05,46.27Z"/>
  <path class="cls-1" d="M116.6,200.61c.01,5.74-3.52,9.42-8.11,9.96-3.93.47-9.97-2.26-9.98-7.46l-.08-46.73c0-4.93,5.02-8.17,9.15-8.14,4.05.02,8.9,3.26,8.91,8.22l.11,44.16Z"/>
</svg>