<?xml version="1.0" encoding="UTF-8"?>
<svg id="Layer_1" data-name="Layer 1" xmlns="http://www.w3.org/2000/svg" xmlns:xlink="http://www.w3.org/1999/xlink" viewBox="0 0 313.63 297.19">
  <defs>
    <style>
      .cls-1 {
        fill: #fff;
      }

      .cls-2 {
        mask: url(#mask);
      }

      .cls-3 {
        fill: none;
        stroke: #000;
        stroke-linecap: round;
        stroke-miterlimit: 1.41;
        stroke-width: 0px;
      }
    </style>
    <mask id="mask" x="47.78" y="28.29" width="218.06" height="240.62" maskUnits="userSpaceOnUse">
      <g id="path-3-outside-1_649_2" data-name="path-3-outside-1 649 2">
        <rect class="cls-1" x="47.78" y="28.29" width="218.06" height="240.62"/>
        <path d="M96.93,148.6l-37.53-67.05c-6.63-11.86-5.12-25.99,3.85-36.03,8.98-10.03,22.38-12.54,34.12-6.4l59.44,31.09,59.44-31.09c11.75-6.14,25.13-3.63,34.11,6.4,8.98,10.03,10.49,24.17,3.85,36.03l-37.53,67.05,37.53,67.05c6.64,11.85,5.11,25.99-3.85,36.02-5.71,6.38-13.21,9.72-20.94,9.72-4.58-.02-9.09-1.16-13.17-3.32l-59.44-31.09-59.44,31.09c-4.09,2.17-8.6,3.31-13.19,3.32-7.72,0-15.21-3.34-20.94-9.72-8.98-10.03-10.49-24.17-3.85-36.03l37.53-67.04ZM152.68,218.81c.17.03.33.05.51.07l.41.05.39.05c.26.03.53.05.79.07l.28.02c.21.01.42.03.63.03h.27c.29,0,.58.02.88.02s.58,0,.87-.02h.25c.21,0,.42-.02.63-.03l.28-.02.79-.07.39-.05.41-.05.49-.07.21-.03c6.24-1.04,11.94-4.3,16.17-9.21.14-.16.28-.33.42-.5.02-.03.04-.05.06-.08,1.45-1.8,2.69-3.77,3.7-5.88.89-1.88,1.59-3.85,2.07-5.88l.04-.15s.02-.07.03-.1v-.06l.07-.23c.21-.96.37-1.92.48-2.9l.02-.16s0-.07.02-.11c.12-1.08.18-2.17.18-3.25v-83.29c0-1.09-.07-2.19-.19-3.28-.02-.13-.04-.27-.06-.39-.02-.12-.04-.25-.06-.38-.12-.91-.25-1.72-.43-2.49-.04-.15-.07-.31-.11-.46l-.05-.21c-.22-.89-.47-1.76-.76-2.59l-.05-.14c-.03-.08-.05-.16-.08-.24-.35-.98-.75-1.93-1.2-2.86-.25-.55-.54-1.09-.84-1.61l-.04-.07c-.11-.19-.22-.38-.33-.56-2.48-4.15-5.92-7.58-10.02-9.95-4.09-2.38-8.7-3.62-13.38-3.62s-9.28,1.25-13.38,3.62c-4.09,2.37-7.54,5.8-10.02,9.95-.11.19-.22.37-.33.56-.01.03-.03.05-.04.08-.29.53-.57,1.06-.84,1.61-.44.93-.84,1.88-1.18,2.86-.03.08-.06.16-.09.24l-.04.13c-.29.84-.55,1.71-.76,2.6l-.05.2c-.04.15-.08.3-.11.46-.17.77-.31,1.59-.44,2.5-.02.13-.04.27-.06.38-.02.11-.04.27-.06.38-.12,1.09-.18,2.18-.19,3.28v83.29c0,1.09.07,2.17.19,3.25,0,.03,0,.07.02.11l.02.16c.12.97.28,1.94.49,2.9l.07.23v.06s.02.07.03.11l.04.15c.48,2.03,1.17,4.01,2.06,5.88,1,2.11,2.24,4.08,3.69,5.88l.07.08.4.49c4.22,4.92,9.93,8.18,16.18,9.23l.21.04ZM188.47,190.26v.39l13.39-23.93,10.14-18.12-23.53-42.06v83.72ZM125.16,190.26v-83.71l-23.53,42.05,23.54,42.04c0-.13,0-.26,0-.38ZM95.56,42.93c-5.23-2.73-10.83-3.55-16.21-2.35-5.03,1.18-9.6,3.92-13.13,7.85-3.52,3.94-5.83,8.89-6.63,14.22-.79,5.69.36,11.49,3.31,16.76l36.37,64.98,8.02-14.32,21.17-37.83.06-.18.07-.08c.33-.67.68-1.33,1.04-1.97.17-.3.35-.59.52-.89.07-.12.15-.23.22-.35l.23-.37c2.45-3.79,5.62-7.01,9.31-9.46,4.46-2.95,9.55-4.69,14.82-5.04l-59.2-30.97ZM250.71,79.41c2.95-5.28,4.1-11.07,3.31-16.76-.79-5.33-3.1-10.28-6.62-14.21-3.52-3.94-8.09-6.67-13.12-7.85-1.6-.35-3.23-.53-4.87-.53-3.94.02-7.82,1.01-11.33,2.89l-59.21,30.95c5.05.33,9.95,1.93,14.28,4.67,4.33,2.74,7.97,6.53,10.6,11.05.08.14.17.29.25.43.04.07.09.15.13.22.35.63.69,1.28,1.01,1.93l29.2,52.21,36.36-64.99ZM218.07,254.27c5.23,2.73,10.84,3.55,16.21,2.35,5.03-1.18,9.61-3.91,13.13-7.85,3.52-3.94,5.83-8.89,6.62-14.22.79-5.69-.36-11.48-3.32-16.76l-36.37-64.99-29.1,51.99c-1.1,2.35-2.47,4.56-4.07,6.58-.13.17-.27.34-.41.51-.01.02-.03.03-.04.05-4.89,5.95-11.65,9.87-19.06,11.05l-.14.02c-.38.06-.76.11-1.14.16l-.36.04c-.14.02-.28.03-.42.04l-.55.05-.19.02,59.21,30.97ZM59.6,234.55c.79,5.33,3.1,10.28,6.63,14.22,3.52,3.94,8.1,6.67,13.13,7.85,5.38,1.19,10.98.38,16.21-2.35l59.2-30.96h-.13c-.24-.02-.48-.04-.72-.06l-.19-.02c-.63-.06-1.27-.15-1.88-.25l-.09-.02c-.28-.05-.56-.1-.84-.15l-.14-.03c-.28-.06-.56-.12-.83-.18l-.08-.02c-.63-.15-1.25-.31-1.86-.5l-.06-.02c-.28-.08-.55-.17-.82-.26l-.15-.05c-.25-.09-.51-.18-.76-.27l-.11-.04c-.59-.22-1.16-.46-1.73-.72l-.17-.08c-.23-.1-.45-.21-.68-.32l-.19-.09c-.25-.12-.51-.27-.76-.38l-.06-.03c-.29-.15-.57-.31-.85-.47h-.02c-.27-.15-.54-.32-.81-.48l-.09-.05c-5.22-3.23-9.44-7.95-12.18-13.61l-.02-.03-.03-.08-.12-.27-29.1-51.99-36.37,64.98c-2.95,5.26-4.1,11.04-3.31,16.73Z"/>
      </g>
    </mask>
  </defs>
  <path d="M100.36,147.57l25.9-44.81.7,92.7-4.33-6.7-22.27-41.2Z"/>
  <path d="M213.78,146.54l-26.41-41.72v88.07l26.41-46.35Z"/>
  <path d="M96.93,148.6l-37.53-67.05c-6.63-11.86-5.12-25.99,3.85-36.03,8.98-10.03,22.38-12.54,34.12-6.4l59.44,31.09,59.44-31.09c11.75-6.14,25.13-3.63,34.11,6.4,8.98,10.03,10.49,24.17,3.85,36.03l-37.53,67.05,37.53,67.05c6.64,11.85,5.11,25.99-3.85,36.02-5.71,6.38-13.21,9.72-20.94,9.72-4.58-.02-9.09-1.16-13.17-3.32l-59.44-31.09-59.44,31.09c-4.09,2.17-8.6,3.31-13.19,3.32-7.72,0-15.21-3.34-20.94-9.72-8.98-10.03-10.49-24.17-3.85-36.03l37.53-67.04ZM152.68,218.81c.17.03.33.05.51.07l.41.05.39.05c.26.03.53.05.79.07l.28.02c.21.01.42.03.63.03h.27c.29,0,.58.02.88.02s.58,0,.87-.02h.25c.21,0,.42-.02.63-.03l.28-.02.79-.07.39-.05.41-.05.49-.07.21-.03c6.24-1.04,11.94-4.3,16.17-9.21.14-.16.28-.33.42-.5.02-.03.04-.05.06-.08,1.45-1.8,2.69-3.77,3.7-5.88.89-1.88,1.59-3.85,2.07-5.88l.04-.15s.02-.07.03-.1v-.06l.07-.23c.21-.96.37-1.92.48-2.9l.02-.16s0-.07.02-.11c.12-1.08.18-2.17.18-3.25v-83.29c0-1.09-.07-2.19-.19-3.28-.02-.13-.04-.27-.06-.39-.02-.12-.04-.25-.06-.38-.12-.91-.25-1.72-.43-2.49-.04-.15-.07-.31-.11-.46l-.05-.21c-.22-.89-.47-1.76-.76-2.59l-.05-.14c-.03-.08-.05-.16-.08-.24-.35-.98-.75-1.93-1.2-2.86-.25-.55-.54-1.09-.84-1.61l-.04-.07c-.11-.19-.22-.38-.33-.56-2.48-4.15-5.92-7.58-10.02-9.95-4.09-2.38-8.7-3.62-13.38-3.62s-9.28,1.25-13.38,3.62c-4.09,2.37-7.54,5.8-10.02,9.95-.11.19-.22.37-.33.56-.01.03-.03.05-.04.08-.29.53-.57,1.06-.84,1.61-.44.93-.84,1.88-1.18,2.86-.03.08-.06.16-.09.24l-.04.13c-.29.84-.55,1.71-.76,2.6l-.05.2c-.04.15-.08.3-.11.46-.17.77-.31,1.59-.44,2.5-.02.13-.04.27-.06.38-.02.11-.04.27-.06.38-.12,1.09-.18,2.18-.19,3.28v83.29c0,1.09.07,2.17.19,3.25,0,.03,0,.07.02.11l.02.16c.12.97.28,1.94.49,2.9l.07.23v.06s.02.07.03.11l.04.15c.48,2.03,1.17,4.01,2.06,5.88,1,2.11,2.24,4.08,3.69,5.88l.07.08.4.49c4.22,4.92,9.93,8.18,16.18,9.23l.21.04ZM188.47,190.26v.39l13.39-23.93,10.14-18.12-23.53-42.06v83.72ZM125.16,190.26v-83.71l-23.53,42.05,23.54,42.04c0-.13,0-.26,0-.38ZM95.56,42.93c-5.23-2.73-10.83-3.55-16.21-2.35-5.03,1.18-9.6,3.92-13.13,7.85-3.52,3.94-5.83,8.89-6.63,14.22-.79,5.69.36,11.49,3.31,16.76l36.37,64.98,8.02-14.32,21.17-37.83.06-.18.07-.08c.33-.67.68-1.33,1.04-1.97.17-.3.35-.59.52-.89.07-.12.15-.23.22-.35l.23-.37c2.45-3.79,5.62-7.01,9.31-9.46,4.46-2.95,9.55-4.69,14.82-5.04l-59.2-30.97ZM250.71,79.41c2.95-5.28,4.1-11.07,3.31-16.76-.79-5.33-3.1-10.28-6.62-14.21-3.52-3.94-8.09-6.67-13.12-7.85-1.6-.35-3.23-.53-4.87-.53-3.94.02-7.82,1.01-11.33,2.89l-59.21,30.95c5.05.33,9.95,1.93,14.28,4.67,4.33,2.74,7.97,6.53,10.6,11.05.08.14.17.29.25.43.04.07.09.15.13.22.35.63.69,1.28,1.01,1.93l29.2,52.21,36.36-64.99ZM218.07,254.27c5.23,2.73,10.84,3.55,16.21,2.35,5.03-1.18,9.61-3.91,13.13-7.85,3.52-3.94,5.83-8.89,6.62-14.22.79-5.69-.36-11.48-3.32-16.76l-36.37-64.99-29.1,51.99c-1.1,2.35-2.47,4.56-4.07,6.58-.13.17-.27.34-.41.51-.01.02-.03.03-.04.05-4.89,5.95-11.65,9.87-19.06,11.05l-.14.02c-.38.06-.76.11-1.14.16l-.36.04c-.14.02-.28.03-.42.04l-.55.05-.19.02,59.21,30.97ZM59.6,234.55c.79,5.33,3.1,10.28,6.63,14.22,3.52,3.94,8.1,6.67,13.13,7.85,5.38,1.19,10.98.38,16.21-2.35l59.2-30.96h-.13c-.24-.02-.48-.04-.72-.06l-.19-.02c-.63-.06-1.27-.15-1.88-.25l-.09-.02c-.28-.05-.56-.1-.84-.15l-.14-.03c-.28-.06-.56-.12-.83-.18l-.08-.02c-.63-.15-1.25-.31-1.86-.5l-.06-.02c-.28-.08-.55-.17-.82-.26l-.15-.05c-.25-.09-.51-.18-.76-.27l-.11-.04c-.59-.22-1.16-.46-1.73-.72l-.17-.08c-.23-.1-.45-.21-.68-.32l-.19-.09c-.25-.12-.51-.27-.76-.38l-.06-.03c-.29-.15-.57-.31-.85-.47h-.02c-.27-.15-.54-.32-.81-.48l-.09-.05c-5.22-3.23-9.44-7.95-12.18-13.61l-.02-.03-.03-.08-.12-.27-29.1-51.99-36.37,64.98c-2.95,5.26-4.1,11.04-3.31,16.73Z"/>
  <g class="cls-2">
    <path class="cls-3" d="M96.93,148.6l-37.53-67.05c-6.63-11.86-5.12-25.99,3.85-36.03,8.98-10.03,22.38-12.54,34.12-6.4l59.44,31.09,59.44-31.09c11.75-6.14,25.13-3.63,34.11,6.4,8.98,10.03,10.49,24.17,3.85,36.03l-37.53,67.05,37.53,67.05c6.64,11.85,5.11,25.99-3.85,36.02-5.71,6.38-13.21,9.72-20.94,9.72-4.58-.02-9.09-1.16-13.17-3.32l-59.44-31.09-59.44,31.09c-4.09,2.17-8.6,3.31-13.19,3.32-7.72,0-15.21-3.34-20.94-9.72-8.98-10.03-10.49-24.17-3.85-36.03l37.53-67.04ZM152.68,218.81c.17.03.33.05.51.07l.41.05.39.05c.26.03.53.05.79.07l.28.02c.21.01.42.03.63.03h.27c.29,0,.58.02.88.02s.58,0,.87-.02h.25c.21,0,.42-.02.63-.03l.28-.02.79-.07.39-.05.41-.05.49-.07.21-.03c6.24-1.04,11.94-4.3,16.17-9.21.14-.16.28-.33.42-.5.02-.03.04-.05.06-.08,1.45-1.8,2.69-3.77,3.7-5.88.89-1.88,1.59-3.85,2.07-5.88l.04-.15s.02-.07.03-.1v-.06l.07-.23c.21-.96.37-1.92.48-2.9l.02-.16s0-.07.02-.11c.12-1.08.18-2.17.18-3.25v-83.29c0-1.09-.07-2.19-.19-3.28-.02-.13-.04-.27-.06-.39-.02-.12-.04-.25-.06-.38-.12-.91-.25-1.72-.43-2.49-.04-.15-.07-.31-.11-.46l-.05-.21c-.22-.89-.47-1.76-.76-2.59l-.05-.14c-.03-.08-.05-.16-.08-.24-.35-.98-.75-1.93-1.2-2.86-.25-.55-.54-1.09-.84-1.61l-.04-.07c-.11-.19-.22-.38-.33-.56-2.48-4.15-5.92-7.58-10.02-9.95-4.09-2.38-8.7-3.62-13.38-3.62s-9.28,1.25-13.38,3.62c-4.09,2.37-7.54,5.8-10.02,9.95-.11.19-.22.37-.33.56-.01.03-.03.05-.04.08-.29.53-.57,1.06-.84,1.61-.44.93-.84,1.88-1.18,2.86-.03.08-.06.16-.09.24l-.04.13c-.29.84-.55,1.71-.76,2.6l-.05.2c-.04.15-.08.3-.11.46-.17.77-.31,1.59-.44,2.5-.02.13-.04.27-.06.38-.02.11-.04.27-.06.38-.12,1.09-.18,2.18-.19,3.28v83.29c0,1.09.07,2.17.19,3.25,0,.03,0,.07.02.11l.02.16c.12.97.28,1.94.49,2.9l.07.23v.06s.02.07.03.11l.04.15c.48,2.03,1.17,4.01,2.06,5.88,1,2.11,2.24,4.08,3.69,5.88l.07.08.4.49c4.22,4.92,9.93,8.18,16.18,9.23l.21.04ZM188.47,190.26v.39l13.39-23.93,10.14-18.12-23.53-42.06v83.72ZM125.16,190.26v-83.71l-23.53,42.05,23.54,42.04c0-.13,0-.26,0-.38ZM95.56,42.93c-5.23-2.73-10.83-3.55-16.21-2.35-5.03,1.18-9.6,3.92-13.13,7.85-3.52,3.94-5.83,8.89-6.63,14.22-.79,5.69.36,11.49,3.31,16.76l36.37,64.98,8.02-14.32,21.17-37.83.06-.18.07-.08c.33-.67.68-1.33,1.04-1.97.17-.3.35-.59.52-.89.07-.12.15-.23.22-.35l.23-.37c2.45-3.79,5.62-7.01,9.31-9.46,4.46-2.95,9.55-4.69,14.82-5.04l-59.2-30.97ZM250.71,79.41c2.95-5.28,4.1-11.07,3.31-16.76-.79-5.33-3.1-10.28-6.62-14.21-3.52-3.94-8.09-6.67-13.12-7.85-1.6-.35-3.23-.53-4.87-.53-3.94.02-7.82,1.01-11.33,2.89l-59.21,30.95c5.05.33,9.95,1.93,14.28,4.67,4.33,2.74,7.97,6.53,10.6,11.05.08.14.17.29.25.43.04.07.09.15.13.22.35.63.69,1.28,1.01,1.93l29.2,52.21,36.36-64.99ZM218.07,254.27c5.23,2.73,10.84,3.55,16.21,2.35,5.03-1.18,9.61-3.91,13.13-7.85,3.52-3.94,5.83-8.89,6.62-14.22.79-5.69-.36-11.48-3.32-16.76l-36.37-64.99-29.1,51.99c-1.1,2.35-2.47,4.56-4.07,6.58-.13.17-.27.34-.41.51-.01.02-.03.03-.04.05-4.89,5.95-11.65,9.87-19.06,11.05l-.14.02c-.38.06-.76.11-1.14.16l-.36.04c-.14.02-.28.03-.42.04l-.55.05-.19.02,59.21,30.97ZM59.6,234.55c.79,5.33,3.1,10.28,6.63,14.22,3.52,3.94,8.1,6.67,13.13,7.85,5.38,1.19,10.98.38,16.21-2.35l59.2-30.96h-.13c-.24-.02-.48-.04-.72-.06l-.19-.02c-.63-.06-1.27-.15-1.88-.25l-.09-.02c-.28-.05-.56-.1-.84-.15l-.14-.03c-.28-.06-.56-.12-.83-.18l-.08-.02c-.63-.15-1.25-.31-1.86-.5l-.06-.02c-.28-.08-.55-.17-.82-.26l-.15-.05c-.25-.09-.51-.18-.76-.27l-.11-.04c-.59-.22-1.16-.46-1.73-.72l-.17-.08c-.23-.1-.45-.21-.68-.32l-.19-.09c-.25-.12-.51-.27-.76-.38l-.06-.03c-.29-.15-.57-.31-.85-.47h-.02c-.27-.15-.54-.32-.81-.48l-.09-.05c-5.22-3.23-9.44-7.95-12.18-13.61l-.02-.03-.03-.08-.12-.27-29.1-51.99-36.37,64.98c-2.95,5.26-4.1,11.04-3.31,16.73Z"/>
  </g>
</svg>