<?xml version="1.0" encoding="UTF-8"?>
<svg id="Layer_1" data-name="Layer 1" xmlns="http://www.w3.org/2000/svg" viewBox="0 0 313.63 297.19">
  <defs>
    <style>
      .cls-1 {
        fill: #ff6d22;
      }

      .cls-2 {
        fill: #b2b2b2;
      }
    </style>
  </defs>
  <path class="cls-2" d="M204.27,239.25h-81.77c-33.7,0-61.01-27.3-61.01-61.01v-81.77h0c18.11,0,32.82,14.71,32.82,32.82v48.95c0,15.59,12.66,28.26,28.26,28.26h48.95c18.04-.07,32.75,14.64,32.75,32.75h0Z"/>
  <path class="cls-1" d="M252.13,200.78h0c-18.11,0-32.82-14.71-32.82-32.82v-48.95c0-15.59-12.66-28.26-28.26-28.26h-48.95c-18.11,0-32.82-14.71-32.82-32.82h81.77c33.7,0,61.01,27.3,61.01,61.01v81.84h.07Z"/>
</svg>