<?xml version="1.0" encoding="UTF-8"?>
<svg id="Layer_1" data-name="Layer 1" xmlns="http://www.w3.org/2000/svg" viewBox="0 0 663.22 657.7">
  <path d="M615.42,364.76c-3.44,78.98-21.25,196.07-85.75,246.82-27.22,21.42-61.92,21.72-88.1-.86-40.29-34.77-75.17-105.33-96.07-155.07l-95.21-226.6c-10.73-25.54-47.41-107.41-71.69-114.72-27.08-8.16-56.22,51.12-64.48,75.51-44.73,132.12-44.33,269.8-4.01,405.86C30.08,468.67,23.91,264.14,85.91,130.92c12.52-23.27,26.98-45.01,48.18-60.32,26.35-19.03,60.19-18.04,84.77,3.26,49.6,43,87.45,133.1,113.36,194.98l77.32,184.66c10.48,25.04,48.44,111.05,72.72,116.6,6.28,1.43,20.43-3.24,25.4-8.67,76.9-84.12,85.76-312.22,57.23-417.59l-16.6-61.31c50,83.64,71.53,181.69,67.15,282.24Z"/>
</svg>