<?xml version="1.0" encoding="UTF-8"?>
<svg id="Layer_1" data-name="Layer 1" xmlns="http://www.w3.org/2000/svg" viewBox="0 0 735.32 340.77">
  <defs>
    <style>
      .cls-1 {
        fill: #d72331;
      }
    </style>
  </defs>
  <path class="cls-1" d="M212.87,212.75c-12.41-8.5-27.39-7.2-37.72-7.17l-104.21.3c-6.34.02-12.88-1.7-20.75-2.4l-.29-37.18c.09-2.56,6.67-5.81,9.85-5.82l133.61-.33c14.79-.04,28.16-10.58,36.94-22.06l54.31-71.06c3.27-4.27,7.65-7.96,13.33-7.92l53.83.42c-19.36,24.17-36.93,47.5-56.9,69.61-28.7,31.78-28.67,73.29-1.34,106.38l59.32,71.82-55.08.41c-3.36.03-9.56-3.13-11.58-5.86l-46.24-62.21c-7.73-10.4-16.44-19.67-27.07-26.94Z"/>
  <path class="cls-1" d="M669.96,206.27h-289.53c-.88-15.65-1.02-30.22-.1-46.13l289.51.09.12,46.04Z"/>
  <path class="cls-1" d="M651.28,108.52l-256.44.06c12.53-34.43,59.13-48.78,91.21-48.86l201.27-.49-18.07,37.51c-4.36,4.5-9.39,11.78-17.97,11.78Z"/>
  <path class="cls-1" d="M686.79,307.29l-201.01-.28c-20.88-.03-39.61-5.7-57.86-13.91-14.02-7.72-24.98-18.36-33.24-34.93l259.11.15c9.75.62,15.94,13.38,19.4,19.5l13.6,29.48Z"/>
</svg>