<?xml version="1.0" encoding="UTF-8"?>
<svg id="Layer_1" data-name="Layer 1" xmlns="http://www.w3.org/2000/svg" viewBox="0 0 313.63 297.19">
  <g id="Logo_Icon" data-name="Logo Icon">
    <g id="Logo_Icon_2" data-name="Logo Icon_2">
      <path d="M233.17,199.5c28.08-45.94,13.6-106.14-32.34-134.22-45.89-28.08-106.1-13.6-134.22,32.34-.59,1.01-.51,1.94-.38,2.45.13.51.46,1.39,1.48,1.98,1.52.93,3.5.46,4.43-1.06,26.22-42.9,82.46-56.41,125.31-30.19,42.85,26.22,56.41,82.46,30.19,125.31-21.83,35.68-64.89,51.93-104.79,39.52-1.69-.51-3.5.42-4.05,2.11-.42,1.44.13,2.96,1.39,3.72.21.13.46.25.72.34,42.73,13.3,88.87-4.1,112.22-42.31h.04Z"/>
      <path d="M213.03,144.74h-86.3l4.39-2.91c6.92-4.64,12.83-10.51,17.48-17.48l2.91-4.39v13.3c0,2.11,1.73,3.84,3.84,3.84s3.84-1.73,3.84-3.84v-42.26c0-2.11-1.73-3.84-3.84-3.84s-3.84,1.73-3.84,3.84c-.84,29.26-24.49,52.94-53.79,53.79-2.11,0-3.84,1.73-3.84,3.84s1.73,3.84,3.84,3.84h86.26l-4.39,2.91c-6.92,4.64-12.84,10.51-17.48,17.48l-2.91,4.39v-13.3h-.04s.04-.42.04-.63c0-2.11-1.73-3.84-3.84-3.84s-3.84,1.73-3.84,3.84c0,.21,0,.42.04.63h-.04v42.35c.25,1.9,1.86,3.38,3.8,3.38s3.55-1.48,3.8-3.34h.08c.84-29.26,24.49-52.95,53.79-53.79,2.11,0,3.84-1.73,3.84-3.88s-1.73-3.84-3.84-3.84l.04-.08Z"/>
    </g>
  </g>
</svg>