<?xml version="1.0" encoding="UTF-8"?>
<svg id="Layer_1" data-name="Layer 1" xmlns="http://www.w3.org/2000/svg" viewBox="0 0 450.43 438.85">
  <defs>
    <style>
      .cls-1 {
        fill: #293736;
      }

      .cls-2 {
        fill: #feffff;
      }
    </style>
  </defs>
  <path class="cls-1" d="M432.89,424.99l-404.43.15-.04-404.47h404.4s.08,404.32.08,404.32ZM333.07,324.17l32.08-.77-.02-201.3-43.99.41-90.31,136.45-.11,32.04-76.15-1.18c44.55-39.57,103.99-73.51,70.17-139.99-13.5-19.6-35.44-27.6-59.04-27.61-38.65-.01-69.02,27.04-68.6,66.59l33.5-.25c2.43-20.38,10.88-30.15,26.41-34.39,12.56-3.43,30.36.03,37.45,13.94,10.73,21.04,3.01,46.18-15.41,61.36l-79.18,65.27c-5.33,4.39-4.11,21.13-2.57,29.26l132.42.03,1.16-33.72,100.91.79,1.26,33.11Z"/>
  <path class="cls-2" d="M333.07,324.17l-1.26-33.11-100.91-.79-1.16,33.72-132.42-.03c-1.54-8.13-2.76-24.87,2.57-29.26l79.18-65.27c18.42-15.18,26.14-40.32,15.41-61.36-7.09-13.91-24.89-17.37-37.45-13.94-15.53,4.24-23.99,14.01-26.41,34.39l-33.5.25c-.42-39.55,29.95-66.6,68.6-66.59,23.59,0,45.54,8.01,59.04,27.61,33.82,66.48-25.62,100.42-70.17,139.99l76.15,1.18.11-32.04,90.31-136.45,43.99-.41.02,201.3-32.08.77ZM332.93,256.81l-2.05-89.59-59.44,89.42,61.48.17Z"/>
  <polygon class="cls-1" points="332.93 256.81 271.45 256.64 330.89 167.22 332.93 256.81"/>
</svg>