<?xml version="1.0" encoding="UTF-8"?>
<svg xmlns="http://www.w3.org/2000/svg" xmlns:xlink="http://www.w3.org/1999/xlink" viewBox="0 0 313.63 297.19">
  <defs>
    <style>
      .cls-1 {
        fill: url(#linear-gradient-2);
      }

      .cls-2 {
        fill: #1f2933;
      }

      .cls-3 {
        fill: url(#linear-gradient-4);
      }

      .cls-4 {
        fill: url(#radial-gradient);
      }

      .cls-5 {
        fill: url(#linear-gradient-3);
      }

      .cls-6 {
        fill: url(#linear-gradient-5);
      }

      .cls-7 {
        isolation: isolate;
      }

      .cls-8 {
        fill: url(#linear-gradient-7);
      }

      .cls-9 {
        fill: url(#linear-gradient-6);
      }

      .cls-10 {
        mix-blend-mode: darken;
      }

      .cls-10, .cls-11 {
        opacity: .5;
      }

      .cls-12 {
        fill: url(#linear-gradient);
      }
    </style>
    <linearGradient id="linear-gradient" x1="5752.43" y1="5788.76" x2="5811.78" y2="5788.76" gradientTransform="translate(-5552.86 5908.94) scale(1 -1)" gradientUnits="userSpaceOnUse">
      <stop offset="0" stop-color="#29b980"/>
      <stop offset="1" stop-color="#34af72"/>
    </linearGradient>
    <linearGradient id="linear-gradient-2" x1="5752.45" y1="5750.6" x2="5811.78" y2="5750.6" gradientTransform="translate(-5552.86 5908.94) scale(1 -1)" gradientUnits="userSpaceOnUse">
      <stop offset="0" stop-color="#2989aa"/>
      <stop offset=".27" stop-color="#2781a9"/>
      <stop offset=".67" stop-color="#226ca5"/>
      <stop offset="1" stop-color="#1c56a1"/>
    </linearGradient>
    <linearGradient id="linear-gradient-3" x1="5727.01" y1="5750.6" x2="5743.96" y2="5750.6" gradientTransform="translate(-5552.86 5908.94) scale(1 -1)" gradientUnits="userSpaceOnUse">
      <stop offset="0" stop-color="#22bd88"/>
      <stop offset=".54" stop-color="#2eb17a"/>
      <stop offset="1" stop-color="#32ad74"/>
    </linearGradient>
    <linearGradient id="linear-gradient-4" y1="5788.76" y2="5788.76" xlink:href="#linear-gradient-3"/>
    <radialGradient id="radial-gradient" cx="5692.93" cy="5754.64" fx="5692.93" fy="5754.64" r="54.74" gradientTransform="translate(-5562.86 5900.26) scale(1 -1)" gradientUnits="userSpaceOnUse">
      <stop offset="0" stop-color="#13cd9c"/>
      <stop offset=".14" stop-color="#1dc48f"/>
      <stop offset=".38" stop-color="#2ab87f"/>
      <stop offset=".65" stop-color="#32b175"/>
      <stop offset="1" stop-color="#34af72"/>
    </radialGradient>
    <linearGradient id="linear-gradient-5" x1="5642.04" y1="5754.64" x2="5807.56" y2="5754.64" gradientTransform="translate(-5562.86 5900.26) scale(1 -1)" gradientUnits="userSpaceOnUse">
      <stop offset="0" stop-color="#34af72"/>
      <stop offset=".55" stop-color="#0080bf"/>
      <stop offset="1" stop-color="#1c55a1"/>
    </linearGradient>
    <linearGradient id="linear-gradient-6" x1="5621.72" y1="5754.6" x2="5808.81" y2="5754.6" xlink:href="#linear-gradient-5"/>
    <linearGradient id="linear-gradient-7" x1="5601.31" y1="5754.59" x2="5809.76" y2="5754.59" xlink:href="#linear-gradient-5"/>
  </defs>
  <g class="cls-7">
    <g id="Layer_1" data-name="Layer 1">
      <g id="E">
        <g id="LINE">
          <rect class="cls-12" x="199.58" y="111.7" width="59.35" height="16.95"/>
        </g>
        <g id="LINE-2">
          <polygon class="cls-1" points="258.92 179.52 258.92 162.57 216.54 162.57 216.54 154.1 258.92 154.1 258.92 137.15 199.59 137.15 199.59 179.52 258.92 179.52"/>
        </g>
      </g>
      <g id="i">
        <g id="LINE-3">
          <rect class="cls-5" x="174.15" y="137.15" width="16.95" height="42.38"/>
        </g>
        <g id="LINE-4">
          <rect class="cls-3" x="174.15" y="111.7" width="16.95" height="16.95"/>
        </g>
      </g>
      <path id="a" class="cls-4" d="M111.42,145.62c0-9.37,7.58-16.97,16.95-16.98,9.37,0,16.97,7.58,16.98,16.95,0,9.37-7.58,16.97-16.95,16.98,0,0-.02,0-.03,0-9.36,0-16.95-7.59-16.95-16.95ZM148.72,118.5c-14.98-11.24-36.23-8.2-47.47,6.77-11.24,14.98-8.2,36.23,6.77,47.47,12.06,9.04,28.64,9.04,40.69,0v6.78h16.95v-67.81h-16.95v6.78Z"/>
      <g id="Ring_3" data-name="Ring 3">
        <path class="cls-6" d="M192.24,61.03c-46.72-13.73-95.73,13.01-109.46,59.73-13.73,46.72,13.01,95.73,59.73,109.46,39.75,11.68,82.27-5.89,102.18-42.22h-7.84c-23.41,38.37-73.48,50.49-111.85,27.09-38.37-23.41-50.49-73.48-27.09-111.85,23.41-38.37,73.48-50.49,111.85-27.09,11.06,6.75,20.34,16.03,27.09,27.09h1.51c-9.92-19.06-26.24-34.01-46.11-42.21"/>
      </g>
      <g id="Ring_2" data-name="Ring 2">
        <path class="cls-9" d="M238.35,103.24c-23.41-44.81-78.72-62.16-123.53-38.74-44.81,23.41-62.16,78.72-38.74,123.53,21.96,42.02,72.36,60.33,116.17,42.18,22.39-6.57,41.25-21.75,52.46-42.21h1.25c-23.39,49.01-82.08,69.78-131.09,46.39-49.01-23.39-69.78-82.08-46.39-131.09,20.89-43.77,70.56-65.77,117.01-51.83,23.96,9.74,43.3,28.28,54.04,51.81l-1.18-.04Z"/>
      </g>
      <g id="Ring_1" data-name="Ring 1">
        <path class="cls-8" d="M245.93,188c-11.93,25.04-33.9,43.86-60.47,51.81-52.01,21.24-111.39-3.71-132.63-55.73-21.24-52.01,3.71-111.39,55.73-132.63,50.49-20.61,108.24,2.25,130.94,51.83h7.41c-23.41-55.18-87.11-80.93-142.29-57.53-55.18,23.41-80.93,87.11-57.53,142.29,23.41,55.18,87.11,80.93,142.29,57.53,25.91-10.99,46.54-31.62,57.53-57.53l-.98-.04Z"/>
      </g>
      <g id="Bottom_Shadows" data-name="Bottom Shadows">
        <g id="Top_Shadow_2" data-name="Top Shadow 2" class="cls-11">
          <g id="LINE-5">
            <path class="cls-2" d="M192.24,230.18c-24.34,7.19-50.6,3.51-72.03-10.08,13.43,5.59,27.99,7.91,42.49,6.76,29.99,1.72,58.49-13.22,74.14-38.87h1.51c-9.95,19.03-26.27,33.97-46.11,42.19Z"/>
          </g>
        </g>
        <g id="Top_Shadow_1" data-name="Top Shadow 1" class="cls-10">
          <g id="LINE-6">
            <path class="cls-2" d="M185.44,239.79c23.96-9.74,43.3-28.28,54.04-51.81h-2.66c-7.55,12.38-18.28,22.52-31.06,29.37-10.03,7.43-21.35,12.94-33.38,16.27,6.75-.38,13.43-1.53,19.91-3.44-12.53,5.19-26.05,7.53-39.59,6.85-16.19,1.19-32.44-1.51-47.37-7.89h0c23.94,14.9,53.13,18.78,80.12,10.65l49.92-43.77"/>
          </g>
        </g>
      </g>
      <g id="Top_Shadows" data-name="Top Shadows">
        <g id="Top_Shadow_2-2" data-name="Top Shadow 2-2" class="cls-11">
          <g id="LINE-7">
            <path class="cls-2" d="M192.24,61.05c-24.34-7.19-50.6-3.51-72.03,10.08,13.43-5.59,27.99-7.91,42.49-6.76,29.99-1.73,58.5,13.22,74.14,38.87h1.51c-9.95-19.04-26.27-33.97-46.11-42.19Z"/>
          </g>
        </g>
        <g id="Top_Shadow_1-2" data-name="Top Shadow 1-2" class="cls-10">
          <g id="LINE-8">
            <path class="cls-2" d="M185.44,51.43c23.97,9.74,43.3,28.27,54.04,51.81h-2.66c-7.55-12.38-18.27-22.52-31.06-29.37-10.03-7.43-21.35-12.94-33.38-16.27,6.75.38,13.43,1.53,19.91,3.43-12.55-5.19-26.09-7.53-39.65-6.85-16.17-1.17-32.4,1.54-47.31,7.89h0c23.94-14.89,53.13-18.77,80.12-10.64l49.92,43.77"/>
          </g>
        </g>
      </g>
    </g>
  </g>
</svg>