<?xml version="1.0" encoding="UTF-8"?>
<svg id="Layer_1" data-name="Layer 1" xmlns="http://www.w3.org/2000/svg" viewBox="0 0 313.63 297.19">
  <polygon points="225.3 157.71 253.9 182.88 254.2 183.15 286.37 211.45 257.73 179.58 238.09 157.71 225.3 157.71"/>
  <g>
    <path d="M266.41,126.88c-.01,10.07-8.18,18.24-18.25,18.25h-21.38l12.38,13.79h-12.51l-13.89-12.23-.86-.75v-12.13h36.25c.9,0,1.8-.17,2.63-.52,1.7-.71,3.05-2.07,3.77-3.77.69-1.69.69-3.58,0-5.28-.35-.84-.87-1.61-1.52-2.25h0c-.64-.64-1.41-1.15-2.25-1.5-.84-.35-1.73-.52-2.64-.52h-43.83l-.74-.74-6.31-6.3-4.29-4.3h55.17c2.39,0,4.76.47,6.97,1.39,4.48,1.86,8.03,5.41,9.89,9.89.92,2.21,1.39,4.58,1.39,6.97M180.77,108.62h-3.22l-.74.74-34.68,34.68-34.68-34.68-.74-.74h-16.02l4.3,4.3,43.14,43.13,2.22,2.23,1.78,1.78,1.78-1.78,2.22-2.23,32.13-32.13v33.78h11.33v-49.09h-8.82ZM121.41,151.19l-4.07-4.07-.74-.74H45.51c-.9,0-1.8-.17-2.64-.52-.84-.35-1.61-.87-2.25-1.52-1.31-1.29-2.05-3.05-2.04-4.89v-12.59c0-.9.18-1.8.52-2.64.35-.84.87-1.61,1.51-2.25h0c.65-.65,1.42-1.16,2.26-1.51.84-.35,1.73-.52,2.64-.52h45.84l-4.3-4.31-2.23-2.22-4.07-4.07-.74-.74h-34.53c-2.39,0-4.76.47-6.97,1.39-4.48,1.86-8.03,5.41-9.89,9.89-.92,2.21-1.39,4.58-1.39,6.97v12.59c0,4.84,1.93,9.48,5.35,12.9,1.7,1.69,3.71,3.04,5.93,3.96,2.21.92,4.58,1.39,6.98,1.39h82.42l-4.3-4.3-2.22-2.22Z"/>
    <path d="M39.18,181.87c.05,1.29-.54,2.53-1.58,3.3-1.05.8-2.51,1.2-4.36,1.2-1.85,0-3.37-.28-4.55-.83v-2.44c.77.34,1.56.61,2.38.8.77.18,1.55.28,2.34.29,1.06,0,1.85-.2,2.34-.58.49-.36.78-.95.76-1.56,0-.58-.25-1.13-.69-1.5-.47-.41-1.42-.89-2.86-1.45-1.5-.58-2.55-1.25-3.16-1.99-.62-.76-.95-1.72-.92-2.7-.05-1.21.5-2.37,1.46-3.11.97-.75,2.28-1.13,3.92-1.13,1.61.01,3.21.35,4.68.99l-.86,2.1c-1.23-.54-2.56-.84-3.9-.88-.87,0-1.53.18-1.98.54-.44.35-.69.88-.67,1.44-.01.36.08.73.26,1.04.23.34.53.62.89.83.71.4,1.46.75,2.23,1.03.93.34,1.82.79,2.65,1.35.53.36.96.85,1.25,1.41.27.58.41,1.21.39,1.85"/>
    <path d="M67.74,170.39v10.2c.02,1.07-.25,2.13-.78,3.06-.53.88-1.32,1.59-2.26,2.01-1.11.5-2.31.74-3.52.71-2.04,0-3.62-.52-4.75-1.55-1.13-1.04-1.69-2.46-1.69-4.27v-10.15h2.69v9.97c0,1.3.31,2.26.94,2.88.63.62,1.59.93,2.89.93,2.53,0,3.79-1.28,3.79-3.83v-9.96h2.68Z"/>
    <path d="M87.15,179.85v6.29h-2.68v-15.76h4.64c2.12,0,3.68.38,4.7,1.14,1.02.76,1.53,1.91,1.53,3.45,0,1.96-1.06,3.36-3.18,4.2l4.63,6.97h-3.05l-3.92-6.29h-2.66ZM87.15,177.72h1.86c1.25,0,2.16-.22,2.72-.67s.84-1.11.84-1.98-.3-1.53-.91-1.92-1.52-.58-2.74-.58h-1.78v5.15Z"/>
    <path d="M118.4,177.6h6.03v7.92c-.93.3-1.88.52-2.84.67-.98.13-1.96.2-2.94.19-2.48,0-4.4-.71-5.75-2.12-1.35-1.41-2.02-3.41-2.02-5.99s.76-4.52,2.28-5.96c1.52-1.44,3.61-2.15,6.28-2.15,1.67,0,3.33.31,4.87.95l-.94,2.15c-1.25-.57-2.62-.87-4-.88-1.75,0-3.14.53-4.16,1.58-1.02,1.05-1.53,2.5-1.53,4.33,0,1.93.46,3.39,1.37,4.39.92,1,2.23,1.5,3.96,1.5.94,0,1.87-.11,2.78-.31v-4.07h-3.39v-2.21Z"/>
    <rect x="140.9" y="170.39" width="2.68" height="15.76"/>
    <path d="M167.42,172.37c-1.54,0-2.76.52-3.64,1.57-.89,1.05-1.33,2.5-1.32,4.35,0,1.93.43,3.4,1.28,4.39s2.08,1.49,3.69,1.49c.68,0,1.35-.06,2.02-.2.65-.14,1.33-.3,2.03-.52v2.22c-1.4.48-2.87.72-4.36.7-2.4,0-4.24-.7-5.53-2.1-1.29-1.4-1.93-3.4-1.93-5.99-.03-1.49.29-2.96.94-4.3.59-1.2,1.54-2.18,2.71-2.83,1.28-.68,2.72-1.02,4.16-.98,1.61-.02,3.2.33,4.65,1.02l-.97,2.14c-.57-.26-1.16-.48-1.76-.66-.63-.19-1.29-.29-1.95-.29"/>
    <path d="M197.72,186.15l-1.64-4.39h-6.27l-1.61,4.39h-2.82l6.14-15.83h2.93l6.14,15.83h-2.86ZM195.38,179.55l-1.54-4.3c-.11-.29-.27-.74-.47-1.36-.2-.62-.34-1.07-.41-1.36-.23.98-.53,1.95-.89,2.9l-1.48,4.11h4.78Z"/>
    <polygon points="215.26 186.15 215.26 170.39 217.94 170.39 217.94 183.94 224.89 183.94 224.89 186.15 215.26 186.15"/>
  </g>
</svg>