<?xml version="1.0" encoding="UTF-8"?>
<svg id="Layer_1" data-name="Layer 1" xmlns="http://www.w3.org/2000/svg" viewBox="0 0 313.63 297.19">
  <defs>
    <style>
      .cls-1 {
        fill: #770f00;
      }

      .cls-2 {
        fill: #706f6f;
      }

      .cls-3 {
        fill: #e30613;
      }
    </style>
  </defs>
  <path class="cls-1" d="M211.37,124.07l-9.46,14.4c30.71,22.56,45.36,55.45,33.28,79.97-2.99,6.06-7.38,11.12-12.84,15.16,11.8-4.69,21.06-12.39,26.26-22.95,12.97-26.34-3.4-61.95-37.23-86.59Z"/>
  <path class="cls-3" d="M211.57,123.76l-.2.31c33.82,24.63,50.2,60.25,37.22,86.58-15.42,31.3-66.46,37.63-113.99,14.13-47.53-23.5-73.57-67.92-58.14-99.22,14.48-29.4,60.39-36.76,105.3-18.08l.02-.05c-54.87-23.57-111.37-14.98-129.01,20.83-18.58,37.7,12.95,91.3,70.42,119.7,57.47,28.41,119.11,20.87,137.69-16.84,16.15-32.78-5.58-77.57-49.3-107.38Z"/>
  <path class="cls-1" d="M181.8,106.58c-44.91-18.68-90.86-11.32-105.34,18.08-5.21,10.57-5.59,24.36-2.12,36.6-.12-6.81,1.13-15.13,4.12-21.2,13.49-27.38,55.53-34.61,96.42-17.71l6.92-15.78Z"/>
  <path class="cls-2" d="M239.29,45.49l-10.24-13.48h-14.49s-77.48,176.4-77.48,176.4l2.59,3.8,3.29-.12L239.29,45.49Z"/>
</svg>