<svg width="71" height="30" viewBox="0 0 71 30" fill="none" xmlns="http://www.w3.org/2000/svg">
<path d="M0.470772 28.3741C0.357681 28.2979 0.282288 28.159 0.282288 27.9954C0.282288 27.7175 0.495164 27.5024 0.756824 27.5024C0.881002 27.5024 0.994093 27.5539 1.05618 27.6167C1.88108 28.3248 2.70597 28.6655 3.81914 28.6655C4.9944 28.6655 5.77051 28.0335 5.77051 27.1617V27.1371C5.77051 26.3146 5.33367 25.8485 3.49539 25.4563C1.48193 25.0148 0.557252 24.356 0.557252 22.9038V22.8791C0.557252 21.4897 1.7702 20.4656 3.4333 20.4656C4.58416 20.4656 5.42237 20.7569 6.22287 21.3373C6.32266 21.4135 6.43575 21.5525 6.43575 21.7407C6.43575 22.0052 6.22287 22.2203 5.96121 22.2203C5.84812 22.2203 5.76164 22.1956 5.67294 22.1329C4.93452 21.5883 4.22272 21.362 3.40891 21.362C2.27135 21.362 1.54624 21.994 1.54624 22.7895V22.8142C1.54624 23.6478 1.99639 24.1162 3.92336 24.533C5.87473 24.9633 6.77502 25.6827 6.77502 27.0362V27.0609C6.77502 28.5781 5.52437 29.5641 3.78588 29.5641C2.51084 29.5641 1.44646 29.1607 0.470772 28.3764V28.3741Z" fill="white"/>
<path d="M9.27631 25.732V21.0304C9.27631 20.7525 9.50249 20.5239 9.76415 20.5239C10.0258 20.5239 10.2653 20.7525 10.2653 21.0304V25.6693C10.2653 27.5786 11.2787 28.6521 12.9418 28.6521C14.6049 28.6521 15.5806 27.666 15.5806 25.732V21.0304C15.5806 20.7525 15.8067 20.5239 16.0817 20.5239C16.3567 20.5239 16.5695 20.7525 16.5695 21.0304V25.6558C16.5695 28.2353 15.106 29.5731 12.9174 29.5731C10.7287 29.5731 9.27852 28.233 9.27852 25.7298L9.27631 25.732Z" fill="white"/>
<path d="M19.5321 21.0931C19.5321 20.8153 19.7583 20.5867 20.0199 20.5867H23.2973C24.3728 20.5867 25.2354 20.9161 25.7853 21.4719C26.2111 21.9021 26.4617 22.5207 26.4617 23.2154V23.24C26.4617 24.6944 25.486 25.5393 24.1222 25.806L26.2976 28.6364C26.3973 28.7507 26.4594 28.8627 26.4594 29.0039C26.4594 29.2684 26.2089 29.4969 25.9583 29.4969C25.7587 29.4969 25.6079 29.3827 25.4948 29.2325L23.0312 25.9965H20.5166V28.9927C20.5166 29.2706 20.2905 29.4992 20.0155 29.4992C19.7405 29.4992 19.5276 29.2706 19.5276 28.9927V21.0931H19.5321ZM23.2086 25.1001C24.5214 25.1001 25.4594 24.4166 25.4594 23.2804V23.2557C25.4594 22.1688 24.6345 21.5122 23.2197 21.5122H20.5189V25.1023H23.2086V25.1001Z" fill="white"/>
<path d="M28.8121 25.0373V25.0127C28.8121 22.5857 30.575 20.4365 33.2027 20.4365C34.5288 20.4365 35.3913 20.7906 36.1918 21.3845C36.3049 21.4719 36.3914 21.6108 36.3914 21.7879C36.3914 22.0657 36.1652 22.2943 35.9036 22.2943C35.7905 22.2943 35.6907 22.2428 35.5909 22.1688C34.9656 21.6892 34.2649 21.3598 33.165 21.3598C31.2269 21.3598 29.8388 23.0159 29.8388 24.988V25.0127C29.8388 27.1237 31.1759 28.6902 33.3025 28.6902C34.3026 28.6902 35.2295 28.298 35.8282 27.805V25.6065H33.4777C33.2404 25.6065 33.0408 25.4049 33.0408 25.1651C33.0408 24.9118 33.2404 24.7101 33.4777 24.7101H36.2916C36.5533 24.7101 36.7795 24.9387 36.7795 25.2166V27.9081C36.7795 28.1479 36.6664 28.363 36.4424 28.5154C35.6419 29.1092 34.5664 29.5888 33.2648 29.5888C30.5129 29.5888 28.8121 27.5674 28.8121 25.0396V25.0373Z" fill="white"/>
<path d="M39.7177 21.0304C39.7177 20.7525 39.9438 20.5239 40.2055 20.5239C40.4672 20.5239 40.7066 20.7525 40.7066 21.0304V28.9927C40.7066 29.2706 40.4805 29.4992 40.2055 29.4992C39.9305 29.4992 39.7177 29.2706 39.7177 28.9927V21.0304Z" fill="white"/>
<path d="M43.5073 25.0373V25.0127C43.5073 22.5095 45.3589 20.4365 47.9356 20.4365C49.3481 20.4365 50.2484 20.9049 51.0622 21.5862C51.162 21.6736 51.2618 21.8147 51.2618 21.9895C51.2618 22.254 51.0245 22.4826 50.7606 22.4826C50.6231 22.4826 50.51 22.4198 50.4346 22.3683C49.7583 21.761 48.9955 21.3576 47.92 21.3576C45.982 21.3576 44.5318 22.9509 44.5318 24.9858V25.0104C44.5318 27.0587 45.9953 28.6633 47.92 28.6633C49.0088 28.6633 49.7716 28.2846 50.5211 27.5898C50.5965 27.5136 50.7096 27.4509 50.8338 27.4509C51.0844 27.4509 51.3083 27.6772 51.3083 27.9305C51.3083 28.0829 51.2329 28.2084 51.1464 28.2846C50.2838 29.0801 49.3326 29.5866 47.8956 29.5866C45.3699 29.5866 43.5051 27.5764 43.5051 25.0373H43.5073Z" fill="white"/>
<path d="M53.2131 28.7776L56.7655 20.9295C56.8896 20.6516 57.0781 20.488 57.3908 20.488H57.4418C57.7411 20.488 57.9429 20.6516 58.0538 20.9295L61.6062 28.7663C61.6439 28.8537 61.6683 28.9434 61.6683 29.0196C61.6683 29.284 61.4554 29.4992 61.1937 29.4992C60.9565 29.4992 60.7946 29.3356 60.7059 29.1316L59.7923 27.0968H54.9893L54.0757 29.1563C53.9892 29.3714 53.8251 29.4969 53.6011 29.4969C53.3506 29.4969 53.151 29.2952 53.151 29.042C53.151 28.9658 53.1643 28.8784 53.2131 28.7776ZM59.4042 26.1869L57.3908 21.6623L55.3773 26.1869H59.4042Z" fill="white"/>
<path d="M64.1829 21.0304C64.1829 20.7525 64.4091 20.5239 64.6708 20.5239C64.9324 20.5239 65.1719 20.7525 65.1719 21.0304V28.5131H69.7111C69.9616 28.5131 70.1612 28.7283 70.1612 28.9815C70.1612 29.2347 69.9616 29.4364 69.7111 29.4364H64.6708C64.4091 29.4364 64.1829 29.2079 64.1829 28.93V21.0304Z" fill="white"/>
<path d="M19.0731 8.32835V8.28577C19.0731 4.24746 22.0755 0.713379 26.4838 0.713379C30.8921 0.713379 33.8524 4.20712 33.8524 8.24543V8.28801C33.8524 12.3263 30.85 15.8604 26.4417 15.8604C22.0334 15.8604 19.0731 12.3667 19.0731 8.32835ZM32.1561 8.32835V8.28577C32.1561 4.9601 29.7546 2.23951 26.4439 2.23951C23.1332 2.23951 20.7716 4.91752 20.7716 8.24319V8.28577C20.7716 11.6114 23.1731 14.332 26.4838 14.332C29.7945 14.332 32.1561 11.654 32.1561 8.32835Z" fill="white"/>
<path d="M37.702 8.32835V8.28577C37.702 4.24746 40.7044 0.713379 45.1127 0.713379C49.521 0.713379 52.4814 4.20712 52.4814 8.24543V8.28801C52.4814 12.3263 49.4789 15.8604 45.0706 15.8604C40.6623 15.8604 37.702 12.3667 37.702 8.32835ZM50.785 8.32835V8.28577C50.785 4.9601 48.3835 2.23951 45.0728 2.23951C41.7621 2.23951 39.4005 4.91752 39.4005 8.24319V8.28577C39.4005 11.6114 41.8021 14.332 45.1127 14.332C48.4234 14.332 50.785 11.654 50.785 8.32835Z" fill="white"/>
<path d="M56.9739 1.7174C56.9739 1.27816 57.3465 0.901666 57.7811 0.901666H58.0095C58.382 0.901666 58.6104 1.08991 58.8366 1.38349L67.6333 12.723V1.67706C67.6333 1.23782 67.9859 0.861328 68.4404 0.861328C68.895 0.861328 69.2276 1.23782 69.2276 1.67706V14.899C69.2276 15.3383 68.9172 15.6722 68.4826 15.6722H68.4005C68.0479 15.6722 67.7996 15.4638 67.5512 15.1702L58.5683 3.55951V14.899C58.5683 15.3383 58.2157 15.7148 57.7611 15.7148C57.3066 15.7148 56.9739 15.3383 56.9739 14.899V1.71964V1.7174Z" fill="white"/>
<path d="M13.383 0.881348H13.0925C12.5847 0.881348 12.2588 1.25336 12.1257 1.56486L7.4868 13.0837L2.84787 1.56486C2.7126 1.25336 2.38885 0.881348 1.88105 0.881348H1.59057C0.887631 0.881348 0.552795 1.49539 0.552795 1.93462V14.8765C0.552795 15.3359 0.905372 15.6922 1.33999 15.6922C1.77462 15.6922 2.14715 15.3359 2.14715 14.8765V3.95602C2.14715 3.95602 6.56655 14.928 6.6863 15.2283C6.8016 15.5129 7.13644 15.6945 7.41584 15.6945C7.42471 15.6945 7.4868 15.6945 7.4868 15.6945C7.4868 15.6945 7.54889 15.6945 7.55776 15.6945C7.83716 15.6945 8.172 15.5129 8.2873 15.2283C8.40926 14.928 12.8265 3.95602 12.8265 3.95602V14.8765C12.8265 15.3359 13.179 15.6922 13.6336 15.6922C14.0882 15.6922 14.4208 15.3359 14.4208 14.8765V1.93462C14.4208 1.49539 14.086 0.881348 13.383 0.881348Z" fill="white"/>
</svg>
