<?xml version="1.0" encoding="UTF-8"?>
<svg id="Layer_1" data-name="Layer 1" xmlns="http://www.w3.org/2000/svg" xmlns:xlink="http://www.w3.org/1999/xlink" viewBox="0 0 313.63 297.19">
  <defs>
    <style>
      .cls-1 {
        fill: #1c2c4e;
      }

      .cls-2 {
        fill: url(#linear-gradient);
      }
    </style>
    <linearGradient id="linear-gradient" x1="5591.59" y1="6460.85" x2="5827.75" y2="6460.85" gradientTransform="translate(-5552.86 6607.49) scale(1 -1)" gradientUnits="userSpaceOnUse">
      <stop offset="0" stop-color="#36a9e1"/>
      <stop offset=".99" stop-color="#95c11f"/>
    </linearGradient>
  </defs>
  <path class="cls-1" d="M252.65,74.9H68.76v147.4h183.9V74.9Z"/>
  <path class="cls-2" d="M40.85,194.4c-.68.24-1.39.38-2.12.44,3.67-1.31,7.26-2.84,10.74-4.58,8.99-4.64,17.33-10.46,24.81-17.31,7.21-6.17,11.78-10.8,20.33-19.37,15.65-15.74,23.43-24.6,39.97-38.83,1.54-1.31,24.04-20.24,42.09-16.95,3.13.4,6.11,1.59,8.68,3.44,11.42,8.67,9.37,24.5,8.89,28.69-.87,7.12-2.69,12.76-4.45,24.86-1.2,8.43-1.49,14.79,2.4,18.96.92.91,1.96,1.69,3.1,2.3,4.95,2.42,14.71-4.84,14.71-4.84,15.38-11.55,38.7-30.34,58.94-39.56,0,0,5.53-2.42,5.91-1.86.67,1.23-10.86,4.6-30.12,24.21-8.63,8.86-15.43,15.25-22.69,21.79-3.05,2.91-28.29,26-42.26,18.62-7.81-4.12-9.18-16.61-10.07-25.86-2.4-24.55,9.25-41.79,0-50.34-.8-.75-1.71-1.39-2.69-1.89-9.81-4.72-22.09,8.93-72.4,49.92-15.96,12.79-34.23,22.35-53.79,28.16Z"/>
</svg>