<?xml version="1.0" encoding="UTF-8"?>
<svg id="Layer_1" data-name="Layer 1" xmlns="http://www.w3.org/2000/svg" viewBox="0 0 1322.14 326.81">
  <defs>
    <style>
      .cls-1 {
        fill: none;
        stroke: #000;
        stroke-miterlimit: 10;
        stroke-width: 5px;
      }
    </style>
  </defs>
  <path d="M37.46,277.54v-4.98l2.33-4.64c8.78-4.01,18.28-3.4,18.28-17.55l-.04-103.78c0-4.67-2.46-10.87-6.34-12.28l-14.22-5.15v-9.96l55.1-.17.47,15.37c8.34-4.92,14.63-10.37,22.82-13.94,14.51-6.31,31.21-6.26,46.14-1.03,16.29,5.71,27.42,20.14,27.5,37.68l.44,94.08c.02,4.71,2.03,10.7,6.07,12.45,4.53,1.97,9.27,2.33,13.07,5.53,1.68,1.42,1.08,7.15-.18,8.82l-61.33-.02c-.24-4.98-.52-9.88.39-13.77l7.41-8.89-.13-100.13c0-7.76-4.02-15.66-10.52-19.06-10.82-5.65-24.17-3.71-33.78,3.51-6.53,4.91-12.05,10.08-18.18,15.75l.09,94.02c0,4.21,1.61,11.48,5.31,13.12l14.69,6.5c.38,2.76.29,6.34-.15,8.9l-75.23-.39Z"/>
  <path d="M361.46,282.52h-7c-1.12-2.14-8.87.48-15.15-4.73-5.21-4.32-8.57-9.14-12.32-15.16l-8.02,6.61c-9.41,7.75-20.04,11.46-31.51,13.29h-10c-15.86-1.44-31.81-4.6-41.98-18.12-12.05-16.02-8.43-37.91,6.24-51.48,21.42-19.82,54.77-26.6,82.59-34.04l-.03-23.77c-.02-17.19-14.14-28.19-30.92-26.95-7.9.58-16.74,2.21-20.4,9.88,5.09,2.79,8.35,7.85,8.56,14.07.25,7.48-3.07,14.1-10.42,16.85-11.84,4.43-27.89.78-29.71-12.97-2.42-18.24,13.33-30.88,29.03-36.01,19.06-6.22,39.44-5.99,58.28.97,21.79,8.04,30.14,29.02,30.17,51.09l.12,80.14c0,4.96,3.35,8.87,7.64,9.68,9.63,1.83,11.56-8.32,14-15.68l7.88,4.37c-3.23,19.39-7.94,28.75-27.04,31.96ZM308.13,262.18c5.85-5.15,11.19-10.47,16.3-16.47l-.13-52.57c-16.06,2.03-30.52,8.7-42.6,18.78-13.11,10.94-17.59,28.14-11.41,43.8,3.09,7.05,9.15,11.37,16.73,12.22,7.75.87,14.92-1.08,21.11-5.76Z"/>
  <path d="M665.46,282.52h-15c-11.37-2.28-22.62-5.33-32.43-12.44-14.15-10.26-23.98-24.58-28.57-41.56-9.93-36.71-1.98-83.11,33.71-103.63,21.22-12.2,47.75-12.47,69.17-.54,35.84,19.96,43.98,65.78,34.88,102.92-3.07,12.51-9.04,23.25-17.36,32.73-11.76,13.41-27.37,20-44.4,22.53ZM690.98,229.47c3.33-24.69,3.9-65.54-8.05-87.62-4.74-8.75-12.72-12.96-22.38-13.7-25.51-1.94-33.34,19.79-35.84,40.98-2.91,24.68-3.49,63.26,7.24,85.71,4.4,9.22,12.47,13.93,22.21,15.07,25.2,2.94,34.01-19.58,36.82-40.44Z"/>
  <path class="cls-1" d="M1040.46,282.52h-8c-31.6-2.27-58.54-19.7-69.15-50.97-12.32-36.3-3.88-87.63,33.26-107.33,21.64-11.48,47.76-11.55,69.53-.58,25.71,12.96,36.23,44.59,35.51,72.51l-104.7.04c.71,28.3,4.76,74.83,44.37,71.97,26.57-1.91,37.05-17.61,45.07-41.15l13.7,5.23c-9.14,32.01-28.65,47.01-59.58,50.28ZM1063.07,181.89c-.09-13.65-1.19-25.26-5.98-36.44-4.56-10.57-14.01-17.06-25.62-16.37-28.77-.81-34.22,31.04-34.51,52.88l66.11-.06Z"/>
  <path d="M457.99,249.43c0,4.57,1.7,11.5,5.22,13.05l14.16,6.25c1.45,1.89,1.25,6.81.3,9.2l-74.14-.02c-.58-2.89-.77-6.84.12-9.13l13.56-5.72c3.6-1.52,5.98-7.34,5.98-11.74l.07-102.24c0-4.49-1.11-11.46-4.73-13.7-4.71-2.92-10.02-3.6-15.42-5.91-.45-3.17-.48-6.72-.23-10.39l54.83-.02.42,15.4c7.69-4.72,13.8-9.69,21.46-13.34,15.2-7.24,33.19-7.14,48.94-1.15,15.61,5.94,26.03,20.17,26.11,37.12l.43,93.92c.02,3.97,1.85,10.77,5.3,12.11l14.68,5.71-.3,9.15-62.22-.04v-11.44c.01-5.28,8.07-6.81,8.05-14.89l-.2-96.51c-.02-7.73-4.08-15.63-10.57-19.01-10.88-5.66-24.22-3.68-33.85,3.59-6.51,4.91-12.02,10.09-18.09,15.67l.1,94.07Z"/>
  <path class="cls-1" d="M1283.57,268.44c1.74,1.13,1,6.65.62,9.52l-79.13.04c-1.34-1.89-1.57-7-.38-9.14l12.37-4.92c1.61-.64,3.89-2.68,4.05-4.14.84-7.86-23.42-35.02-29.61-43.96l-27.21,35.65c-1.28,1.68-2.15,5.42-2.06,7.47s2.89,4.54,5.13,5.37l10.83,4.04.2,9.58-66.4.04c-.57-2.02-1.32-7.31.13-8.97,2.06-2.37,6.43-3.3,9.52-4.3,9.56-3.77,17.68-9.66,24.2-17.78l35.53-44.25-43.93-58.52c-5.46-7.27-12.24-11.43-21.57-13.46-1.15-3.26-1.25-6.9-.45-10.7h75.48c.97,2.96,1.03,7.39.26,10.52l-10.79,2.85c-1.39.37-3.7,1.77-4.22,2.95-2.85,6.45,21.02,33.41,26.38,41.23,9.07-10.4,17.5-20.14,25.24-31.02,2.4-3.37,2.81-7.06,1.32-10.76l-14.98-5.58c-.37-2.63-.38-6.54-.15-10.18l63.84-.02c1.34,1.71,1.97,7.91-.01,9.25-2.57,1.73-5.85,2.68-8.66,3.61-6.89,1.7-12.28,5.59-16.93,11.09l-39.45,46.66,46.93,62.69c3.79,5.06,8.32,8.5,14.27,10.76,2.74,1.05,6.73,2.48,9.62,4.37Z"/>
  <path class="cls-1" d="M809.47,244.59c0,10.22,2.14,18.66,12.06,20.78,4.69,1,8.8,2.15,13.6,3.7.25,3.14.2,6.04-.29,9l-82.65-.03c-1.38-2.13-1.83-8.38.36-9.17l16.51-5.99c4.03-1.46,5.88-8.45,5.88-13.1l.11-115.51-25.67-.16c-.44-2.76-1.12-7.51.56-9.55,3.04-3.71,18.12-2.78,24.61-7.46,1.78-21.87,2.53-50.98,21.89-64.74,9.45-6.72,20.67-7.86,32.05-8.06,11.39-.2,22.42,1.5,31.56,8.46,12.17,9.27,13.14,27.42,3.4,35.26-4.74,3.81-10.57,4.13-16.37,2.88-6.57-1.42-11-6.48-10.88-12.98s5.24-10.37,12.81-12.63c-4.26-9.99-20.55-9.96-29.21-7.33-5.65,1.72-10.19,7.16-10.21,13.43l-.15,48.48,34.37.18.2,14-34.52.16v110.36Z"/>
  <path class="cls-1" d="M944.18,277.97h-74.08c-1.36-1.34-1.97-7.84.02-8.76l12.27-5.69c4.45-2.06,6.84-5.92,7-11V48.27s34.55-.02,34.55-.02l.03,205.06c0,5.07,3.58,9,7.79,10.75l12.33,5.13.08,8.79Z"/>
</svg>