<?xml version="1.0" encoding="UTF-8"?>
<svg id="Layer_1" data-name="Layer 1" xmlns="http://www.w3.org/2000/svg" viewBox="0 0 313.63 297.19">
  <defs>
    <style>
      .cls-1 {
        fill: #090324;
      }
    </style>
  </defs>
  <path class="cls-1" d="M219.86,59.71c-30.3,0-54.94,24.6-54.94,54.85s24.64,54.85,54.94,54.85c9.59,0,18.63-2.47,26.49-6.82,2.8,4.12,7.53,6.82,12.9,6.82,8.61,0,15.58-6.96,15.58-15.56v-39.29c0-30.25-24.64-54.85-54.94-54.85h-.02ZM219.86,138.33c-13.11,0-23.78-10.65-23.78-23.74s10.67-23.74,23.78-23.74,23.78,10.65,23.78,23.74-10.67,23.74-23.78,23.74Z"/>
  <path class="cls-1" d="M93.75,59.71c-14.67,0-28.48,5.7-38.86,16.06-10.38,10.36-16.08,24.15-16.08,38.79v75.12c0,8.59,6.98,15.56,15.58,15.56s15.58-6.96,15.58-15.56v-25.68c7.36,3.54,15.41,5.43,23.78,5.43,30.3,0,54.94-24.6,54.94-54.85s-24.64-54.85-54.94-54.85v-.02ZM93.75,138.33c-5.27,0-10.28-1.7-14.45-4.88-5.94-4.55-9.35-11.41-9.35-18.86,0-6.34,2.47-12.3,6.98-16.8,4.51-4.5,10.48-6.96,16.83-6.96,13.11,0,23.78,10.65,23.78,23.74s-10.67,23.74-23.78,23.74v.02Z"/>
  <path class="cls-1" d="M186.8,190.99c-.22-1.01-.7-1.94-1.32-2.73-4.17-5.22-12.87-5.15-18.75-3.83-3.45.77-6.71,2.63-10.28,2.8-3.57-.17-6.83-2.03-10.28-2.8-5.87-1.32-14.6-1.39-18.74,3.83-.65.79-1.1,1.72-1.32,2.73-.91,4.16,2.13,7.73,5.35,9.93,3.81,2.61,8.39,3.64,12.7,5.19,2.47.89,4.84,2.15,6.42,4.28,3.09,4.12.7,9.17-3.52,11.25-2.73,1.36-5.75,1.6-8.75,1.82-2.47.17-5.01.62-6.06,3.18-3.04,7.3,10.24,9.24,14.77,10.03,6.26,1.08,12.68,1.08,18.91,0,4.53-.79,17.81-2.7,14.77-10.03-1.05-2.56-3.6-2.99-6.06-3.18-3-.22-6.02-.45-8.75-1.82-4.22-2.11-6.62-7.13-3.52-11.25,1.61-2.13,3.98-3.4,6.42-4.28,4.29-1.53,8.87-2.58,12.7-5.19,3.21-2.2,6.26-5.77,5.35-9.93h-.02Z"/>
</svg>