<?xml version="1.0" encoding="UTF-8"?>
<svg id="Layer_1" data-name="Layer 1" xmlns="http://www.w3.org/2000/svg" viewBox="0 0 313.63 297.19">
  <path d="M115.39,161.76v-69.46c0-19.14,6.35-24.66,6.35-24.66l-34.56,19.96c-12.46,7.34-11.38,22.68-11.38,22.68v73.75c0,2.14,1.32,2.72,1.32,2.72l77.46,41.33,79.85,42.65v-43.23l-38.44-21.28-40.83-22.52-39.76-21.94Z"/>
  <path d="M154.58,51.8c-8.58,0-39.02,19.3-40.09,20.05l-27.22,15.76c-10.56,6.19-11.47,18.07-11.47,21.61v39.6c.49-11.71,32.09-28.54,38.52-31.84v.08l40.17-23.51,41.08,23.43v-45.7s-32.34-19.47-41-19.47Z"/>
  <path d="M223.46,87.43l-34.48-19.96s6.35,5.61,6.35,24.66v69.46l-40.09,22.19,40.83,22.52,37.53-19.72s1.32-.5,1.32-2.72v-73.75s.99-15.34-11.47-22.68Z"/>
</svg>