<?xml version="1.0" encoding="UTF-8"?>
<svg id="Layer_1" data-name="Layer 1" xmlns="http://www.w3.org/2000/svg" viewBox="0 0 103.83 84.09">
  <defs>
    <style>
      .cls-1 {
        fill: none;
        stroke: #ea0303;
        stroke-miterlimit: 10;
        stroke-width: 9px;
      }

      .cls-2 {
        fill: #44a5d6;
      }

      .cls-3 {
        fill: #084679;
      }
    </style>
  </defs>
  <path class="cls-3" d="M72.13,75.18l-24.15-34.28,23.81-.15c2.27-.01,6.25-1.01,7.78-2.28,3.4-2.82,2.54-13.95.76-16.37-.91-1.25-3.73-2.64-5.61-2.65l-30.94-.12-.24,15.28L23.77,6.51l55.36-.14c8.37-.02,15.12,5.07,16.93,13.48,1.24,5.79,1.29,12.49.13,18.32-1.69,8.5-8.64,13.69-16.99,13.73-2.55.01-4.62.13-7.22.31l16.2,22.88-16.05.1Z"/>
  <rect class="cls-1" x="-129.83" y="-280.13" width="506.3" height="506.3"/>
  <polygon class="cls-2" points="65.74 75.18 50.85 75.18 3.23 6.73 19.06 6.73 65.74 75.18"/>
</svg>