<?xml version="1.0" encoding="UTF-8"?>
<svg id="Layer_1" data-name="Layer 1" xmlns="http://www.w3.org/2000/svg" viewBox="0 0 34.85 30.07">
  <defs>
    <style>
      .cls-1 {
        fill: none;
        stroke: #ea0303;
        stroke-miterlimit: 10;
        stroke-width: 9px;
      }

      .cls-2 {
        fill: #48b6c2;
      }

      .cls-3 {
        fill: #f4ba45;
      }
    </style>
  </defs>
  <g>
    <polygon class="cls-2" points="16.38 13.96 10.77 13.99 10.75 8.37 16.37 8.36 16.38 13.96"/>
    <polygon class="cls-2" points="24.1 13.96 18.49 13.99 18.47 8.37 24.09 8.36 24.1 13.96"/>
    <polygon class="cls-2" points="16.38 21.67 10.76 21.71 10.75 16.12 16.37 16.11 16.38 21.67"/>
    <polygon class="cls-2" points="24.1 21.67 18.49 21.71 18.48 16.12 24.09 16.11 24.1 21.67"/>
  </g>
  <g>
    <path class="cls-3" d="M31.69,13.94l-5.49.04.02-5.62h3.85c.91,1.68,1.45,3.48,1.63,5.59Z"/>
    <path class="cls-3" d="M8.65,13.95l-5.48.03c.11-1.97.67-3.85,1.59-5.62h3.86s.02,5.59.02,5.59Z"/>
    <path class="cls-3" d="M24.1,6.24l-5.61.02V.79c1.95.11,3.8.66,5.59,1.58l.02,3.87Z"/>
    <path class="cls-3" d="M24.11,27.66c-1.72.96-3.6,1.47-5.63,1.64v-5.48s5.6,0,5.6,0l.03,3.85Z"/>
    <path class="cls-3" d="M16.38,6.24l-5.6.02-.04-3.87c1.71-.93,3.61-1.47,5.63-1.62v5.46Z"/>
    <path class="cls-3" d="M30.09,21.69h-3.88s0-5.6,0-5.6l5.48.02c-.16,2.01-.68,3.81-1.6,5.59Z"/>
    <path class="cls-3" d="M16.37,29.27c-2.01-.09-3.84-.67-5.61-1.57v-3.88s5.61,0,5.61,0v5.46Z"/>
    <path class="cls-3" d="M8.66,21.66l-3.88.04c-.93-1.71-1.46-3.59-1.62-5.6l5.46-.03.04,5.58Z"/>
    <path class="cls-3" d="M28.64,6.19c-.83.15-1.62.05-2.45.05l.04-2.45c.94.7,1.67,1.43,2.41,2.4Z"/>
    <path class="cls-3" d="M28.62,23.86c-.61.92-1.43,1.67-2.39,2.43-.07-.85-.04-1.63-.02-2.47.81.02,1.43-.07,2.4.05Z"/>
    <path class="cls-3" d="M8.65,6.23c-.86.06-1.58.05-2.48,0,.73-.96,1.51-1.73,2.45-2.46l.03,2.45Z"/>
    <path class="cls-3" d="M8.63,23.81v2.48c-.95-.7-1.72-1.48-2.45-2.43l2.45-.05Z"/>
  </g>
  <rect class="cls-1" x="-217.16" y="-72.12" width="436.14" height="151.52"/>
</svg>