<?xml version="1.0" encoding="UTF-8"?>
<svg id="Layer_1" data-name="Layer 1" xmlns="http://www.w3.org/2000/svg" viewBox="0 0 83.49 71.23">
  <defs>
    <style>
      .cls-1 {
        fill: none;
        stroke: #ea0303;
        stroke-miterlimit: 10;
        stroke-width: 9px;
      }

      .cls-2 {
        fill: #0077c4;
      }
    </style>
  </defs>
  <path class="cls-2" d="M2.11,54.87v-1.99c.84-5.32,1.96-9.57,4.9-14.18s6.26-9.05,10.36-12.77l2.73-2.48c3.62-3.29,7.57-5.98,11.78-8.59,10.62-6.58,27.97-12.67,40.13-8.02,4.52,1.73,8.6,5.58,9.23,10.66,1.08,8.81-1.73,14.71-6.63,21.82-10.26,14.88-30.48,27.92-48.57,29.97-6.92.79-15.44.02-20.26-5.34-2.46-2.73-3.16-5.69-3.66-9.08ZM73.79,25.42c.23-4.15-1.3-7.99-4.81-10.31s-7.92-3.03-12.36-2.69c-16.67,1.29-35.39,12.96-43.52,27.42-2.14,3.81-3.46,7.8-2.92,12.25.59,4.81,4.38,8.33,9.16,9.42,21.4,4.9,53.43-17.95,54.44-36.1Z"/>
  <polygon class="cls-2" points="43.47 54.75 14.44 54.66 32.81 48.85 42.12 19.73 71.14 19.88 52.84 25.5 43.47 54.75"/>
  <rect class="cls-1" x="-17.18" y="-46.02" width="436.14" height="151.52"/>
</svg>