<?xml version="1.0" encoding="UTF-8"?>
<svg id="Layer_1" data-name="Layer 1" xmlns="http://www.w3.org/2000/svg" viewBox="0 0 23.3 24.98">
  <defs>
    <style>
      .cls-1 {
        fill: none;
        stroke: #ea0303;
        stroke-miterlimit: 10;
        stroke-width: 9px;
      }

      .cls-2 {
        fill: #a0a0a0;
      }

      .cls-3 {
        fill: #929292;
      }

      .cls-4 {
        fill: #ccd8d4;
      }

      .cls-5 {
        fill: #3b808b;
      }
    </style>
  </defs>
  <g>
    <path class="cls-4" d="M13.35,20.54c.31,0,.61.18.9.3.35.14.66.32.88.61.55.71.58.76.72,1.59.02.09.05.28-.06.33-.24.1-.5,0-.76,0h-5.54c-1.07,0-1.79.17-2.79-.24-.68-.29-1.25-.68-1.72-1.25-.31-.39-.58-.8-.75-1.25-.08-.17.04-.19.18-.2l.53.06c2.69-.02,5.36-.02,8.03,0l.37.04Z"/>
    <path class="cls-4" d="M13.35,20.54l-1.16-.02c-.36,0-.73.06-1.09,0-.17-.03-.33.01-.5.01h-2.73s-.61-.01-.61-.01c-.28,0-.53-.03-.8,0-.48.06-.97.01-1.47.02-.2,0-.84-.21-.74.1-.02-.05-.07-.09-.04-.15.07-.15.65-.04.78-.03.51.02,1.01.04,1.52,0l.29-.02h5.07s1.1.03,1.1.03c.14,0,.29.04.4.08Z"/>
  </g>
  <g>
    <path class="cls-4" d="M13.78,1.53c.41.12.83.23,1.15.55.16.16.31.37.35.59.14.73-.03,1.84.05,2.81.04.53,0,1.05-.01,1.58-.02.6-.42,1.44-.88,1.79-.16.12-.26.35-.46.44-.41.19-.82.36-1.23.51l-.31.04c-2.03.02-4.06.03-6.08.02-.31.03-.44-.05-.4-.24.12-.49.38-.93.68-1.36.18-.26.42-.44.65-.66.42-.4.63-.33,1.15-.58.57-.27,1.12-.31,1.75-.32.42,0,.91-.26,1.18-.57.21-.23.3-.54.42-.8.1-.23.12-.46.09-.7-.06-.39-.04-.75-.01-1.13l.04-.62c.03-.44.27-.8.67-1,.26-.13.55-.19.78-.34h.44Z"/>
    <path class="cls-4" d="M12.74,9.79c-.24.09-.48.13-.76.11s-.52,0-.81,0h-5.01c-.12,0-.18,0-.23-.08-.07-.1,0-.14.01-.22-.1.24.69.19.85.19h5.95Z"/>
  </g>
  <path class="cls-3" d="M16.79,11.1c.27,0,.54.04.79.13.16.02-.39,0-.53-.04-.36-.11-.75-.02-1.13-.04-.02-.03,0-.05.04-.05h.82Z"/>
  <path class="cls-2" d="M17.31,19.16c-.12.07-.26.03-.39.03h-.48s-.09-.01-.08-.04h.04c.31,0,.61-.01.92,0Z"/>
  <g>
    <path class="cls-5" d="M16.79,11.1c-.28.01-.57.03-.87.05,0,.04-.02.04-.04,0-.06.05-.14.06-.24.03-.69.05-1.38.07-2.08.06l-.05-.09c-.55.09-1.11.11-1.69.07-.43-.03-.8,0-1.18.16-.34-.07-.63-.03-.88.13l.02,2.36c.04.22.23.23.42.17.19,0,.37.04.55.1.79.04,1.58.06,2.37.04l.23.07.19-.08c.7,0,1.39.02,2.09.05l.24.08c.04-.17.29-.05.26.1-.1.02-.19-.04-.31-.04l-5.42-.03c-.51,0-.99.02-1.5-.04-1.58-.18-2.75-1.6-3.05-3.11-.04-.2.97-.12,1.07-.11.16.02.26-.02.42-.02h9.39s.06.02.05.04Z"/>
    <path class="cls-5" d="M17.58,11.23c.47.06.9.31,1.31.52-.01.09-.1.12-.25.09-.14-.06-.23-.03-.25.08-.14.13-.17.33-.07.58v5.82c-.04.17.08.23.36.19l.08.06c-.27.25-.65.37-1,.48-.38.13-.65.08-.86-.28-.03-1.03-.02-2.07,0-3.11-.09-.09-.08-.21.02-.35.06-.21,0-.41-.14-.5-.11-.11-.13-.29-.07-.53-.05-.35-.03-.68.03-1,.02-.31,0-.62-.06-.93,0-.17-.02-.39.14-.5-.1-.23-.12-.69.22-.68l.04-.03.49.07Z"/>
    <path class="cls-5" d="M16.09,16.15c0,.07-.07.09-.23.09-.15.09-.51.16-.6,0h-2.16c-.16.08-.32.09-.48.05l-1.03.03c-.33-.04-.63,0-.9.13.23.44-.35.62-.58.31-.06-.08,0,1.85,0,1.95-.03.15.09.2.38.13.15.02.45.11.38.3l-.04.05c-1.04.03-2.07.03-3.1,0l-.26-.08c-.57,0-.81-.22-.73-.66-.07-.31-.1-.5.09-.76-.17-.29-.23-.57-.17-.83l.11-.08c-.2-.19-.22-.31-.05-.38.13-.01.25-.04.36-.09.39-.14.83-.13,1.26-.13l1.29-.02,6.47-.02Z"/>
    <path class="cls-5" d="M16.4,19.15s-.03.02-.04,0c0,.02,0,.04-.01.04-.41.01-.86.01-1.27,0-.01,0-.02-.02-.03-.04-.48-.04-.97-.06-1.46-.08-.4-.07-.53-.13-.57-.53.03-.66.04-1.37-.01-2.01-.14-.11-.17-.2-.09-.26.78-.04,1.56-.05,2.35-.04.02,0,.72,0,.83-.09.1-.08.24-.1.35-.17.08.11-.02.17-.12.23.03.21-.09.25-.36.12l-.1.03c-.05.82-.05,1.66-.02,2.5.12.12.3.19.54.18.03.03.02.07,0,.1Z"/>
    <path class="cls-5" d="M18.89,11.75c.38.2.68.45.96.78-.05.07-.14.08-.26.02-.09.11-.16.21-.2.33.05.58.07,1.18-.03,1.75.07.22.08.41.06.63.06.24.07.44-.06.67.07.49.09.99.04,1.49,0,.1.02.18.07.25.11-.05.2-.07.29-.04-.24.39-.62.7-1,.95-.15.1-.51-.03-.51-.03-.06-.06-.01-.11-.01-.19v-5.86c0-.17-.12-.37-.01-.51.07-.09.17-.14.16-.32.21.1.35.08.51.08Z"/>
    <path class="cls-5" d="M7.07,16.32c-.03.18-.33,0-.38.16-.05.14.13.15.17.3.02.08-.13.08-.15.15-.13.37.45.75.07.97-.04.18,0,.33.04.52.02.13-.06.37.07.46.23.15.55.09.78.21.18.1.34.12.54.11l.74-.03c.25-.01.54-.04.78,0,.41.07.77-.03,1.15-.03,0-.03,0-.09.03-.09,1.36-.05,2.79.02,4.14.1h1.31c.19.02.38.03.57.04,0,.02-.01.04-.05.04l-6.78.02h-.93s-4.95-.02-4.95-.02c-.09,0-.16-.07-.18-.12-.02-.05.02-.13.03-.19.1-.44.24-.83.51-1.18.37-.47.83-.82,1.38-1.07.37-.17.73-.35,1.12-.36Z"/>
    <path class="cls-5" d="M19.84,12.54c.26.31.51.61.67,1.04.49,1.37.21,2.98-.76,4.06-.07.08-.26.13-.35.13-.22-.38,0-.84-.08-1.57-.02-.15-.1-.25,0-.4.08-.12.06-.3.02-.44-.04-.17.05-.39-.02-.54-.09-.19-.03-.29,0-.46.05-.41.03-.83,0-1.25,0-.17-.08-.29.09-.45.04-.04.1-.11.1-.17s-.07-.13-.08-.19c.02-.06.09-.03.09,0,0,.04.02.09.01.14.08.09.22.06.31.11Z"/>
    <path class="cls-5" d="M17.75,19.07c-.14.04-.28.12-.44.09-.3.02-.62.03-.92,0,.07-.06-.63,0-.64-.3l-.02-2c0-.12.06-.23.02-.36-.03-.08.03-.19.09-.22.26-.14.49.3.37-.15.15,0,.17-.09.22-.15.11-.12.21-.25.3-.39l.07-.19c.02-.19.01-.37-.03-.55.02,0,.1-.03.13,0,.15.2.13.46-.04.67.2.15.11.35.1.55-.02.33-.02.65-.02.96v1.75c.52.49.25.29.8.29Z"/>
    <path class="cls-5" d="M17.05,11.19c-.22.14-.25.41-.13.66.04.07-.09.11-.1.15-.14.36.09.71.02,1.3-.01.11-.06.2-.06.32,0,.31.06.61,0,.91-.02.14-.06.2,0,.3.04.07.04.19.07.28.06.17-.03.34-.11.46.05-.26.11-.51-.06-.77-.11-.18-.3-.33-.55-.4-.07-.02-.16-.13-.26-.1-.36.01-.33-.47-.31-.75.1-.4.1-.81,0-1.22.04-.32.08-.63.11-.94.03-.17.1-.25.21-.25,0,0,.03,0,.04,0,.28-.03.56-.04.85-.03.13-.01.22.01.28.07Z"/>
    <path class="cls-5" d="M13.51,11.16c.05.13-.06.2-.33.21-.12.1-.17.49.01.57.06.33.03.65-.11.94.01.21-.04.42-.16.63.06.14.08.29.09.44l.34.22v.11c-.83-.01-1.67.05-2.52-.02-.23-.02-.44-.18-.72-.09-.17.05-.41-.08-.41-.29l-.02-2.42c.25-.18.55-.21.84-.15.21.04.38-.13.57-.14.82-.05,1.62.02,2.42,0Z"/>
    <path class="cls-5" d="M15.88,11.15c-.09.17-.18.34-.13.56,0,.03-.16.56-.07.86s.1.55,0,.85c-.06.2,0,.46-.01.68,0,.07.15.19.2.22-.32.01-.65.02-.99-.01-.52-.05-1.03-.02-1.54-.03l-.46-.3c.13-.3-.17-.31,0-.63.06-.1.13-.25.11-.37-.03-.16.05-.23.09-.34.08-.2,0-.43.03-.65-.17-.08-.13-.17-.12-.31s0-.35.18-.39c.12-.03.26-.01.33-.12l1.75-.03c.22,0,.43-.1.62.02Z"/>
    <path class="cls-5" d="M15.26,16.23c-.63.1-1.29.02-1.96.04-.14,0-.27-.04-.39.05.35.25.15.33.2.87.03.31.02.62,0,.95-.01.21-.06.53.08.71l.41.14c.27.09,1.24.02,1.44.15h-4.17c-.44-.51-.84.1-.84-.43v-2.31c.15-.06.36-.09.47.05-.16.02-.4.13-.29.3.05.08.29.08.38.04.13-.06.03-.24.02-.34s.21-.16.29-.18l.32-.06c-.25.05,1.44,0,1.42-.01.22.06.41.01.61.02.14,0,.27,0,.41,0,.27-.03,1.34-.04,1.6.02Z"/>
  </g>
  <rect class="cls-1" x="-315.91" y="-40.59" width="436.14" height="151.52"/>
</svg>