<?xml version="1.0" encoding="UTF-8"?>
<svg id="Layer_1" data-name="Layer 1" xmlns="http://www.w3.org/2000/svg" viewBox="0 0 47.23 45.51">
  <defs>
    <style>
      .cls-1 {
        fill: none;
        stroke: #ea0303;
        stroke-miterlimit: 10;
        stroke-width: 9px;
      }

      .cls-2 {
        fill: #ff7a00;
      }
    </style>
  </defs>
  <path class="cls-2" d="M33.69,3.66c5.33-1.13,9.71,2.43,10.7,6.64,1.23,5.21-2.06,9.85-6.66,10.91-4.91,1.12-9.52-1.67-10.83-6.11-1.44-4.9,1.22-10.27,6.78-11.44Z"/>
  <path class="cls-2" d="M11.62,3.71c5.3-1.27,9.82,2.15,10.87,6.41,1.27,5.12-1.73,9.98-6.7,11.1-4.58,1.03-9.37-1.48-10.79-6.21-1.35-4.48,1.13-9.98,6.62-11.3Z"/>
  <path class="cls-2" d="M10.77,25.71c5.14-1.7,10.11,1.08,11.58,5.71,1.47,4.63-.82,9.92-6.13,11.46-4.07,1.18-9.04-.68-10.93-5.35-1.73-4.27.05-10.03,5.48-11.82Z"/>
  <rect class="cls-1" x="-351.65" y="-77.68" width="436.14" height="151.52"/>
</svg>