<?xml version="1.0" encoding="UTF-8"?>
<svg id="Layer_1" data-name="Layer 1" xmlns="http://www.w3.org/2000/svg" viewBox="0 0 69.02 62.76">
  <defs>
    <style>
      .cls-1 {
        fill: none;
        stroke: #ea0303;
        stroke-miterlimit: 10;
        stroke-width: 9px;
      }

      .cls-2 {
        fill: #582c83;
      }
    </style>
  </defs>
  <g>
    <path class="cls-2" d="M40.56,36.01c-3.41,3.09-.86,7.5.93,11.19,1.8,3.71,2.1,7.77,1.2,11.64.48.38.94.74,1.17.95.26.24-.31,1.17-.69,1.28-12.1,3.55-25.16-.74-32.84-10.39C2.41,40.73,1.29,27.1,7.61,15.93c.2-.35,1.15-.65,1.47-.46s.61,1.06.45,1.41l-1.61,3.53c4.94.37,6.52-5.38,6.18-9.13-.5-.02-1.07-.05-1.45-.14-.43-.1-.44-1.39-.07-1.74,2.49-2.4,5.33-4.47,8.56-6.04.04,4.9-2.01,13.23,2.88,16.07,2.79,1.62,6.66-.22,9.66,2.2l.04,3.63,1.62-.02-.05-7.65c-.66.22-.98.63-1.56,1.43V2.5c-2.57-.28-7.24,1.77-7.99.46C24.35.51,34.11.07,35.42.72c.32.16-.05,1.08-.05,1.48l-.08,15.2c3.96,3.62,1.79,8.8,6.4,8.72,4.01-.07,3.32,2.36,7.88-.53,2.79-1.77,6.23-4.5,9.63-2.55-1.18,3.61-6.55,5.95-9.71,7.46h13.93c-.22-2.55-.63-4.87-1.2-7.39-.08-.37.17-.96.41-1.19,2.37-2.2,3.23,8.91,2.73,10.15l-18.77.02,2.62-1.57-8.28.03c-.39,0-.39,1.53-.01,1.54l5.06.11c-1.92,1.25-3.74,2.3-5.41,3.81ZM28.71,35.32c-.63-5.61-4.79-10.08-10.43-10.68-3.74-.4-7.2,1.13-9.16,4.27-1.27,2.03-1.79,4.34-1.67,6.75,7.04,2.4,14.11,1.34,21.25-.34ZM33.4,26.49c-2.97.73-4.37,3.66-3.62,6.21s3.33,4.05,5.88,3.45c2.69-.63,4.36-3.31,3.73-5.93s-3.14-4.44-5.98-3.73ZM24.35,58.05l8.54-20.66-1.47-.72-8.64,20.86c.55.26,1.04.42,1.57.52Z"/>
    <path class="cls-2" d="M48,5.84c-4.41-2.28-7.69-2.17-7.73-3.82-.07-2.44,7.71,1.34,8.87,1.9.41.2.79,1.19.57,1.54-.36.57-1.09.69-1.71.37Z"/>
    <path class="cls-2" d="M59.24,16.38c-1.52-2.24-3.21-4.28-4.95-6.07-.25-.25-.22-1.25,0-1.5.26-.3,1.18-.36,1.49-.07,1.17,1.11,6.56,6.53,4.97,7.85-.26.22-1.28.1-1.5-.21Z"/>
    <path class="cls-2" d="M56.97,52.72c-1.07,1.1-6.87,6.74-7.96,4.85-.2-.35.02-1.24.36-1.47,2.23-1.53,3.94-2.89,5.89-4.75.3-.29,1.13-.46,1.47-.27s.51,1.35.23,1.64Z"/>
    <path class="cls-2" d="M64.7,38.68c-.45,1.57-2.56,8.95-4.4,8.03-.37-.19-.7-1.1-.49-1.51,1.16-2.32,1.99-4.42,2.7-6.94.13-.46.84-.94,1.31-.93.4.01,1,.9.88,1.35Z"/>
  </g>
  <rect class="cls-1" x="-128.42" y="-42.47" width="436.14" height="151.52"/>
</svg>