<?xml version="1.0" encoding="UTF-8"?>
<svg id="Layer_1" data-name="Layer 1" xmlns="http://www.w3.org/2000/svg" viewBox="0 0 58.55 12.43">
  <defs>
    <style>
      .cls-1 {
        fill: #31b5e7;
      }

      .cls-2 {
        fill: none;
        stroke: #ea0303;
        stroke-miterlimit: 10;
        stroke-width: 9px;
      }
    </style>
  </defs>
  <path d="M58.12,4.94c.04,2.32-1.6,4.1-3.78,4.12s-3.86-1.69-3.91-3.93,1.5-4.04,3.65-4.13,4,1.56,4.04,3.94ZM56.89,7.18c.59-.89.69-1.92.54-2.92-.22-1.42-1.25-2.5-2.57-2.72s-2.75.35-3.4,1.65c-.52,1.05-.55,2.27-.13,3.35.44,1.14,1.47,1.85,2.54,1.99,1.21.15,2.33-.31,3.02-1.35Z"/>
  <path d="M48.37,8.92l-2.4-3.51h-1.58s-.01,3.41-.01,3.41c0,.15-.5.17-.58.07V1.08c1.79.05,4.77-.45,4.83,2.05.03,1.21-.7,2.06-2.05,2.18l2.45,3.6h-.65ZM48.03,3.17c-.04-2.01-2.36-1.54-3.65-1.58v3.29c.77,0,1.49.02,2.22-.03.89-.06,1.45-.77,1.43-1.67Z"/>
  <path d="M33.64,8.41c-.85.72-1.8.69-2.78.58-1.8-.21-2.45-2.68-1.68-2.28.43.22.36,1.86,2.35,1.86.91,0,1.83-.24,2.17-1.17.14-.38.11-.96-.08-1.36-.15-.32-.67-.64-1.11-.74l-1.79-.37c-.72-.15-1.35-.65-1.52-1.23-.23-.79-.04-1.58.57-2.1.55-.47,1.28-.59,2.01-.58,1.18.02,2.21.71,2.32,1.93h-.51c-.17-.53-.41-1.02-.91-1.24-.73-.32-1.54-.31-2.27.04-.43.2-.69.68-.74,1.09-.27,2.26,3.07,1.3,4.23,2.61.75.84.58,2.25-.27,2.98Z"/>
  <path d="M8.94,1.15c.11-.03.36-.04.56-.03l-2.75,7.79c-.24.07-.58.05-.79-.04L3.17,1.12l.57-.04,2.66,7.23,2.54-7.16Z"/>
  <path d="M17.64,8.92c-.21.05-.58.01-.58-.12V1.6s-2.41-.03-2.41-.03l.02-.48h5.43s.01.49.01.49h-2.46s-.01,7.35-.01,7.35Z"/>
  <polygon points="38.86 8.94 38.27 8.93 38.27 1.58 35.86 1.57 35.86 1.09 41.31 1.08 41.31 1.58 38.86 1.58 38.86 8.94"/>
  <path d="M23.18,8.47l3.99.03c.12,0,.14.45.04.46h-4.63s0-4.27,0-4.27h3.54c.14,0,.29.21.25.28s-.22.2-.34.2h-2.85s0,3.31,0,3.31Z"/>
  <polygon points="12.19 8.89 11.59 8.93 11.59 1.1 12.19 1.13 12.19 8.89"/>
  <path d="M26.6,1.02c.29-.03.62-.34.84-.08.14.17.16.52.05.72-.19.35-.59.02-.86-.01-1.16-.12-2.37-.1-3.56-.02-.26.02-.6.41-.88.07-.15-.17-.14-.54.02-.74.25-.33.57.05.85.07,1.16.09,2.34.1,3.54,0Z"/>
  <rect class="cls-2" x="-269.46" y="-94.21" width="436.14" height="151.52"/>
  <rect class="cls-1" x=".47" y="8.96" width="2.7" height="2.7"/>
</svg>