<?xml version="1.0" encoding="UTF-8"?>
<svg id="Layer_1" data-name="Layer 1" xmlns="http://www.w3.org/2000/svg" viewBox="0 0 38.79 45.93">
  <defs>
    <style>
      .cls-1 {
        fill: none;
        stroke: #ea0303;
        stroke-miterlimit: 10;
        stroke-width: 9px;
      }
    </style>
  </defs>
  <rect class="cls-1" x="-465.98" y="-63.85" width="971.16" height="151.52"/>
  <g>
    <path d="M16.05,7.27c-.24.55-.39,1.55-.97,1.78-.7.26-.99-.67-.86-1.07.18-.59.59-1.14,1.82-.71Z"/>
    <path d="M18.15,7.05c.04.43-.21.91-.49.97-.46.1-.89-.17-.98-.45-.1-.4-.09-1.07.54-1.15.56-.07.89.35.93.64Z"/>
    <path d="M36.27,15.19c-.36-.72-1.09-1.26-2.09-1.15-.92.1-1.46.8-1.69,1.65-.32,1.13.76,1.49,1.2,2.33.7,1.3.07,3.16.26,4.66.12,1-.58,1.64-1.48,1.64l-3.21.02c-.78,0-2.28-1.55-1.71-2.01,2.26-1.84,1.11-3.79,1.36-5.86.5-4.34-.06-8.51-3.84-11.13-3.46-2.4-8.13-2.24-11.49.4-3.49,2.74-3.73,6.77-3.23,10.94.24,1.98-.8,4.01,1.37,5.86.53.44-1.18,1.82-1.85,1.81l-3.19-.06c-.88-.01-1.52-.67-1.42-1.64.15-1.52-.37-3.31.21-4.68.58-.81,1.57-1.37,1.13-2.56-.29-.78-.95-1.42-1.91-1.42-1.07,0-1.7.73-1.97,1.68-.31,1.1.77,1.47,1.16,2.31.61,1.33.1,3.16.2,4.68.12,1.86,1.21,2.83,3.21,2.9-1.09,1.13-.15,2.97-.84,4.04-.66,1.03-1.84,1.8-.92,3.13.67.99,1.99,1.29,2.93.49,1-.87.94-2.35-.15-3.16-.67-.49-.45-1.37-.5-2.14-.2-3.76,3.42-1,5.21-4.76,4.69.18,5.63-2.77,6.61-2.95.83-.15,1.7,3.04,6.66,3.04,1.73,3.43,5.43,1.27,5.19,4.35-.06.71.28,1.77-.23,2.22-.98.83-1.46,1.86-.84,2.88.65,1.08,1.93,1.2,2.74.69,1.1-.7,1.27-2.23.34-3.02-1.82-1.57,0-2.02-1.44-4.88,2.02.11,3.02-1.08,3.15-2.83.11-1.52-.44-3.4.24-4.72.49-.94,1.48-1.52.87-2.74ZM4.02,16.46c-.21-.27-.27-.85.25-1.16.44-.27.86-.07,1.06.23.23.32.21.8-.2,1.11-.31.22-.78.23-1.11-.18ZM7.94,31.53c.1.42-.13.87-.51.96-.42.1-.81-.06-.96-.38-.23-.49-.01-1.07.59-1.18.49-.09.81.32.88.6ZM12.04,20.92c-.8-.93-1.02-2.39-.36-3.6.65-1.19,2.13-1.85,3.68-1.37,1.49.47,2.52,1.67,3.67,2.86-1.7,2.26-5.07,4.38-7,2.1ZM19.75,17.53c-2.84-2.2-4.26-4.3-8.2-2.03-1-3.65.36-7.2,3.3-9.24,2.77-1.91,6.55-2.03,9.55.05,2.72,1.9,4.28,5.55,3.23,9.01-3.21-1.8-5.53-.27-7.88,2.22ZM23.65,21.62c-1.44-.58-2.35-1.68-3.4-2.72.81-1.22,1.89-2.11,3.17-2.74,1.32-.66,2.94-.49,3.86.64.82,1.02.93,2.53.23,3.65-.76,1.2-2.26,1.81-3.86,1.18ZM32.82,31.4c.18.46-.06.93-.38,1.05-.44.16-.83.02-1-.23-.27-.39-.23-1.03.37-1.25.55-.2.92.18,1.02.43ZM34.94,16.64c-.27.21-.65.23-.97,0-.28-.21-.56-.82,0-1.27.49-.38.94-.12,1.15.17.23.33.17.82-.18,1.1Z"/>
    <path d="M28.11,34.19c-.45-.76-.23-1.9-.21-2.82.05-1.97-1.18-3.29-3.18-3.37l-.11-3.45c-.01-.34-.48-.39-.66-.34-1,.26.1,11.65-.66,13.18-.34.76-1.78,1.47-.99,2.69.43.65.99,1.36,2.17,1.19.82-.12,1.32-.78,1.65-1.69.4-1.08-.94-1.41-1.18-2.25-.64-2.3-.12-5.34-.21-7.87.5-.61,1.95.25,1.93,1.15,0,1.15.39,2.56-.22,3.59-.49.83-.71,1.51.01,2.11.49.4,1.32.4,1.85-.18.5-.56.24-1.21-.2-1.93ZM24.79,38.85c.22.42.12.92-.15,1.09-.34.21-.84.2-1.03.01-.37-.38-.47-.98.13-1.33.45-.27.92.01,1.04.23Z"/>
    <path d="M15.89,37.36l-.16-12.49c-.01-.44-.22-.67-.51-.69-1.06-.04-.37,2.66-.66,3.76-.95.21-1.85.45-2.37,1.04-1.48,1.69-.21,4.09-1.05,5.29-.51.73-.58,1.58.06,2.08.56.43,1.41.24,1.76-.14.64-.69.24-1.31-.11-2.03-.54-1.08-.26-2.47-.16-3.71.07-.84,1.24-1.53,1.91-1.08-.15,2.46.42,5.45-.22,7.89-.22.85-1.76,1.3-1.09,2.6.36.7.84,1.44,1.95,1.4.98-.02,1.65-.69,1.93-1.74.24-.89-.72-1.59-1.27-2.19ZM15.72,39.92c-.4.33-.98.21-1.18-.09-.29-.44-.22-.99.28-1.24.42-.18.81-.01.99.23.28.39.16.88-.1,1.09Z"/>
    <path d="M20.26,33.95c.77.71.94,1.63.4,2.24-.51.57-1.45.43-1.91.05-.91-.76.1-1.5.19-2.21.36-2.9-.26-10.46.62-10.64.26-.05.66.13.66.57l.04,10Z"/>
    <path d="M16.05,7.27c-.24.55-.39,1.55-.97,1.78-.7.26-.99-.67-.86-1.07.18-.59.59-1.14,1.82-.71Z"/>
    <path d="M18.15,7.05c.04.43-.21.91-.49.97-.46.1-.89-.17-.98-.45-.1-.4-.09-1.07.54-1.15.56-.07.89.35.93.64Z"/>
    <path d="M16.05,7.27c-.24.55-.39,1.55-.97,1.78-.7.26-.99-.67-.86-1.07.18-.59.59-1.14,1.82-.71Z"/>
    <path d="M18.15,7.05c.04.43-.21.91-.49.97-.46.1-.89-.17-.98-.45-.1-.4-.09-1.07.54-1.15.56-.07.89.35.93.64Z"/>
  </g>
</svg>