<?xml version="1.0" encoding="UTF-8"?>
<svg id="Layer_1" data-name="Layer 1" xmlns="http://www.w3.org/2000/svg" xmlns:xlink="http://www.w3.org/1999/xlink" viewBox="0 0 96.26 26.04">
  <defs>
    <style>
      .cls-1 {
        fill: none;
        stroke: #ea0303;
        stroke-miterlimit: 10;
        stroke-width: 9px;
      }

      .cls-2 {
        fill: url(#linear-gradient-2);
      }

      .cls-3 {
        fill: url(#linear-gradient-4);
      }

      .cls-4 {
        fill: url(#linear-gradient-3);
      }

      .cls-5 {
        fill: url(#linear-gradient-5);
      }

      .cls-6 {
        fill: url(#linear-gradient);
      }
    </style>
    <linearGradient id="linear-gradient" x1="75.98" y1="13.39" x2="92.18" y2="13.39" gradientUnits="userSpaceOnUse">
      <stop offset="0" stop-color="#b542bc"/>
      <stop offset="1" stop-color="#3c56a2"/>
    </linearGradient>
    <linearGradient id="linear-gradient-2" x1="23.55" y1="13.37" x2="39.74" y2="13.37" xlink:href="#linear-gradient"/>
    <linearGradient id="linear-gradient-3" x1="5.98" y1="13.41" x2="22.25" y2="13.41" xlink:href="#linear-gradient"/>
    <linearGradient id="linear-gradient-4" x1="41.31" y1="13.41" x2="57.3" y2="13.41" xlink:href="#linear-gradient"/>
    <linearGradient id="linear-gradient-5" x1="58.87" y1="13.49" x2="74.78" y2="13.49" xlink:href="#linear-gradient"/>
  </defs>
  <g>
    <path class="cls-6" d="M92.18,21.47c-3.08-.01-5.86.08-8.77-.09-4.5-.27-7.69-4.26-7.41-8.56s3.79-7.58,8.26-7.52c4.09.05,7.84,3.48,7.87,7.92l.05,8.26ZM83.52,9.83c-2.18.36-3.43,2.35-2.96,4.39.39,1.68,2.17,3.1,4.11,2.73,1.83-.35,3.25-2.07,2.98-4.09-.24-1.77-1.94-3.39-4.12-3.03Z"/>
    <path class="cls-2" d="M39.74,21.47l-8.61-.08c-4.44-.04-7.69-4.02-7.57-8.25s3.4-7.67,7.81-7.85c4.03-.16,8.25,3.01,8.29,7.45l.09,8.73ZM30.88,9.87c-2.2.51-3.2,2.64-2.71,4.42.52,1.92,2.4,2.97,4.17,2.61,2.04-.42,3.24-2.35,2.82-4.3-.38-1.81-2.2-3.21-4.27-2.73Z"/>
    <path class="cls-4" d="M16.93,13.82c0-1.63-.91-2.96-2.55-3.09-1.47-.11-2.98,1.11-2.98,2.8l-.04,7.89h-5.33c.08-3.6-.4-7.01.45-10.41.91-3.63,4.48-5.79,7.95-5.7s7.2,2.59,7.6,6.34c.35,3.29.14,6.23.13,9.71l-5.2.12-.04-7.68Z"/>
    <path class="cls-3" d="M52.04,5.52h5.21c-.14,3.24.32,6.03-.22,9.19s-4.03,6.5-7.54,6.59-7.46-3.36-7.95-6.77c-.46-3.17-.1-5.91-.17-9.02h5.16s.16,8.23.16,8.23c.02.84,1.74,2.05,2.54,2.09.89.04,2.69-1.25,2.7-2.13l.11-8.18Z"/>
    <path class="cls-5" d="M74.73,12.21c-.02,3.27-2.28,5.66-5.17,6.67l-.15,2.55-5.17.04-.06-2.49c-3.18-1.19-5.32-4.08-5.31-7.57l.02-5.89h5.19s.1,6.09.1,6.09c.03,1.52,1.67,2.55,2.92,2.45,1.49-.12,2.47-1.4,2.48-2.97l.02-5.58h5.18s-.05,6.69-.05,6.69Z"/>
  </g>
  <rect class="cls-1" x="-645.96" y="-55.34" width="971.16" height="151.52"/>
</svg>