<?xml version="1.0" encoding="UTF-8"?>
<svg id="Layer_1" data-name="Layer 1" xmlns="http://www.w3.org/2000/svg" viewBox="0 0 30.47 30.47">
  <defs>
    <style>
      .cls-1 {
        fill: none;
        stroke: #ea0303;
        stroke-miterlimit: 10;
        stroke-width: 9px;
      }

      .cls-2 {
        fill: #173470;
      }
    </style>
  </defs>
  <path class="cls-2" d="M5.49,12.72l-2.68,4.65c-.54-.44-1.01-1.17-1.2-1.81l2.1-3.85c.29-.53.79-.99,1.43-.99l7.77-.02c-.23,1.59-1.32,1.97-2.54,1.98l-4.88.03Z"/>
  <path class="cls-2" d="M17.64,20.33c-.03-.77.76-1.89,1.61-1.91l5.92-.12,2.69-4.53c.45.54.8,1.08,1.15,1.71l-2.73,4.85h-8.64Z"/>
  <path class="cls-2" d="M8.17,22.99l2.46,4.28c-.59.24-1.83.43-2.13,0-1.07-1.56-1.87-2.98-2.8-4.65l4.22-7.43c1.04.64,1.23,1.91.64,2.9l-1.97,3.3c-.2.34-.63,1.26-.42,1.61Z"/>
  <path class="cls-2" d="M20.76,15.89c-1.22-.5-1.25-1.92-.69-2.86l2.31-3.87c.25-.42.14-1.17-.1-1.59l-2.11-3.68c.59-.37,1.89-.45,2.27.19l2.17,3.67c.31.52.26,1.23-.13,1.72l-3.71,6.42Z"/>
  <path class="cls-2" d="M18.24,10.99c-2.82,1.6-3.57-3.28-5.6-5.36l-5.17.07c-.06-.7.52-1.96,1.32-1.97l5.07-.02,4.38,7.29Z"/>
  <path class="cls-2" d="M23.09,25.48c-.13.62-.51,1.42-.92,1.82-1.9.11-3.53.1-5.52.07l-4.35-7.36c2.76-1.63,3.77,3.55,5.45,5.37l5.34.11Z"/>
  <path class="cls-2" d="M18.02,23.57c.15-3.12,3.75-1.37,5.34-2.1,1.03-.43,2.03-.94,2.84,0,.66.76.62,2.1-.23,2.73s-2.1.38-2.69-.6l-5.26-.03ZM24.6,21.76c-.68.19-.85.94-.65,1.35.22.46.78.69,1.18.6.59-.14.85-.76.75-1.3-.08-.41-.72-.81-1.27-.65Z"/>
  <path class="cls-2" d="M5.96,19.44c.32,1.08.08,2.12-.85,2.62-1.03.55-2.22-.22-2.53-1.09-.5-1.37.65-2.03,1.68-2.46l2.75-4.65c1.05.76,1.15,1.85.59,2.81l-1.63,2.77ZM3.66,19.62c-.42.39-.43,1.16-.2,1.45.3.37,1.14.39,1.45.17.43-.29.48-1.01.26-1.39s-1.1-.62-1.51-.24Z"/>
  <path class="cls-2" d="M20.94,9.18c-2.86,1.36-2.82-2.41-4.42-3.6-.95-.71-1.58-1.25-1.32-2.39s1.43-1.54,2.45-1.2c1.17.38,1.24,1.57.86,2.74.68,1.4,1.53,2.82,2.43,4.45ZM16.58,2.74c-.59.27-.76,1-.52,1.42.26.45.94.6,1.36.41.47-.2.66-.84.48-1.27-.2-.46-.81-.79-1.32-.56Z"/>
  <path class="cls-2" d="M23.61,17.22c-2.65-1.67.8-3.95.95-5.8.1-1.21.46-2.09,1.5-2.27,1.19-.21,2.09.58,2.18,1.66.11,1.2-.9,1.86-2.06,1.97l-2.56,4.44ZM25.96,10c-.51.16-.63,1.15-.34,1.56.22.31,1.01.45,1.35.27.4-.22.57-.95.41-1.4-.15-.42-.85-.6-1.42-.42Z"/>
  <path class="cls-2" d="M14.21,25.44c.97.78,1.72,1.32,1.3,2.5-.35.97-1.45,1.43-2.51,1.05-.98-.35-1.35-1.6-.74-2.67l-2.58-4.52c2.95-1.06,2.7,2.17,4.53,3.64ZM13.45,26.39c-.62.15-.78.91-.62,1.4.14.41.75.63,1.34.55.38-.05.64-.82.55-1.29-.07-.38-.74-.8-1.27-.66Z"/>
  <path class="cls-2" d="M12.43,7.5c.24,1.21-.94,1.95-2.07,1.94l-2.6-.04c-.25,0-.78.47-.98.62-.79.6-1.99.18-2.41-.65-.45-.88-.26-1.91.69-2.49s1.7-.07,2.58.62c1.44.09,3.15,0,4.8,0ZM5.29,7.65c-.37.2-.44,1.15-.22,1.5.2.32,1.05.38,1.5.14.33-.18.43-.91.25-1.26-.26-.49-.85-.74-1.53-.38Z"/>
  <rect class="cls-1" x="-282.45" y="-58.72" width="971.16" height="151.52"/>
</svg>