<?xml version="1.0" encoding="UTF-8"?>
<svg id="Layer_1" data-name="Layer 1" xmlns="http://www.w3.org/2000/svg" viewBox="0 0 45.45 42.3">
  <defs>
    <style>
      .cls-1 {
        fill: none;
        stroke: #ea0303;
        stroke-miterlimit: 10;
        stroke-width: 9px;
      }
    </style>
  </defs>
  <path d="M26.21,41.7c-11.68,1.89-21.91-5.65-24.03-16.61C.03,13.99,7.17,3.1,18.48.76c11.54-2.39,22.58,5.14,24.79,16.42,2.2,11.28-5.15,22.6-17.05,24.52ZM35.67,30.85l-6.68-6.71c1.26-2.93.58-5.95-1.54-7.95-2.03-1.92-4.9-2.34-7.74-1.24l-3.32-3.41c4.14-2.73,8.82-2.47,12.7,0,3.67,2.34,5.69,6.6,5.15,11.28l3.8,3.6c2.74-7.94-.94-15.97-7.86-19.6-6.95-3.64-15.58-1.76-20.43,4.67l6.61,6.62c-.91,2.86-.71,5.83,1.54,7.97,1.94,1.86,4.81,2.69,7.76,1.34l3.45,3.4c-4.22,2.75-9.15,2.49-13.05-.17-3.52-2.4-5.38-6.66-4.86-11.21l-3.82-3.43c-2.69,7.96.99,15.94,7.88,19.53,6.87,3.59,15.7,1.81,20.41-4.69Z"/>
  <rect class="cls-1" x="-91.57" y="-64.17" width="971.16" height="151.52"/>
</svg>