<svg xmlns="http://www.w3.org/2000/svg" width="88.956" height="30" viewBox="0 0 88.956 30">
  <g id="Group_2585" data-name="Group 2585" transform="translate(-19.322 -3.035)">
    <path id="Path_4341" data-name="Path 4341" d="M108.861,17.009a.124.124,0,0,0,.089.038.121.121,0,0,0,.085-.035l.232-.245a4.465,4.465,0,0,0-.148-5.968L103.37,4.748a2.232,2.232,0,1,0-3.236,3.074S107.9,16,108.861,17.009Z" transform="translate(-49.732 -0.632)" fill="#410088"/>
    <path id="Path_4342" data-name="Path 4342" d="M202.339,3.44a2.23,2.23,0,0,0-2.23,2.23V7a.123.123,0,0,1-.123.123.435.435,0,0,1-.149-.095A15.468,15.468,0,0,0,189.6,3.059a15,15,0,1,0,0,29.991,15.209,15.209,0,0,0,3.474-.4,8.776,8.776,0,0,0,3.942-2.108,3.233,3.233,0,0,0-.312-4.328c-.056-.056-.1-.1-.139-.133a.121.121,0,0,0-.081-.031.135.135,0,0,0-.079.03A10.53,10.53,0,1,1,189.6,7.52c5.587,0,10.507,3.984,10.507,8.968V32.3a.123.123,0,0,0,.123.123h4.213a.122.122,0,0,0,.123-.123V5.67A2.23,2.23,0,0,0,202.339,3.44Z" transform="translate(-96.29 -0.015)" fill="#410088"/>
    <path id="Path_4343" data-name="Path 4343" d="M146.276,46.905a.124.124,0,0,0-.089-.038.12.12,0,0,0-.085.035l-.232.245a4.464,4.464,0,0,0,.148,5.968l5.748,6.051A2.232,2.232,0,1,0,155,56.092S147.235,47.911,146.276,46.905Z" transform="translate(-77.809 -27.181)" fill="#410088"/>
    <path id="Path_4344" data-name="Path 4344" d="M119.5,4.748l-26.7,28.1,0,0,0,0h0a.12.12,0,0,0-.033.081.123.123,0,0,0,.123.123h5.871l23.979-25.24A2.232,2.232,0,1,0,119.5,4.748Z" transform="translate(-45.539 -0.632)" fill="#410088"/>
    <path id="Path_4345" data-name="Path 4345" d="M34.322,3.035a15.19,15.19,0,0,0-3.474.4,8.777,8.777,0,0,0-3.942,2.108,3.233,3.233,0,0,0,.312,4.328c.056.056.1.1.139.133a.12.12,0,0,0,.081.031.138.138,0,0,0,.079-.03,10.526,10.526,0,1,1-3.732,8.029h0a10.447,10.447,0,0,1,2.1-6.278.145.145,0,0,0,.018-.093.175.175,0,0,0-.039-.066L22.506,9.043a.111.111,0,0,0-.077-.027.134.134,0,0,0-.1.049,14.981,14.981,0,1,0,11.994-6.03Z" transform="translate(0 0)" fill="#410088"/>
  </g>
</svg>
