<?xml version="1.0" encoding="UTF-8"?>
<svg id="Layer_1" data-name="Layer 1" xmlns="http://www.w3.org/2000/svg" viewBox="0 0 55.49 57.28">
  <defs>
    <style>
      .cls-1 {
        fill: none;
        stroke: #ea0303;
        stroke-miterlimit: 10;
        stroke-width: 9px;
      }
    </style>
  </defs>
  <path d="M33.72,39.51c-2.01-2-3.81,1.74-6.04,1.24-1.99-.45-3.34-3.06-5.27-1.12l-12.49,12.59c-1.13,1.13-2.99.69-3.89-.28-.95-1.02-1.14-2.79-.03-3.91l15.28-15.28.03-9.94c0-.55-.38-1.39-.85-1.71L4.59,10.15c-1.38-.96-1.46-2.71-.71-3.99s2.58-1.95,3.94-.98l14.15,10.18V6.82c0-1.58,1.04-2.75,2.72-2.74l7.14.02c1.6,0,2.48,1.27,2.49,2.72l.03,7.89,13.03-9.55c1.39-1.02,3.4-.12,4.11,1.14.81,1.45.47,3.12-.99,4.15l-14.55,10.34c-.54.38-.93,1.16-.92,1.8l.04,10.14,15.26,15.27c1.1,1.1.96,2.79.07,3.87-.74.89-2.63,1.61-3.74.51l-12.94-12.86ZM31.31,15.15c.36,0,.83-.76.83-1.12v-6.74c0-.54-.48-1.13-.99-1.13h-6.03c-.35-.01-.94.52-.94.89v7.24c0,.34.61.89.93.88l6.2-.02ZM8.42,10.36c.3.21,1.09-.04,1.26-.37.14-.27-.04-.94-.29-1.12l-2.35-1.71c-.35-.25-1.03-.22-1.32.11-.24.27-.13,1.1.16,1.3l2.55,1.79ZM47.08,10.22l2.32-1.69c.27-.2.29-1.06.04-1.31-.23-.23-.89-.29-1.16-.09l-2.53,1.85c-.3.22-.22,1.06.08,1.32.24.21.93.16,1.25-.08ZM26.41,34.31v-15.15c0-.59-.58-1.01-1.1-.97-.34.03-.87.52-.87.96v15.08c0,.53.45,1.04.89,1.11.37.06,1.09-.45,1.09-1.04ZM32.03,34.08v-14.9c0-.66-.68-1.08-1.31-.99-.4.06-.76.65-.76,1.21l.03,15.14c0,.38.86.88,1.21.8.41-.09.83-.61.83-1.26ZM11.69,47.53l2.7-2.68c.23-.23.22-1,.04-1.23s-.95-.32-1.19-.08l-3.03,3.05c-.23.24.07,1.17.37,1.27.26.09.85-.06,1.12-.33ZM45.98,46.44l-2.86-2.83c-.22-.21-.86-.26-1.12-.12s-.47,1.04-.21,1.29l2.99,2.96c.25.25,1.03.15,1.24-.09.18-.21.18-.99-.03-1.2ZM7.97,48.87c-.51.17-.71.95-.5,1.42.16.36.93.54,1.38.33.35-.16.57-.95.37-1.35-.15-.3-.84-.53-1.25-.39ZM47.73,48.83c-.6.19-.87.97-.63,1.34.25.39.93.67,1.34.53.34-.12.67-.83.54-1.16-.16-.42-.8-.84-1.25-.7Z"/>
  <rect class="cls-1" x="-373.34" y="-56.85" width="971.16" height="151.52"/>
</svg>